<?xml version="1.0" encoding="utf-8" standalone="no"?>
<!DOCTYPE svg PUBLIC "-//W3C//DTD SVG 1.1//EN"
  "http://www.w3.org/Graphics/SVG/1.1/DTD/svg11.dtd">
<!-- Created with matplotlib (http://matplotlib.org/) -->
<svg height="345.6pt" version="1.1" viewBox="0 0 460.8 345.6" width="460.8pt" xmlns="http://www.w3.org/2000/svg" xmlns:xlink="http://www.w3.org/1999/xlink">
 <defs>
  <style type="text/css">
*{stroke-linecap:butt;stroke-linejoin:round;}
  </style>
 </defs>
 <g id="figure_1">
  <g id="patch_1">
   <path d="M 0 345.6 
L 460.8 345.6 
L 460.8 0 
L 0 0 
z
" style="fill:#ffffff;"/>
  </g>
  <g id="axes_1">
   <g id="patch_2">
    <path d="M 342.6048 174.528 
C 342.6048 169.516089 342.250824 164.510431 341.545516 159.548396 
C 340.840207 154.586361 339.785325 149.68033 338.388746 144.866931 
L 236.16 174.528 
L 342.6048 174.528 
z
" style="fill:#1f77b4;"/>
   </g>
   <g id="patch_3">
    <path d="M 338.388746 144.866931 
C 336.992166 140.053531 335.257373 135.344773 333.197319 130.775809 
C 331.137265 126.206846 328.757088 121.789078 326.07456 117.555487 
L 236.16 174.528 
L 338.388746 144.866931 
z
" style="fill:#ff7f0e;"/>
   </g>
   <g id="patch_4">
    <path d="M 326.07456 117.555487 
C 323.392033 113.321896 320.413846 109.283045 317.162234 105.469087 
C 313.910623 101.655129 310.3937 98.07558 306.637722 94.757165 
L 236.16 174.528 
L 326.07456 117.555487 
z
" style="fill:#2ca02c;"/>
   </g>
   <g id="patch_5">
    <path d="M 306.637722 94.757165 
C 302.881745 91.43875 298.896083 88.389747 294.710494 85.632921 
C 290.524905 82.876094 286.149831 80.418322 281.617936 78.277953 
L 236.16 174.528 
L 306.637722 94.757165 
z
" style="fill:#d62728;"/>
   </g>
   <g id="patch_6">
    <path d="M 281.617936 78.277953 
C 271.404021 73.454023 260.487046 70.286527 249.277376 68.89453 
C 238.067706 67.502534 226.70758 67.903699 215.624023 70.082947 
L 236.16 174.528 
L 281.617936 78.277953 
z
" style="fill:#9467bd;"/>
   </g>
   <g id="patch_7">
    <path d="M 215.624023 70.082947 
C 210.70627 71.049875 205.862942 72.362923 201.130201 74.012287 
C 196.397459 75.661651 191.78711 77.643216 187.333575 79.942189 
L 236.16 174.528 
L 215.624023 70.082947 
z
" style="fill:#8c564b;"/>
   </g>
   <g id="patch_8">
    <path d="M 187.333575 79.942189 
C 182.88004 82.241162 178.59443 84.851806 174.508741 87.75463 
C 170.423051 90.657455 166.547476 93.845218 162.91095 97.294121 
L 236.16 174.528 
L 187.333575 79.942189 
z
" style="fill:#e377c2;"/>
   </g>
   <g id="patch_9">
    <path d="M 162.91095 97.294121 
C 159.274424 100.743023 155.886019 104.444459 152.771034 108.370795 
C 149.656048 112.297131 146.822254 116.438571 144.290807 120.764195 
L 236.16 174.528 
L 162.91095 97.294121 
z
" style="fill:#7f7f7f;"/>
   </g>
   <g id="patch_10">
    <path d="M 144.290807 120.764195 
C 141.759359 125.089819 139.536575 129.588835 137.63905 134.227655 
C 135.741524 138.866474 134.173991 143.633523 132.948154 148.493212 
L 236.16 174.528 
L 144.290807 120.764195 
z
" style="fill:#bcbd22;"/>
   </g>
   <g id="patch_11">
    <path d="M 132.948154 148.493212 
C 131.722316 153.3529 130.841232 158.293103 130.311481 163.276938 
C 129.781729 168.260773 129.604631 173.275806 129.781509 178.284594 
L 236.16 174.528 
L 132.948154 148.493212 
z
" style="fill:#17becf;"/>
   </g>
   <g id="patch_12">
    <path d="M 129.781509 178.284594 
C 129.958386 183.293383 130.488799 188.283431 131.368785 193.217483 
C 132.248772 198.151535 133.476138 203.017282 135.04172 207.778396 
L 236.16 174.528 
L 129.781509 178.284594 
z
" style="fill:#1f77b4;"/>
   </g>
   <g id="patch_13">
    <path d="M 135.04172 207.778396 
C 140.546695 224.51966 150.124019 239.634682 162.910954 251.761883 
C 175.697888 263.889083 191.298594 272.653045 208.307739 277.264298 
C 225.316885 281.875552 243.207924 282.19135 260.369212 278.183244 
C 277.530499 274.175137 293.430778 265.967205 306.637732 254.298827 
L 236.16 174.528 
L 135.04172 207.778396 
z
" style="fill:#ff7f0e;"/>
   </g>
   <g id="patch_14">
    <path d="M 306.637732 254.298827 
C 310.393709 250.980411 313.910632 247.400862 317.162242 243.586904 
C 320.413853 239.772946 323.39204 235.734094 326.074567 231.500503 
L 236.16 174.528 
L 306.637732 254.298827 
z
" style="fill:#2ca02c;"/>
   </g>
   <g id="patch_15">
    <path d="M 326.074567 231.500503 
C 328.757095 227.266911 331.13727 222.849143 333.197324 218.280179 
C 335.257378 213.711216 336.99217 209.002457 338.388749 204.189057 
L 236.16 174.528 
L 326.074567 231.500503 
z
" style="fill:#d62728;"/>
   </g>
   <g id="patch_16">
    <path d="M 338.388749 204.189057 
C 339.785328 199.375658 340.840209 194.469626 341.545517 189.507592 
C 342.250825 184.545557 342.604801 179.539898 342.6048 174.527988 
L 236.16 174.528 
L 338.388749 204.189057 
z
" style="fill:#9467bd;"/>
   </g>
   <g id="matplotlib.axis_1"/>
   <g id="matplotlib.axis_2"/>
   <g id="text_1">
    <!-- ﺎﻫ_ﻩﺎﮕﺸﯾﺎﻤﻧ -->
    <defs>
     <path d="M 9.421875 18.109375 
L 9.421875 75.984375 
L 18.40625 75.984375 
L 18.40625 18.703125 
Q 18.40625 13.53125 20.796875 11.140625 
Q 22.953125 8.984375 27.78125 8.984375 
L 31.453125 8.984375 
L 31.453125 0 
L 25.09375 0 
Q 17.578125 0 13.671875 4.5 
Q 9.421875 9.421875 9.421875 18.109375 
z
" id="DejaVuSans-fe8e"/>
     <path d="M 19.734375 13.140625 
Q 21.484375 14.453125 23.140625 17.578125 
Q 25.046875 21.09375 25.046875 24.078125 
Q 25.046875 26.3125 24.3125 28.125 
Q 23.25 30.671875 20.40625 30.671875 
Q 17.234375 30.671875 16.109375 28.46875 
Q 15.046875 26.375 15.046875 24.65625 
Q 15.046875 23.1875 15.375 21.390625 
Q 16.40625 15.625 19.734375 13.140625 
z
M 4.25 8.984375 
Q 6.78125 8.984375 10.59375 9.515625 
Q 8.40625 14.65625 7.671875 18.015625 
Q 6.78125 21.828125 6.78125 24.953125 
Q 6.78125 29.046875 8.984375 33.109375 
Q 11.328125 37.5 15.09375 37.0625 
Q 12.9375 38.96875 8.984375 39.65625 
L 8.984375 48.6875 
Q 19.875 45.359375 30.421875 36.625 
Q 42.921875 26.421875 46.046875 15.578125 
Q 46.734375 13.03125 46.734375 10.25 
Q 46.734375 5.21875 44.78125 2.25 
Q 41.15625 -3.265625 32.625 -3.265625 
Q 26.21875 -3.265625 18.703125 2 
Q 12.84375 0 5.71875 0 
L -0.984375 0 
L -0.984375 8.984375 
z
M 32.375 24.8125 
Q 32.671875 23 32.671875 21.09375 
Q 32.671875 13.921875 27.875 8.796875 
Q 27.296875 8.109375 26.46875 7.171875 
Q 29 4.9375 31.390625 4.9375 
Q 37.5 4.9375 38.328125 8.203125 
Q 38.671875 9.671875 38.671875 11.28125 
Q 38.671875 14.203125 37.0625 18.015625 
Q 35.640625 21.390625 32.375 24.8125 
z
" id="DejaVuSans-feeb"/>
     <path d="M 50.984375 -16.609375 
L 50.984375 -23.578125 
L -0.984375 -23.578125 
L -0.984375 -16.609375 
z
" id="DejaVuSans-5f"/>
     <path d="M 21.625 27.046875 
Q 18.40625 27.046875 16.796875 22.796875 
Q 15.53125 19.4375 15.578125 13.421875 
Q 15.625 9.421875 18.3125 7.28125 
Q 21.09375 5.125 23.875 5.125 
Q 28.328125 5.125 32.859375 7.90625 
Q 36.53125 10.15625 36.53125 14.3125 
Q 36.53125 18.0625 33.296875 21.234375 
Q 27.296875 27.09375 21.625 27.046875 
z
M 19.875 35.84375 
Q 29.546875 35.84375 38.421875 28.03125 
Q 45.3125 21.96875 45.3125 14.75 
Q 45.265625 4.984375 38.09375 1.3125 
Q 30.03125 -2.828125 23.578125 -2.828125 
Q 18.890625 -2.828125 14.9375 -1.125 
Q 6.78125 2.484375 6.78125 14.15625 
Q 6.78125 23 8.59375 26.8125 
Q 12.703125 35.84375 19.875 35.84375 
z
" id="DejaVuSans-fee9"/>
     <path d="M 15.140625 0 
L -0.984375 0 
L -0.984375 8.984375 
L 14.15625 8.984375 
Q 21.390625 8.984375 23.578125 14.0625 
Q 24.359375 15.828125 24.359375 17.578125 
Q 24.359375 20.953125 21.734375 24.171875 
L 6.59375 42.71875 
Q 4.15625 45.703125 4.15625 49.65625 
Q 4.15625 51.375 4.640625 52.984375 
Q 6.15625 58.734375 11.234375 60.84375 
L 47.609375 75.984375 
L 47.609375 66.890625 
L 18.5625 54.6875 
Q 15.09375 53.21875 14.0625 51.265625 
Q 13.765625 50.734375 13.765625 49.515625 
Q 13.765625 47.953125 15.28125 46.140625 
L 43.75 11.71875 
Q 44.828125 10.453125 46.6875 9.765625 
Q 48.78125 8.984375 51.90625 8.984375 
L 56.203125 8.984375 
L 56.203125 0 
L 49.75 0 
Q 46.578125 0 43.75 1.171875 
Q 38.71875 3.265625 37.109375 5.28125 
L 32.375 11.140625 
Q 31.34375 8.890625 30.515625 7.5625 
Q 25.875 0 15.140625 0 
z
M 47.609375 82.28125 
L 5.46875 64.984375 
L 5.46875 72.3125 
L 47.609375 89.59375 
z
" id="DejaVuSans-fb95"/>
     <path d="M 62.359375 -0.984375 
Q 60.546875 -1.421875 58.84375 -1.421875 
Q 55.765625 -1.421875 53.078125 -0.203125 
Q 46.390625 2.78125 45.515625 9.234375 
Q 43.171875 1.609375 38.484375 0 
Q 35.15625 -1.171875 31.984375 -1.171875 
Q 27.203125 -1.171875 23.6875 1.21875 
Q 20.75 3.171875 18.75 6.734375 
Q 16.65625 3.859375 13.921875 2.25 
Q 10.203125 0 5.375 0 
L -0.984375 0 
L -0.984375 8.984375 
L 2.6875 8.984375 
Q 7.515625 8.984375 9.671875 11.140625 
Q 13.578125 15.046875 13.578125 19.921875 
L 13.578125 29.296875 
L 22.5625 29.296875 
L 22.5625 21.6875 
Q 22.5625 18.5625 24.703125 13.671875 
Q 26.8125 8.84375 31.890625 8.84375 
Q 37.203125 8.84375 39.359375 14.796875 
Q 41.15625 19.828125 41.15625 29.296875 
L 50.140625 29.296875 
Q 50.140625 19.28125 51.078125 16.84375 
Q 54.203125 8.546875 59.578125 8.59375 
Q 66.5 8.6875 66.5 22.265625 
L 66.5 36.625 
L 75.484375 36.625 
L 75.484375 19.921875 
Q 75.484375 15.1875 79.546875 11.140625 
Q 81.6875 8.984375 86.53125 8.984375 
L 90.1875 8.984375 
L 90.1875 0 
L 83.84375 0 
Q 76.765625 0 71 4.6875 
Q 67.671875 0.296875 62.359375 -0.984375 
z
M 37.84375 58.59375 
L 45.171875 58.59375 
L 45.171875 51.265625 
L 37.84375 51.265625 
z
M 43.953125 46.390625 
L 51.265625 46.390625 
L 51.265625 39.0625 
L 43.953125 39.0625 
z
M 31.734375 46.390625 
L 39.0625 46.390625 
L 39.0625 39.0625 
L 31.734375 39.0625 
z
" id="DejaVuSans-feb8"/>
     <path d="M 14.59375 4.203125 
Q 11.078125 0 3.421875 0 
L -0.984375 0 
L -0.984375 8.984375 
L 0.734375 8.984375 
Q 5.5625 8.984375 7.71875 11.140625 
Q 10.109375 13.53125 10.109375 18.703125 
L 10.109375 29.296875 
L 19.09375 29.296875 
L 19.09375 18.703125 
Q 19.09375 9.578125 14.59375 4.203125 
z
M 17.046875 -7.328125 
L 24.359375 -7.328125 
L 24.359375 -14.65625 
L 17.046875 -14.65625 
z
M 4.828125 -7.328125 
L 12.15625 -7.328125 
L 12.15625 -14.65625 
L 4.828125 -14.65625 
z
" id="DejaVuSans-fbfe"/>
     <path d="M 42.390625 2.546875 
Q 37.640625 -2.4375 30.859375 -2.4375 
Q 20.40625 -2.4375 15.046875 2.34375 
Q 11.921875 0 6.84375 0 
L -0.984375 0 
L -0.984375 8.984375 
L 4.6875 8.984375 
Q 7.234375 8.984375 9.375 10.75 
Q 11.46875 12.453125 11.71875 14.84375 
Q 12.703125 23.6875 19.28125 27.59375 
Q 23.875 30.328125 28.421875 30.328125 
Q 31.9375 30.328125 35.15625 28.90625 
Q 44.578125 24.859375 45.40625 16.703125 
Q 45.65625 14.3125 48.140625 11.28125 
Q 49.90625 9.125 55.125 9.125 
L 58.796875 9.125 
L 58.796875 0.140625 
L 52.4375 0.140625 
Q 43.84375 0.140625 42.390625 2.546875 
z
M 19.828125 9.71875 
Q 22.859375 6.34375 30.609375 6.34375 
Q 32.90625 6.34375 33.84375 7.234375 
Q 36.375 9.8125 36.375 13.1875 
Q 36.375 14.109375 36.140625 14.984375 
Q 35.0625 19.28125 32.234375 20.125 
Q 30.328125 20.703125 28.421875 20.703125 
Q 25.828125 20.703125 23.828125 19.390625 
Q 21.390625 17.78125 20.65625 13.03125 
Q 20.3125 11.234375 19.828125 9.71875 
z
" id="DejaVuSans-fee4"/>
     <path d="M 10.9375 48.828125 
L 18.265625 48.828125 
L 18.265625 41.5 
L 10.9375 41.5 
z
M 14.59375 4.203125 
Q 11.078125 0 3.421875 0 
L -0.984375 0 
L -0.984375 8.984375 
L 0.734375 8.984375 
Q 5.5625 8.984375 7.71875 11.140625 
Q 10.109375 13.53125 10.109375 18.703125 
L 10.109375 29.296875 
L 19.09375 29.296875 
L 19.09375 18.703125 
Q 19.09375 9.578125 14.59375 4.203125 
z
" id="DejaVuSans-fee7"/>
    </defs>
    <g transform="translate(352.084067 161.351217)scale(0.1 -0.1)">
     <use xlink:href="#DejaVuSans-fe8e"/>
     <use x="30.46875" xlink:href="#DejaVuSans-feeb"/>
     <use x="83.203125" xlink:href="#DejaVuSans-5f"/>
     <use x="133.203125" xlink:href="#DejaVuSans-fee9"/>
     <use x="185.595703" xlink:href="#DejaVuSans-fe8e"/>
     <use x="216.064453" xlink:href="#DejaVuSans-fb95"/>
     <use x="271.289062" xlink:href="#DejaVuSans-feb8"/>
     <use x="360.498047" xlink:href="#DejaVuSans-fbfe"/>
     <use x="388.330078" xlink:href="#DejaVuSans-fe8e"/>
     <use x="418.798828" xlink:href="#DejaVuSans-fee4"/>
     <use x="476.611328" xlink:href="#DejaVuSans-fee7"/>
    </g>
   </g>
   <g id="text_2">
    <!-- ﺏﺎﺘﮐ -->
    <defs>
     <path d="M 40.28125 -9.765625 
L 47.609375 -9.765625 
L 47.609375 -17.09375 
L 40.28125 -17.09375 
z
M 85.75 32.671875 
Q 86.46875 28.265625 86.46875 24.859375 
Q 86.46875 18.265625 82.765625 13.328125 
Q 76.515625 4.984375 61.03125 1.859375 
Q 47.125 -0.984375 38.09375 -0.984375 
Q 28.765625 -0.984375 22.46875 0.875 
Q 6.34375 5.609375 6.34375 18.703125 
Q 6.34375 25.4375 9.421875 29.9375 
L 18.40625 29.9375 
Q 15.234375 25.34375 15.234375 18.703125 
Q 15.234375 12.59375 25.140625 9.328125 
Q 30.21875 7.671875 37.59375 7.671875 
Q 46.625 7.671875 59.578125 10.453125 
Q 72.015625 13.09375 75.296875 18.609375 
Q 77.984375 23.140625 77.984375 26.8125 
Q 77.984375 29.6875 76.765625 32.671875 
z
" id="DejaVuSans-fe8f"/>
     <path d="M 14.59375 4.203125 
Q 10.84375 0 3.421875 0 
L -0.984375 0 
L -0.984375 8.984375 
L 0.734375 8.984375 
Q 5.5625 8.984375 7.71875 11.140625 
Q 10.109375 13.53125 10.109375 18.703125 
L 10.109375 29.296875 
L 19.09375 29.296875 
L 19.09375 18.703125 
Q 19.09375 13.53125 21.484375 11.140625 
Q 23.640625 8.984375 28.46875 8.984375 
L 31.15625 8.984375 
L 31.15625 0 
L 25.78125 0 
Q 18.453125 0 14.59375 4.203125 
z
M 17.046875 48.828125 
L 24.359375 48.828125 
L 24.359375 41.5 
L 17.046875 41.5 
z
M 4.828125 48.828125 
L 12.15625 48.828125 
L 12.15625 41.5 
L 4.828125 41.5 
z
" id="DejaVuSans-fe98"/>
     <path d="M 15.140625 0 
L -0.984375 0 
L -0.984375 8.984375 
L 14.15625 8.984375 
Q 21.390625 8.984375 23.578125 14.0625 
Q 24.359375 15.828125 24.359375 17.578125 
Q 24.359375 20.953125 21.734375 24.171875 
L 6.59375 42.71875 
Q 4.15625 45.703125 4.15625 49.65625 
Q 4.15625 51.375 4.640625 52.984375 
Q 6.15625 58.734375 11.234375 60.84375 
L 47.609375 75.984375 
L 47.609375 66.890625 
L 18.5625 54.6875 
Q 15.09375 53.21875 14.0625 51.265625 
Q 13.765625 50.734375 13.765625 49.515625 
Q 13.765625 47.953125 15.28125 46.140625 
L 28.71875 30.03125 
Q 33.6875 24.03125 33.6875 18.015625 
Q 33.6875 12.5 30.671875 7.5625 
Q 26.03125 0 15.140625 0 
z
" id="DejaVuSans-fb90"/>
    </defs>
    <g transform="translate(342.901051 129.159965)scale(0.1 -0.1)">
     <use xlink:href="#DejaVuSans-fe8f"/>
     <use x="94.140625" xlink:href="#DejaVuSans-fe8e"/>
     <use x="124.609375" xlink:href="#DejaVuSans-fe98"/>
     <use x="154.785156" xlink:href="#DejaVuSans-fb90"/>
    </g>
   </g>
   <g id="text_3">
    <!-- ﺎﻫ_ﻩﺎﮔﺭﺎﮐ_ﻭ_ﺕﺎﺴﻠﺟ -->
    <defs>
     <path d="M 15.140625 0 
L -0.984375 0 
L -0.984375 8.984375 
L 14.15625 8.984375 
Q 21.390625 8.984375 23.578125 14.0625 
Q 24.359375 15.828125 24.359375 17.578125 
Q 24.359375 20.953125 21.734375 24.171875 
L 6.59375 42.71875 
Q 4.15625 45.703125 4.15625 49.65625 
Q 4.15625 51.375 4.640625 52.984375 
Q 6.15625 58.734375 11.234375 60.84375 
L 47.609375 75.984375 
L 47.609375 66.890625 
L 18.5625 54.6875 
Q 15.09375 53.21875 14.0625 51.265625 
Q 13.765625 50.734375 13.765625 49.515625 
Q 13.765625 47.953125 15.28125 46.140625 
L 28.71875 30.03125 
Q 33.6875 24.03125 33.6875 18.015625 
Q 33.6875 12.5 30.671875 7.5625 
Q 26.03125 0 15.140625 0 
z
M 47.609375 82.28125 
L 5.46875 64.984375 
L 5.46875 72.3125 
L 47.609375 89.59375 
z
" id="DejaVuSans-fb94"/>
     <path d="M 32.953125 7.71875 
Q 33.453125 10.546875 33.453125 14.0625 
Q 33.453125 20.21875 30.859375 26.859375 
L 39.84375 26.859375 
Q 42.28125 21.09375 42.28125 14.65625 
Q 42.28125 10.640625 41.890625 7.625 
Q 39.65625 -9.46875 25.4375 -17.046875 
Q 11.578125 -24.421875 -4.15625 -24.421875 
L -4.15625 -15.4375 
Q 10.6875 -15.4375 20.609375 -9.1875 
Q 31.25 -2.4375 32.953125 7.71875 
z
" id="DejaVuSans-fead"/>
     <path d="M 24.125 22.078125 
Q 21.046875 22.078125 18.890625 19.28125 
Q 17.71875 17.671875 17.71875 15.921875 
Q 17.71875 13.421875 20.21875 11.140625 
Q 22.515625 8.984375 31.890625 8.984375 
Q 31.890625 17.96875 27.6875 20.84375 
Q 25.875 22.078125 24.125 22.078125 
z
M 40.625 8.984375 
Q 40.625 -6.0625 32.234375 -13.875 
Q 27.59375 -18.171875 23.046875 -20.21875 
Q 13.671875 -24.421875 -4.15625 -24.421875 
L -4.15625 -15.4375 
Q 13.375 -15.4375 19.921875 -11.71875 
Q 28.125 -7.078125 31.15625 0.140625 
Q 25.390625 0.140625 23.1875 0.640625 
Q 15.875 2.25 13.921875 3.90625 
Q 8.25 8.6875 8.25 15.375 
Q 8.25 22.265625 12.59375 26.515625 
Q 17.671875 31.546875 24.359375 31.546875 
Q 28.71875 31.546875 32.234375 29.046875 
Q 38.578125 24.65625 39.796875 17.671875 
Q 40.625 12.703125 40.625 8.984375 
z
" id="DejaVuSans-feed"/>
     <path d="M 46.390625 39.0625 
L 53.71875 39.0625 
L 53.71875 31.734375 
L 46.390625 31.734375 
z
M 34.1875 39.0625 
L 41.5 39.0625 
L 41.5 31.734375 
L 34.1875 31.734375 
z
M 85.75 32.671875 
Q 86.46875 28.265625 86.46875 24.859375 
Q 86.46875 18.265625 82.765625 13.328125 
Q 76.515625 4.984375 61.03125 1.859375 
Q 47.125 -0.984375 38.09375 -0.984375 
Q 28.765625 -0.984375 22.46875 0.875 
Q 6.34375 5.609375 6.34375 18.703125 
Q 6.34375 25.4375 9.421875 29.9375 
L 18.40625 29.9375 
Q 15.234375 25.34375 15.234375 18.703125 
Q 15.234375 12.59375 25.140625 9.328125 
Q 30.21875 7.671875 37.59375 7.671875 
Q 46.625 7.671875 59.578125 10.453125 
Q 72.015625 13.09375 75.296875 18.609375 
Q 77.984375 23.140625 77.984375 26.8125 
Q 77.984375 29.6875 76.765625 32.671875 
z
" id="DejaVuSans-fe95"/>
     <path d="M 62.359375 -0.984375 
Q 60.546875 -1.421875 58.84375 -1.421875 
Q 55.765625 -1.421875 53.078125 -0.203125 
Q 46.390625 2.78125 45.515625 9.234375 
Q 43.171875 1.609375 38.484375 0 
Q 35.15625 -1.171875 31.984375 -1.171875 
Q 27.203125 -1.171875 23.6875 1.21875 
Q 20.75 3.171875 18.75 6.734375 
Q 16.65625 3.859375 13.921875 2.25 
Q 10.203125 0 5.375 0 
L -0.984375 0 
L -0.984375 8.984375 
L 2.6875 8.984375 
Q 7.515625 8.984375 9.671875 11.140625 
Q 13.578125 15.046875 13.578125 19.921875 
L 13.578125 29.296875 
L 22.5625 29.296875 
L 22.5625 21.6875 
Q 22.5625 18.5625 24.703125 13.671875 
Q 26.8125 8.84375 31.890625 8.84375 
Q 37.203125 8.84375 39.359375 14.796875 
Q 41.15625 19.828125 41.15625 29.296875 
L 50.140625 29.296875 
Q 50.140625 19.28125 51.078125 16.84375 
Q 54.203125 8.546875 59.578125 8.59375 
Q 66.5 8.6875 66.5 22.265625 
L 66.5 36.625 
L 75.484375 36.625 
L 75.484375 19.921875 
Q 75.484375 15.1875 79.546875 11.140625 
Q 81.6875 8.984375 86.53125 8.984375 
L 90.1875 8.984375 
L 90.1875 0 
L 83.84375 0 
Q 76.765625 0 71 4.6875 
Q 67.671875 0.296875 62.359375 -0.984375 
z
" id="DejaVuSans-feb4"/>
     <path d="M 16.546875 4.203125 
Q 12.796875 0 5.375 0 
L -0.984375 0 
L -0.984375 8.984375 
L 2.6875 8.984375 
Q 7.515625 8.984375 9.671875 11.140625 
Q 12.0625 13.53125 12.0625 18.703125 
L 12.0625 75.984375 
L 21.046875 75.984375 
L 21.046875 18.703125 
Q 21.046875 13.53125 23.4375 11.140625 
Q 25.59375 8.984375 30.421875 8.984375 
L 34.078125 8.984375 
L 34.078125 0 
L 27.734375 0 
Q 20.40625 0 16.546875 4.203125 
z
" id="DejaVuSans-fee0"/>
     <path d="M 41.546875 26.421875 
Q 37.5 27.546875 32.46875 28.65625 
Q 28.328125 29.59375 19.53125 30.375 
Q 15.53125 30.71875 7.671875 30.421875 
L 7.671875 39.40625 
Q 11.1875 39.75 14.84375 39.796875 
Q 22.75 39.796875 31.15625 38.09375 
Q 43.75 35.546875 54.5 30.765625 
L 54.5 23.25 
Q 50.78125 22.078125 46.484375 19.53125 
Q 38.375 14.75 34.765625 11.53125 
Q 27.6875 5.21875 24.03125 3.90625 
Q 13.234375 0 5.28125 0 
L -0.984375 0 
L -0.984375 8.984375 
L 3.90625 8.984375 
Q 14.984375 8.984375 21.296875 12.5 
Q 26.375 15.328125 32.03125 20.515625 
Q 36.625 24.703125 41.546875 26.421875 
z
M 25.640625 -7.328125 
L 32.953125 -7.328125 
L 32.953125 -14.65625 
L 25.640625 -14.65625 
z
" id="DejaVuSans-fe9f"/>
    </defs>
    <g transform="translate(325.262458 101.821789)scale(0.1 -0.1)">
     <use xlink:href="#DejaVuSans-fe8e"/>
     <use x="30.46875" xlink:href="#DejaVuSans-feeb"/>
     <use x="83.203125" xlink:href="#DejaVuSans-5f"/>
     <use x="133.203125" xlink:href="#DejaVuSans-fee9"/>
     <use x="185.595703" xlink:href="#DejaVuSans-fe8e"/>
     <use x="216.064453" xlink:href="#DejaVuSans-fb94"/>
     <use x="263.671875" xlink:href="#DejaVuSans-fead"/>
     <use x="311.962891" xlink:href="#DejaVuSans-fe8e"/>
     <use x="342.431641" xlink:href="#DejaVuSans-fb90"/>
     <use x="390.039062" xlink:href="#DejaVuSans-5f"/>
     <use x="440.039062" xlink:href="#DejaVuSans-feed"/>
     <use x="488.330078" xlink:href="#DejaVuSans-5f"/>
     <use x="538.330078" xlink:href="#DejaVuSans-fe95"/>
     <use x="632.470703" xlink:href="#DejaVuSans-fe8e"/>
     <use x="662.939453" xlink:href="#DejaVuSans-feb4"/>
     <use x="752.148438" xlink:href="#DejaVuSans-fee0"/>
     <use x="785.253906" xlink:href="#DejaVuSans-fe9f"/>
    </g>
   </g>
   <g id="text_4">
    <!-- ﯽﻘﯿﺳﻮﻣ_ﺕﻻﻮﺼﺤﻣ -->
    <defs>
     <path d="M 53.71875 -1.609375 
Q 58.15625 0.875 58.15625 2.484375 
Q 58.109375 4.59375 55.8125 5.21875 
Q 54.390625 5.609375 52.9375 7.5625 
Q 50.78125 10.453125 50.78125 13.421875 
Q 50.78125 16.609375 53.328125 19.53125 
Q 57.234375 24.125 61.328125 24.8125 
Q 62.796875 25.09375 64.84375 25.09375 
Q 70.5625 25.09375 74.8125 18.5625 
Q 81.0625 8.984375 82.625 8.984375 
L 84.328125 8.984375 
L 84.328125 0 
L 82.625 0 
Q 77.046875 0 71.578125 8.40625 
Q 66.3125 16.453125 65.046875 16.453125 
Q 63.28125 16.453125 62.546875 16.15625 
Q 60.359375 15.328125 60.359375 13.625 
Q 60.359375 11.28125 63.53125 9.96875 
Q 67.09375 8.5 67.234375 2.484375 
Q 67.390625 -2.296875 61.859375 -6.5 
Q 55.609375 -11.1875 44.96875 -12.703125 
Q 40.625 -13.28125 35.546875 -13.28125 
Q 26.375 -13.28125 20.65625 -11.28125 
Q 6.34375 -6.25 6.34375 6.546875 
Q 6.34375 14.015625 9.421875 18.40625 
L 18.40625 18.40625 
Q 15.234375 14.015625 15.234375 6.546875 
Q 15.234375 0.984375 23.34375 -2.828125 
Q 26.5625 -4.34375 35.296875 -4.34375 
Q 39.75 -4.34375 43.5 -3.953125 
Q 50.78125 -3.21875 53.71875 -1.609375 
z
" id="DejaVuSans-fbfd"/>
     <path d="M 29.984375 37.203125 
Q 38.921875 33.296875 40.09375 25.984375 
Q 40.484375 23.53125 40.484375 21.484375 
Q 40.484375 17.921875 39.453125 15.53125 
Q 38.03125 12.25 36.28125 9.8125 
Q 38.1875 8.984375 45.359375 8.984375 
L 51.5625 8.984375 
L 51.5625 0 
L 40.96875 0 
Q 34.328125 0 25.296875 2.78125 
Q 16.265625 0 9.625 0 
L -0.984375 0 
L -0.984375 8.984375 
L 5.21875 8.984375 
Q 12.40625 8.984375 14.3125 9.8125 
Q 12.890625 11.765625 11.140625 15.53125 
Q 10.109375 17.78125 10.109375 21.484375 
Q 10.109375 23.640625 10.5 25.984375 
Q 11.625 32.953125 20.65625 37.203125 
Q 22.125 37.890625 25.296875 37.890625 
Q 28.375 37.890625 29.984375 37.203125 
z
M 25.296875 28.90625 
Q 24.5625 28.90625 23.6875 28.421875 
Q 20.953125 26.859375 19.78125 24.265625 
Q 19.28125 23.25 19.28125 21.828125 
Q 19.28125 19.734375 20.453125 17.140625 
Q 21.96875 13.8125 25.296875 12.75 
Q 28.375 13.765625 30.125 17.140625 
Q 31.34375 19.578125 31.34375 21.828125 
Q 31.34375 23 30.8125 24.265625 
Q 29.6875 26.8125 26.90625 28.421875 
Q 25.984375 28.90625 25.296875 28.90625 
z
M 27.4375 56.15625 
L 34.765625 56.15625 
L 34.765625 48.828125 
L 27.4375 48.828125 
z
M 15.234375 56.15625 
L 22.5625 56.15625 
L 22.5625 48.828125 
L 15.234375 48.828125 
z
" id="DejaVuSans-fed8"/>
     <path d="M 14.59375 4.203125 
Q 10.84375 0 3.421875 0 
L -0.984375 0 
L -0.984375 8.984375 
L 0.734375 8.984375 
Q 5.5625 8.984375 7.71875 11.140625 
Q 10.109375 13.53125 10.109375 18.703125 
L 10.109375 29.296875 
L 19.09375 29.296875 
L 19.09375 18.703125 
Q 19.09375 13.53125 21.484375 11.140625 
Q 23.640625 8.984375 28.46875 8.984375 
L 31.15625 8.984375 
L 31.15625 0 
L 25.78125 0 
Q 18.453125 0 14.59375 4.203125 
z
M 17.046875 -7.328125 
L 24.359375 -7.328125 
L 24.359375 -14.65625 
L 17.046875 -14.65625 
z
M 4.828125 -7.328125 
L 12.15625 -7.328125 
L 12.15625 -14.65625 
L 4.828125 -14.65625 
z
" id="DejaVuSans-fbff"/>
     <path d="M 18.75 6.734375 
Q 16.65625 3.859375 13.921875 2.25 
Q 10.203125 0 5.375 0 
L -0.984375 0 
L -0.984375 8.984375 
L 2.6875 8.984375 
Q 7.515625 8.984375 9.671875 11.140625 
Q 13.578125 15.046875 13.578125 19.921875 
L 13.578125 29.296875 
L 22.5625 29.296875 
L 22.5625 21.6875 
Q 22.5625 18.5625 24.703125 13.671875 
Q 26.8125 8.84375 31.890625 8.84375 
Q 37.203125 8.84375 39.359375 14.796875 
Q 41.15625 19.828125 41.15625 29.296875 
L 50.140625 29.296875 
Q 50.140625 19.28125 51.078125 16.84375 
Q 54.203125 8.546875 59.578125 8.59375 
Q 66.5 8.6875 66.5 22.265625 
L 66.5 36.625 
L 75.484375 36.625 
L 75.484375 19.921875 
Q 75.484375 10.203125 71 4.6875 
Q 67.328125 0.203125 62.359375 -0.984375 
Q 60.546875 -1.421875 58.84375 -1.421875 
Q 55.765625 -1.421875 53.078125 -0.203125 
Q 46.390625 2.78125 45.515625 9.234375 
Q 43.171875 1.609375 38.484375 0 
Q 35.15625 -1.171875 31.984375 -1.171875 
Q 27.203125 -1.171875 23.6875 1.21875 
Q 20.75 3.171875 18.75 6.734375 
z
" id="DejaVuSans-feb3"/>
     <path d="M 31.890625 8.984375 
Q 31.890625 12.703125 31.109375 15.484375 
Q 29.9375 19.390625 27.6875 20.84375 
Q 24.75 22.859375 21.828125 21.578125 
Q 18.5625 20.171875 17.921875 17.4375 
Q 17.09375 13.765625 20.21875 11.140625 
Q 22.515625 9.1875 31.890625 8.984375 
z
M 40.625 8.984375 
L 52.640625 8.984375 
L 52.640625 0 
L 43.171875 0 
L 39.75 0.046875 
Q 38.53125 -7.5625 32.234375 -13.875 
Q 28.171875 -17.921875 23.046875 -20.21875 
Q 13.671875 -24.421875 -4.15625 -24.421875 
L -4.15625 -15.4375 
Q 13.484375 -15.4375 19.921875 -11.71875 
Q 28.125 -7.078125 31.15625 0.140625 
Q 25.390625 0.296875 23.1875 0.640625 
Q 16.40625 1.8125 13.921875 3.90625 
Q 8.734375 8.25 8.25 14.84375 
Q 8.15625 16.359375 8.640625 19.140625 
Q 9.96875 26.703125 18.5625 30.375 
Q 21.4375 31.59375 24.609375 31.546875 
Q 28.859375 31.453125 32.234375 29.046875 
Q 38.71875 24.5625 39.796875 17.671875 
Q 40.4375 13.625 40.625 8.984375 
z
" id="DejaVuSans-feee"/>
     <path d="M 42.390625 2.546875 
Q 37.640625 -2.4375 30.46875 -2.4375 
Q 20.40625 -2.4375 15.046875 2.34375 
Q 11.921875 0 6.84375 0 
L -0.984375 0 
L -0.984375 8.984375 
L 4.6875 8.984375 
Q 7.234375 8.984375 9.34375 10.71875 
Q 11.46875 12.453125 11.71875 14.84375 
Q 12.703125 23.6875 19.28125 27.59375 
Q 23.875 30.328125 27.828125 30.328125 
Q 36.421875 30.328125 40.875 26.21875 
Q 45.609375 21.875 45.609375 12.890625 
Q 45.609375 5.90625 42.390625 2.546875 
z
M 19.828125 9.71875 
Q 22.859375 6.34375 30.609375 6.34375 
Q 32.90625 6.34375 33.84375 7.234375 
Q 36.375 9.8125 36.375 13.1875 
Q 36.375 16.84375 34.421875 18.703125 
Q 32.375 20.703125 28.078125 20.703125 
Q 25.828125 20.703125 23.609375 19.234375 
Q 21.390625 17.78125 20.65625 13.03125 
Q 20.3125 11.234375 19.828125 9.71875 
z
" id="DejaVuSans-fee3"/>
     <path d="M 46.828125 40.71875 
Q 46.828125 26.078125 40.046875 15.4375 
Q 37.359375 11.28125 33.59375 7.8125 
Q 23.578125 -0.984375 15.875 -0.984375 
Q 10.6875 -0.984375 7.03125 0.59375 
L 7.03125 9.578125 
Q 11.71875 8.015625 15.875 8.015625 
Q 21.390625 8.015625 28.03125 15.4375 
L 4.109375 68.84375 
L 12.84375 68.84375 
L 33.640625 22.015625 
Q 35.0625 24.125 36.03125 26.8125 
Q 37.84375 33.5 37.84375 42.484375 
L 37.84375 75.984375 
L 46.828125 75.984375 
z
" id="DejaVuSans-fefb"/>
     <path d="M 44.921875 0 
L 31.25 0 
Q 27.640625 0 23.828125 2.046875 
Q 20.65625 3.765625 18.75 6.734375 
Q 13.765625 0 5.375 0 
L -0.984375 0 
L -0.984375 8.984375 
L 2.6875 8.984375 
Q 7.515625 8.984375 9.671875 11.140625 
Q 13.578125 15.046875 13.578125 19.921875 
L 13.578125 25.484375 
L 22.5625 25.484375 
L 22.5625 21.6875 
Q 22.5625 20.515625 23 18.5625 
Q 23.4375 16.609375 25.640625 14.15625 
Q 30.5625 20.703125 35.203125 24.8125 
Q 42.671875 31.5 49.703125 34.578125 
Q 53.375 36.1875 57.515625 36.1875 
Q 63.03125 36.1875 68.359375 34.28125 
Q 77.640625 30.953125 77.640625 19.4375 
Q 77.640625 15.765625 75.59375 12.25 
Q 76.265625 11.671875 77.046875 11.140625 
Q 80.03125 8.984375 84.03125 8.984375 
L 87.703125 8.984375 
L 87.703125 0 
L 81.34375 0 
Q 74.953125 0 69.921875 4.5 
L 68.5625 5.765625 
Q 58.59375 0 44.921875 0 
z
M 47.65625 23.734375 
Q 39.453125 18.453125 32.375 8.984375 
L 41.5 8.984375 
Q 53.078125 8.984375 59.375 12.0625 
Q 68.453125 16.5 68.453125 19.921875 
Q 68.453125 26.515625 61.671875 27.4375 
Q 59.859375 27.6875 57.515625 27.6875 
Q 53.8125 27.6875 47.65625 23.734375 
z
" id="DejaVuSans-febc"/>
     <path d="M 31.15625 38.09375 
Q 43.75 35.546875 54.5 30.765625 
L 54.5 23.25 
Q 51.3125 22.265625 47.75 20.265625 
Q 50.203125 16.453125 51.65625 14.796875 
Q 56.734375 8.984375 62.3125 8.984375 
L 65.53125 8.984375 
L 65.53125 0 
L 61.328125 0 
Q 51.125 0 44.96875 8.203125 
Q 43.015625 10.84375 40.140625 15.578125 
Q 36.765625 13.328125 34.765625 11.53125 
Q 27.6875 5.21875 24.03125 3.90625 
Q 13.234375 0 5.28125 0 
L -0.984375 0 
L -0.984375 8.984375 
L 3.90625 8.984375 
Q 14.984375 8.984375 21.296875 12.5 
Q 26.375 15.328125 32.03125 20.515625 
Q 36.625 24.703125 41.546875 26.421875 
Q 37.5 27.546875 32.46875 28.65625 
Q 28.328125 29.59375 19.53125 30.375 
Q 15.53125 30.71875 7.671875 30.421875 
L 7.671875 39.40625 
Q 11.1875 39.75 14.84375 39.796875 
Q 22.75 39.796875 31.15625 38.09375 
z
" id="DejaVuSans-fea4"/>
    </defs>
    <g transform="translate(300.565543 79.321538)scale(0.1 -0.1)">
     <use xlink:href="#DejaVuSans-fbfd"/>
     <use x="83.349609" xlink:href="#DejaVuSans-fed8"/>
     <use x="133.935547" xlink:href="#DejaVuSans-fbff"/>
     <use x="164.111328" xlink:href="#DejaVuSans-feb3"/>
     <use x="247.900391" xlink:href="#DejaVuSans-feee"/>
     <use x="299.560547" xlink:href="#DejaVuSans-fee3"/>
     <use x="353.125" xlink:href="#DejaVuSans-5f"/>
     <use x="403.125" xlink:href="#DejaVuSans-fe95"/>
     <use x="497.265625" xlink:href="#DejaVuSans-fefb"/>
     <use x="554.296875" xlink:href="#DejaVuSans-feee"/>
     <use x="605.957031" xlink:href="#DejaVuSans-febc"/>
     <use x="692.675781" xlink:href="#DejaVuSans-fea4"/>
     <use x="757.226562" xlink:href="#DejaVuSans-fee3"/>
    </g>
   </g>
   <g id="text_5">
    <!-- ﺎﻫ_ﻩﮊﻭﺮﭘ -->
    <defs>
     <path d="M 30.515625 58.59375 
L 37.84375 58.59375 
L 37.84375 51.265625 
L 30.515625 51.265625 
z
M 36.625 46.390625 
L 43.953125 46.390625 
L 43.953125 39.0625 
L 36.625 39.0625 
z
M 24.421875 46.390625 
L 31.734375 46.390625 
L 31.734375 39.0625 
L 24.421875 39.0625 
z
M 32.953125 7.71875 
Q 33.453125 10.546875 33.453125 14.0625 
Q 33.453125 20.21875 30.859375 26.859375 
L 39.84375 26.859375 
Q 42.28125 21.09375 42.28125 14.65625 
Q 42.28125 10.640625 41.890625 7.625 
Q 39.65625 -9.46875 25.4375 -17.046875 
Q 11.578125 -24.421875 -4.15625 -24.421875 
L -4.15625 -15.4375 
Q 10.6875 -15.4375 20.609375 -9.1875 
Q 31.25 -2.4375 32.953125 7.71875 
z
" id="DejaVuSans-fb8a"/>
     <path d="M 30.859375 26.859375 
L 39.84375 26.859375 
Q 41.3125 21.390625 41.453125 19.921875 
Q 41.9375 14.890625 45.515625 11.140625 
Q 47.5625 8.984375 52.484375 8.984375 
L 56.15625 8.984375 
L 56.15625 0 
L 49.8125 0 
Q 43.453125 0 41.015625 3.03125 
Q 37.703125 -10.546875 25.4375 -17.046875 
Q 11.578125 -24.421875 -4.15625 -24.421875 
L -4.15625 -15.4375 
Q 10.6875 -15.4375 20.609375 -9.1875 
Q 31.25 -2.4375 32.953125 7.71875 
Q 33.453125 10.546875 33.453125 14.0625 
Q 33.453125 20.21875 30.859375 26.859375 
z
" id="DejaVuSans-feae"/>
     <path d="M 14.59375 4.203125 
Q 11.078125 0 3.421875 0 
L -0.984375 0 
L -0.984375 8.984375 
L 0.734375 8.984375 
Q 5.5625 8.984375 7.71875 11.140625 
Q 10.109375 13.53125 10.109375 18.703125 
L 10.109375 29.296875 
L 19.09375 29.296875 
L 19.09375 18.703125 
Q 19.09375 9.578125 14.59375 4.203125 
z
M 10.9375 -17.09375 
L 18.265625 -17.09375 
L 18.265625 -24.40625 
L 10.9375 -24.40625 
z
M 17.046875 -4.875 
L 24.359375 -4.875 
L 24.359375 -12.203125 
L 17.046875 -12.203125 
z
M 4.828125 -4.875 
L 12.15625 -4.875 
L 12.15625 -12.203125 
L 4.828125 -12.203125 
z
" id="DejaVuSans-fb58"/>
    </defs>
    <g transform="translate(250.589113 60.909308)scale(0.1 -0.1)">
     <use xlink:href="#DejaVuSans-fe8e"/>
     <use x="30.46875" xlink:href="#DejaVuSans-feeb"/>
     <use x="83.203125" xlink:href="#DejaVuSans-5f"/>
     <use x="133.203125" xlink:href="#DejaVuSans-fee9"/>
     <use x="185.595703" xlink:href="#DejaVuSans-fb8a"/>
     <use x="233.886719" xlink:href="#DejaVuSans-feed"/>
     <use x="282.177734" xlink:href="#DejaVuSans-feae"/>
     <use x="337.353516" xlink:href="#DejaVuSans-fb58"/>
    </g>
   </g>
   <g id="text_6">
    <!-- ﯽﻤﺴﺠﺗ_ﺕﻻﻮﺼﺤﻣ -->
    <defs>
     <path d="M 31.15625 38.09375 
Q 43.75 35.546875 54.5 30.765625 
L 54.5 23.25 
Q 51.3125 22.265625 47.75 20.265625 
Q 50.203125 16.453125 51.65625 14.796875 
Q 56.734375 8.984375 62.3125 8.984375 
L 65.53125 8.984375 
L 65.53125 0 
L 61.328125 0 
Q 51.125 0 44.96875 8.203125 
Q 43.015625 10.84375 40.140625 15.578125 
Q 36.765625 13.328125 34.765625 11.53125 
Q 27.6875 5.21875 24.03125 3.90625 
Q 13.234375 0 5.28125 0 
L -0.984375 0 
L -0.984375 8.984375 
L 3.90625 8.984375 
Q 14.984375 8.984375 21.296875 12.5 
Q 26.375 15.328125 32.03125 20.515625 
Q 36.625 24.703125 41.546875 26.421875 
Q 37.5 27.546875 32.46875 28.65625 
Q 28.328125 29.59375 19.53125 30.375 
Q 15.53125 30.71875 7.671875 30.421875 
L 7.671875 39.40625 
Q 11.1875 39.75 14.84375 39.796875 
Q 22.75 39.796875 31.15625 38.09375 
z
M 25.640625 -7.328125 
L 32.953125 -7.328125 
L 32.953125 -14.65625 
L 25.640625 -14.65625 
z
" id="DejaVuSans-fea0"/>
     <path d="M 14.59375 4.203125 
Q 11.078125 0 3.421875 0 
L -0.984375 0 
L -0.984375 8.984375 
L 0.734375 8.984375 
Q 5.5625 8.984375 7.71875 11.140625 
Q 10.109375 13.53125 10.109375 18.703125 
L 10.109375 29.296875 
L 19.09375 29.296875 
L 19.09375 18.703125 
Q 19.09375 9.578125 14.59375 4.203125 
z
M 17.046875 48.828125 
L 24.359375 48.828125 
L 24.359375 41.5 
L 17.046875 41.5 
z
M 4.828125 48.828125 
L 12.15625 48.828125 
L 12.15625 41.5 
L 4.828125 41.5 
z
" id="DejaVuSans-fe97"/>
    </defs>
    <g transform="translate(119.588158 66.538841)scale(0.1 -0.1)">
     <use xlink:href="#DejaVuSans-fbfd"/>
     <use x="83.349609" xlink:href="#DejaVuSans-fee4"/>
     <use x="141.162109" xlink:href="#DejaVuSans-feb4"/>
     <use x="230.371094" xlink:href="#DejaVuSans-fea0"/>
     <use x="294.921875" xlink:href="#DejaVuSans-fe97"/>
     <use x="322.753906" xlink:href="#DejaVuSans-5f"/>
     <use x="372.753906" xlink:href="#DejaVuSans-fe95"/>
     <use x="466.894531" xlink:href="#DejaVuSans-fefb"/>
     <use x="523.925781" xlink:href="#DejaVuSans-feee"/>
     <use x="575.585938" xlink:href="#DejaVuSans-febc"/>
     <use x="662.304688" xlink:href="#DejaVuSans-fea4"/>
     <use x="726.855469" xlink:href="#DejaVuSans-fee3"/>
    </g>
   </g>
   <g id="text_7">
    <!-- ﯽﻠﯿﺼﻔﺗ_ﺎﻫ_ﻩﺭﺍﻮﻨﺸﺟ -->
    <defs>
     <path d="M 29.984375 37.203125 
Q 38.921875 33.296875 40.09375 25.984375 
Q 40.484375 23.53125 40.484375 21.484375 
Q 40.484375 17.921875 39.453125 15.53125 
Q 38.03125 12.25 36.28125 9.8125 
Q 38.1875 8.984375 45.359375 8.984375 
L 51.5625 8.984375 
L 51.5625 0 
L 40.96875 0 
Q 34.328125 0 25.296875 2.78125 
Q 16.265625 0 9.625 0 
L -0.984375 0 
L -0.984375 8.984375 
L 5.21875 8.984375 
Q 12.40625 8.984375 14.3125 9.8125 
Q 12.890625 11.765625 11.140625 15.53125 
Q 10.109375 17.78125 10.109375 21.484375 
Q 10.109375 23.640625 10.5 25.984375 
Q 11.625 32.953125 20.65625 37.203125 
Q 22.125 37.890625 25.296875 37.890625 
Q 28.375 37.890625 29.984375 37.203125 
z
M 25.296875 28.90625 
Q 24.5625 28.90625 23.6875 28.421875 
Q 20.953125 26.859375 19.78125 24.265625 
Q 19.28125 23.25 19.28125 21.828125 
Q 19.28125 19.734375 20.453125 17.140625 
Q 21.96875 13.8125 25.296875 12.75 
Q 28.375 13.765625 30.125 17.140625 
Q 31.34375 19.578125 31.34375 21.828125 
Q 31.34375 23 30.8125 24.265625 
Q 29.6875 26.8125 26.90625 28.421875 
Q 25.984375 28.90625 25.296875 28.90625 
z
M 21.625 56.15625 
L 28.953125 56.15625 
L 28.953125 48.828125 
L 21.625 48.828125 
z
" id="DejaVuSans-fed4"/>
     <path d="M 9.421875 75.984375 
L 18.40625 75.984375 
L 18.40625 0 
L 9.421875 0 
z
" id="DejaVuSans-fe8d"/>
     <path d="M 10.9375 48.828125 
L 18.265625 48.828125 
L 18.265625 41.5 
L 10.9375 41.5 
z
M 14.59375 4.203125 
Q 10.84375 0 3.421875 0 
L -0.984375 0 
L -0.984375 8.984375 
L 0.734375 8.984375 
Q 5.5625 8.984375 7.71875 11.140625 
Q 10.109375 13.53125 10.109375 18.703125 
L 10.109375 29.296875 
L 19.09375 29.296875 
L 19.09375 18.703125 
Q 19.09375 13.53125 21.484375 11.140625 
Q 23.640625 8.984375 28.46875 8.984375 
L 31.15625 8.984375 
L 31.15625 0 
L 25.78125 0 
Q 18.453125 0 14.59375 4.203125 
z
" id="DejaVuSans-fee8"/>
    </defs>
    <g transform="translate(82.71549 81.655419)scale(0.1 -0.1)">
     <use xlink:href="#DejaVuSans-fbfd"/>
     <use x="83.349609" xlink:href="#DejaVuSans-fee0"/>
     <use x="116.455078" xlink:href="#DejaVuSans-fbff"/>
     <use x="146.630859" xlink:href="#DejaVuSans-febc"/>
     <use x="233.349609" xlink:href="#DejaVuSans-fed4"/>
     <use x="283.935547" xlink:href="#DejaVuSans-fe97"/>
     <use x="311.767578" xlink:href="#DejaVuSans-5f"/>
     <use x="361.767578" xlink:href="#DejaVuSans-fe8e"/>
     <use x="392.236328" xlink:href="#DejaVuSans-feeb"/>
     <use x="444.970703" xlink:href="#DejaVuSans-5f"/>
     <use x="494.970703" xlink:href="#DejaVuSans-fee9"/>
     <use x="547.363281" xlink:href="#DejaVuSans-fead"/>
     <use x="595.654297" xlink:href="#DejaVuSans-fe8d"/>
     <use x="623.4375" xlink:href="#DejaVuSans-feee"/>
     <use x="675.097656" xlink:href="#DejaVuSans-fee8"/>
     <use x="705.273438" xlink:href="#DejaVuSans-feb8"/>
     <use x="794.482422" xlink:href="#DejaVuSans-fe9f"/>
    </g>
   </g>
   <g id="text_8">
    <!-- ﺏﻼﻘﻧﺍ_ﻪﻧﺎﺨﺑﺎﺘﮐ -->
    <defs>
     <path d="M 40.046875 15.4375 
Q 37.15625 10.984375 33.59375 7.8125 
Q 23.734375 -0.984375 15.875 -0.984375 
Q 10.6875 -0.984375 7.03125 0.59375 
L 7.03125 9.578125 
Q 11.71875 8.015625 15.875 8.015625 
Q 21.390625 8.015625 28.03125 15.4375 
L 4.109375 68.84375 
L 12.84375 68.84375 
L 33.640625 22.015625 
Q 35.0625 24.125 36.03125 26.8125 
Q 37.84375 33.5 37.84375 42.484375 
L 37.84375 75.984375 
L 46.828125 75.984375 
L 46.828125 29.296875 
Q 46.828125 20.796875 48.484375 16.703125 
Q 51.609375 8.984375 55.515625 8.984375 
L 60.640625 8.984375 
L 60.640625 0 
L 54.34375 0 
Q 45.796875 0 40.828125 11.859375 
Q 39.984375 13.875 40.046875 15.4375 
z
" id="DejaVuSans-fefc"/>
     <path d="M 33.015625 13.765625 
Q 32.28125 15.828125 31.640625 18.21875 
Q 31 20.65625 30.421875 25.59375 
Q 24.5625 25 20.5625 21.734375 
Q 15.140625 17.390625 15.234375 14.359375 
Q 15.28125 12.359375 19.671875 11.125 
Q 24.078125 9.90625 33.015625 13.765625 
z
M 29.734375 32.625 
Q 29.546875 34.515625 29.390625 36.625 
L 38.375 36.625 
Q 38.421875 28.421875 40.1875 19.921875 
Q 41.21875 14.984375 43.953125 11.140625 
Q 45.453125 8.984375 50.921875 8.984375 
L 54.59375 8.984375 
L 54.59375 0 
L 48.25 0 
Q 43.84375 0 40.28125 2.484375 
Q 38.09375 4 36.234375 6.890625 
Q 29.5 3.328125 21.875 3.328125 
Q 19.140625 3.328125 16.3125 4.046875 
Q 7.078125 6.390625 7.078125 13.921875 
Q 7.078125 22.359375 17.046875 28.5625 
Q 22.359375 31.890625 29.734375 32.625 
z
" id="DejaVuSans-feea"/>
     <path d="M 31.15625 38.09375 
Q 43.75 35.546875 54.5 30.765625 
L 54.5 23.25 
Q 51.3125 22.265625 47.75 20.265625 
Q 50.203125 16.453125 51.65625 14.796875 
Q 56.734375 8.984375 62.3125 8.984375 
L 65.53125 8.984375 
L 65.53125 0 
L 61.328125 0 
Q 51.125 0 44.96875 8.203125 
Q 43.015625 10.84375 40.140625 15.578125 
Q 36.765625 13.328125 34.765625 11.53125 
Q 27.6875 5.21875 24.03125 3.90625 
Q 13.234375 0 5.28125 0 
L -0.984375 0 
L -0.984375 8.984375 
L 3.90625 8.984375 
Q 14.984375 8.984375 21.296875 12.5 
Q 26.375 15.328125 32.03125 20.515625 
Q 36.625 24.703125 41.546875 26.421875 
Q 37.5 27.546875 32.46875 28.65625 
Q 28.328125 29.59375 19.53125 30.375 
Q 15.53125 30.71875 7.671875 30.421875 
L 7.671875 39.40625 
Q 11.1875 39.75 14.84375 39.796875 
Q 22.75 39.796875 31.15625 38.09375 
z
M 25.640625 53.71875 
L 32.953125 53.71875 
L 32.953125 46.390625 
L 25.640625 46.390625 
z
" id="DejaVuSans-fea8"/>
     <path d="M 14.59375 4.203125 
Q 11.078125 0 3.421875 0 
L -0.984375 0 
L -0.984375 8.984375 
L 0.734375 8.984375 
Q 5.5625 8.984375 7.71875 11.140625 
Q 10.109375 13.53125 10.109375 18.703125 
L 10.109375 29.296875 
L 19.09375 29.296875 
L 19.09375 18.703125 
Q 19.09375 9.578125 14.59375 4.203125 
z
M 10.9375 -7.328125 
L 18.265625 -7.328125 
L 18.265625 -14.65625 
L 10.9375 -14.65625 
z
" id="DejaVuSans-fe91"/>
    </defs>
    <g transform="translate(82.17745 104.375387)scale(0.1 -0.1)">
     <use xlink:href="#DejaVuSans-fe8f"/>
     <use x="94.140625" xlink:href="#DejaVuSans-fefc"/>
     <use x="153.808594" xlink:href="#DejaVuSans-fed8"/>
     <use x="204.394531" xlink:href="#DejaVuSans-fee7"/>
     <use x="232.226562" xlink:href="#DejaVuSans-fe8d"/>
     <use x="260.009766" xlink:href="#DejaVuSans-5f"/>
     <use x="310.009766" xlink:href="#DejaVuSans-feea"/>
     <use x="363.623047" xlink:href="#DejaVuSans-fee7"/>
     <use x="391.455078" xlink:href="#DejaVuSans-fe8e"/>
     <use x="421.923828" xlink:href="#DejaVuSans-fea8"/>
     <use x="486.474609" xlink:href="#DejaVuSans-fe91"/>
     <use x="514.306641" xlink:href="#DejaVuSans-fe8e"/>
     <use x="544.775391" xlink:href="#DejaVuSans-fe98"/>
     <use x="574.951172" xlink:href="#DejaVuSans-fb90"/>
    </g>
   </g>
   <g id="text_9">
    <!-- ﯽﺳﺎﮑﻋ_ﯼﺎﻫ_ﻩﮊﻭﺮﭘ -->
    <defs>
     <path d="M 15.140625 0 
L -0.984375 0 
L -0.984375 8.984375 
L 14.15625 8.984375 
Q 21.390625 8.984375 23.578125 14.0625 
Q 24.359375 15.828125 24.359375 17.578125 
Q 24.359375 20.953125 21.734375 24.171875 
L 6.59375 42.71875 
Q 4.15625 45.703125 4.15625 49.65625 
Q 4.15625 51.375 4.640625 52.984375 
Q 6.15625 58.734375 11.234375 60.84375 
L 47.609375 75.984375 
L 47.609375 66.890625 
L 18.5625 54.6875 
Q 15.09375 53.21875 14.0625 51.265625 
Q 13.765625 50.734375 13.765625 49.515625 
Q 13.765625 47.953125 15.28125 46.140625 
L 43.75 11.71875 
Q 44.828125 10.453125 46.6875 9.765625 
Q 48.78125 8.984375 51.90625 8.984375 
L 56.203125 8.984375 
L 56.203125 0 
L 49.75 0 
Q 46.578125 0 43.75 1.171875 
Q 38.71875 3.265625 37.109375 5.28125 
L 32.375 11.140625 
Q 31.34375 8.890625 30.515625 7.5625 
Q 25.875 0 15.140625 0 
z
" id="DejaVuSans-fb91"/>
     <path d="M 2.9375 8.984375 
Q 10.796875 8.984375 20.65625 13.53125 
Q 17 14.703125 14.453125 17.578125 
Q 10.15625 22.46875 10.15625 29.296875 
Q 10.15625 42.1875 20.125 48.296875 
Q 26.21875 52.046875 38.484375 52.046875 
L 38.484375 43.796875 
Q 27.828125 43.796875 23.28125 40.453125 
Q 18.75 37.109375 18.75 30.875 
Q 18.75 24.65625 21.78125 22.125 
Q 25.828125 18.703125 29.25 18.703125 
Q 31.9375 18.703125 35.546875 20.3125 
L 49.609375 26.609375 
L 49.609375 17.625 
L 29.109375 8.015625 
Q 12.015625 0 3.328125 0 
L -0.984375 0 
L -0.984375 8.984375 
z
" id="DejaVuSans-fecb"/>
     <path d="M 66.703125 0.59375 
Q 61.71875 -7.71875 44.96875 -11.28125 
Q 36.328125 -13.140625 30.46875 -13.140625 
Q 24.171875 -13.140625 20.65625 -11.859375 
Q 6.34375 -6.78125 6.34375 5.953125 
Q 6.34375 11.671875 9.421875 17.1875 
L 18.40625 17.1875 
Q 15.1875 10.796875 15.234375 5.953125 
Q 15.328125 -1.21875 23.34375 -3.421875 
Q 28.078125 -4.6875 31.0625 -4.390625 
Q 37.203125 -3.859375 43.5 -2.6875 
Q 52.15625 -1.078125 56.25 2.828125 
Q 59.125 5.5625 59.125 8.15625 
Q 59.125 11.765625 52.984375 13.1875 
Q 49.75 13.921875 44.1875 16.15625 
Q 40.921875 17.484375 38.09375 19.96875 
Q 34.96875 22.75 34.90625 28.375 
Q 34.90625 35.6875 44.1875 39.3125 
Q 48.828125 41.109375 53.90625 41.109375 
Q 58.984375 41.109375 63.671875 39.0625 
Q 70.5625 36.078125 71.875 27.640625 
L 62.890625 27.640625 
Q 62.25 30.609375 59.03125 32.234375 
Q 57.078125 33.203125 53.71875 33.296875 
Q 49.90625 33.40625 46.875 31.5 
Q 43.953125 29.640625 43.953125 27.984375 
Q 43.953125 25.296875 50.046875 23.25 
Q 62.15625 19.1875 64.9375 16.0625 
Q 68.703125 11.921875 68.796875 7.5625 
Q 68.84375 4.25 66.703125 0.59375 
z
" id="DejaVuSans-fbfc"/>
    </defs>
    <g transform="translate(47.191642 132.775745)scale(0.1 -0.1)">
     <use xlink:href="#DejaVuSans-fbfd"/>
     <use x="83.349609" xlink:href="#DejaVuSans-feb3"/>
     <use x="167.138672" xlink:href="#DejaVuSans-fe8e"/>
     <use x="197.607422" xlink:href="#DejaVuSans-fb91"/>
     <use x="252.832031" xlink:href="#DejaVuSans-fecb"/>
     <use x="312.5" xlink:href="#DejaVuSans-5f"/>
     <use x="362.5" xlink:href="#DejaVuSans-fbfc"/>
     <use x="440.771484" xlink:href="#DejaVuSans-fe8e"/>
     <use x="471.240234" xlink:href="#DejaVuSans-feeb"/>
     <use x="523.974609" xlink:href="#DejaVuSans-5f"/>
     <use x="573.974609" xlink:href="#DejaVuSans-fee9"/>
     <use x="626.367188" xlink:href="#DejaVuSans-fb8a"/>
     <use x="674.658203" xlink:href="#DejaVuSans-feed"/>
     <use x="722.949219" xlink:href="#DejaVuSans-feae"/>
     <use x="778.125" xlink:href="#DejaVuSans-fb58"/>
    </g>
   </g>
   <g id="text_10">
    <!-- ﺭﺎﺛﺁ_ﯽﻨﯿﺑﺯﺎﺑ -->
    <defs>
     <path d="M 14.59375 4.203125 
Q 11.078125 0 3.421875 0 
L -0.984375 0 
L -0.984375 8.984375 
L 0.734375 8.984375 
Q 5.5625 8.984375 7.71875 11.140625 
Q 10.109375 13.53125 10.109375 18.703125 
L 10.109375 29.296875 
L 19.09375 29.296875 
L 19.09375 18.703125 
Q 19.09375 9.578125 14.59375 4.203125 
z
M 10.9375 61.03125 
L 18.265625 61.03125 
L 18.265625 53.703125 
L 10.9375 53.703125 
z
M 17.046875 48.828125 
L 24.359375 48.828125 
L 24.359375 41.5 
L 17.046875 41.5 
z
M 4.828125 48.828125 
L 12.15625 48.828125 
L 12.15625 41.5 
L 4.828125 41.5 
z
" id="DejaVuSans-fe9b"/>
     <path d="M -3.65625 87.109375 
L 4.15625 93.109375 
Q 9.1875 89.0625 12.453125 88.03125 
Q 14.5 87.40625 17.140625 87.40625 
Q 19.96875 87.40625 21.96875 88.1875 
Q 27.203125 90.1875 31.5 93.890625 
L 31.5 87.796875 
Q 27.09375 84.671875 22.703125 83.25 
Q 19.4375 82.171875 16.84375 82.171875 
Q 15.1875 82.171875 11.46875 83 
Q 7.71875 83.828125 4.390625 87.25 
L -3.65625 81 
z
M 9.421875 75.984375 
L 18.40625 75.984375 
L 18.40625 0 
L 9.421875 0 
z
" id="DejaVuSans-fe81"/>
     <path d="M 30.515625 46.390625 
L 37.84375 46.390625 
L 37.84375 39.0625 
L 30.515625 39.0625 
z
M 32.953125 7.71875 
Q 33.453125 10.546875 33.453125 14.0625 
Q 33.453125 20.21875 30.859375 26.859375 
L 39.84375 26.859375 
Q 42.28125 21.09375 42.28125 14.65625 
Q 42.28125 10.640625 41.890625 7.625 
Q 39.65625 -9.46875 25.4375 -17.046875 
Q 11.578125 -24.421875 -4.15625 -24.421875 
L -4.15625 -15.4375 
Q 10.6875 -15.4375 20.609375 -9.1875 
Q 31.25 -2.4375 32.953125 7.71875 
z
" id="DejaVuSans-feaf"/>
    </defs>
    <g transform="translate(73.478191 165.625269)scale(0.1 -0.1)">
     <use xlink:href="#DejaVuSans-fead"/>
     <use x="48.291016" xlink:href="#DejaVuSans-fe8e"/>
     <use x="78.759766" xlink:href="#DejaVuSans-fe9b"/>
     <use x="106.591797" xlink:href="#DejaVuSans-fe81"/>
     <use x="134.375" xlink:href="#DejaVuSans-5f"/>
     <use x="184.375" xlink:href="#DejaVuSans-fbfd"/>
     <use x="267.724609" xlink:href="#DejaVuSans-fee8"/>
     <use x="297.900391" xlink:href="#DejaVuSans-fbff"/>
     <use x="328.076172" xlink:href="#DejaVuSans-fe91"/>
     <use x="355.908203" xlink:href="#DejaVuSans-feaf"/>
     <use x="404.199219" xlink:href="#DejaVuSans-fe8e"/>
     <use x="434.667969" xlink:href="#DejaVuSans-fe91"/>
    </g>
   </g>
   <g id="text_11">
    <!-- ﻮﯾﺩﻮﺘﺳﺍ -->
    <defs>
     <path d="M 19.09375 7.375 
Q 27.484375 9.765625 29.203125 15.234375 
Q 29.59375 16.546875 29.59375 18.609375 
Q 29.59375 22.40625 26.65625 28.078125 
Q 23.4375 34.375 14.984375 41.5 
L 26.078125 41.5 
Q 31.59375 37.0625 34.8125 31 
Q 38.8125 23.578125 38.8125 18.453125 
Q 38.8125 13.625 37.25 9.96875 
Q 33.34375 0.484375 20.5625 -1.515625 
Q 18.3125 -1.859375 16.109375 -1.859375 
Q 11.140625 -1.859375 6.109375 0 
L 6.109375 8.984375 
Q 11.71875 6.9375 15.828125 6.9375 
Q 17.4375 6.9375 19.09375 7.375 
z
" id="DejaVuSans-fea9"/>
    </defs>
    <g transform="translate(89.147476 197.664557)scale(0.1 -0.1)">
     <use xlink:href="#DejaVuSans-feee"/>
     <use x="51.660156" xlink:href="#DejaVuSans-fbfe"/>
     <use x="79.492188" xlink:href="#DejaVuSans-fea9"/>
     <use x="124.023438" xlink:href="#DejaVuSans-feee"/>
     <use x="175.683594" xlink:href="#DejaVuSans-fe98"/>
     <use x="205.859375" xlink:href="#DejaVuSans-feb3"/>
     <use x="289.648438" xlink:href="#DejaVuSans-fe8d"/>
    </g>
   </g>
   <g id="text_12">
    <!-- ﺶﯾﺎﻤﻧ -->
    <defs>
     <path d="M 71.484375 8.84375 
Q 75.296875 8.734375 77.640625 14.796875 
Q 79.4375 19.4375 79.4375 29.296875 
L 88.421875 29.296875 
Q 88.421875 19.28125 89.359375 16.84375 
Q 92.484375 8.59375 97.859375 8.59375 
Q 104.78125 8.59375 104.78125 22.265625 
L 104.78125 36.625 
L 113.765625 36.625 
L 113.765625 19.921875 
Q 113.765625 15.1875 117.828125 11.140625 
Q 119.96875 8.984375 124.8125 8.984375 
L 128.46875 8.984375 
L 128.46875 0 
L 122.125 0 
Q 115.046875 0 109.28125 4.6875 
Q 105.953125 0.25 100.640625 -0.984375 
Q 98.828125 -1.421875 97.265625 -1.421875 
Q 93.703125 -1.421875 91.359375 -0.203125 
Q 84.625 3.21875 83.796875 9.234375 
Q 81.390625 1.46875 76.765625 0 
Q 73.640625 -0.984375 70.90625 -0.875 
Q 64.203125 -0.78125 62.3125 2.15625 
Q 61.140625 -6.59375 57.03125 -11.8125 
Q 50.53125 -20.125 41.109375 -23.140625 
Q 37.203125 -24.421875 31.34375 -24.421875 
Q 25.09375 -24.359375 19.78125 -23 
Q 6.34375 -19.53125 6.34375 -3.515625 
Q 6.34375 8.5 11.46875 17.28125 
L 20.453125 17.28125 
Q 15.1875 7.234375 15.234375 -3.515625 
Q 15.28125 -12.25 22.46875 -14.109375 
Q 27.09375 -15.28125 31.0625 -15.28125 
Q 35.84375 -15.28125 40.484375 -13.484375 
Q 46.390625 -11.140625 50.984375 -3.421875 
Q 54.109375 1.859375 54.046875 8.796875 
Q 54 14.890625 53.21875 17.875 
L 50.09375 29.296875 
L 59.078125 29.296875 
L 60.84375 21.6875 
Q 61.625 18.0625 62.984375 15.140625 
Q 65.828125 8.984375 71.484375 8.84375 
z
M 67.140625 58.59375 
L 74.46875 58.59375 
L 74.46875 51.265625 
L 67.140625 51.265625 
z
M 73.25 46.390625 
L 80.5625 46.390625 
L 80.5625 39.0625 
L 73.25 39.0625 
z
M 61.03125 46.390625 
L 68.359375 46.390625 
L 68.359375 39.0625 
L 61.03125 39.0625 
z
" id="DejaVuSans-feb6"/>
    </defs>
    <g transform="translate(178.380326 290.116053)scale(0.1 -0.1)">
     <use xlink:href="#DejaVuSans-feb6"/>
     <use x="127.490234" xlink:href="#DejaVuSans-fbfe"/>
     <use x="155.322266" xlink:href="#DejaVuSans-fe8e"/>
     <use x="185.791016" xlink:href="#DejaVuSans-fee4"/>
     <use x="243.603516" xlink:href="#DejaVuSans-fee7"/>
    </g>
   </g>
   <g id="text_13">
    <!-- ﺮﻌﺷ_ﯽﺳﺎﻨﺷﺭﺎﮐ -->
    <defs>
     <path d="M 24.125 9.03125 
Q 14.65625 0 4.78125 0 
L -0.984375 0 
L -0.984375 8.984375 
L 3.71875 8.984375 
Q 8.9375 8.984375 12.15625 10.9375 
Q 15.046875 12.703125 17 14.59375 
Q 12.25 18.75 8.9375 23.140625 
Q 7.46875 25.046875 7.46875 27.25 
Q 7.46875 28.765625 8.109375 30.765625 
Q 8.890625 33.453125 13.96875 35.984375 
Q 18.3125 38.1875 24.125 38.1875 
Q 29.9375 38.1875 34.28125 35.984375 
Q 39.359375 33.453125 40.140625 30.765625 
Q 40.765625 28.765625 40.765625 27.25 
Q 40.765625 25.046875 39.3125 23.140625 
Q 35.546875 18.359375 31.25 14.59375 
Q 32.765625 13.09375 36.078125 10.9375 
Q 39.0625 8.984375 44.53125 8.984375 
L 49.21875 8.984375 
L 49.21875 0 
L 43.453125 0 
Q 33.59375 0 24.125 9.03125 
z
M 26.859375 28.8125 
Q 25.390625 29.15625 24.125 29.15625 
Q 22.859375 29.15625 21.390625 28.8125 
Q 19.09375 28.21875 19.09375 26.65625 
Q 19.09375 25.25 24.125 20.609375 
Q 29.15625 25.25 29.15625 26.65625 
Q 29.15625 28.21875 26.859375 28.8125 
z
" id="DejaVuSans-fecc"/>
     <path d="M 18.75 6.734375 
Q 16.65625 3.859375 13.921875 2.25 
Q 10.203125 0 5.375 0 
L -0.984375 0 
L -0.984375 8.984375 
L 2.6875 8.984375 
Q 7.515625 8.984375 9.671875 11.140625 
Q 13.578125 15.046875 13.578125 19.921875 
L 13.578125 29.296875 
L 22.5625 29.296875 
L 22.5625 21.6875 
Q 22.5625 18.5625 24.703125 13.671875 
Q 26.8125 8.84375 31.890625 8.84375 
Q 37.203125 8.84375 39.359375 14.796875 
Q 41.15625 19.828125 41.15625 29.296875 
L 50.140625 29.296875 
Q 50.140625 19.28125 51.078125 16.84375 
Q 54.203125 8.546875 59.578125 8.59375 
Q 66.5 8.6875 66.5 22.265625 
L 66.5 36.625 
L 75.484375 36.625 
L 75.484375 19.921875 
Q 75.484375 10.203125 71 4.6875 
Q 67.328125 0.203125 62.359375 -0.984375 
Q 60.546875 -1.421875 58.84375 -1.421875 
Q 55.765625 -1.421875 53.078125 -0.203125 
Q 46.390625 2.78125 45.515625 9.234375 
Q 43.171875 1.609375 38.484375 0 
Q 35.15625 -1.171875 31.984375 -1.171875 
Q 27.203125 -1.171875 23.6875 1.21875 
Q 20.75 3.171875 18.75 6.734375 
z
M 37.84375 58.59375 
L 45.171875 58.59375 
L 45.171875 51.265625 
L 37.84375 51.265625 
z
M 43.953125 46.390625 
L 51.265625 46.390625 
L 51.265625 39.0625 
L 43.953125 39.0625 
z
M 31.734375 46.390625 
L 39.0625 46.390625 
L 39.0625 39.0625 
L 31.734375 39.0625 
z
" id="DejaVuSans-feb7"/>
    </defs>
    <g transform="translate(325.262467 253.070919)scale(0.1 -0.1)">
     <use xlink:href="#DejaVuSans-feae"/>
     <use x="55.175781" xlink:href="#DejaVuSans-fecc"/>
     <use x="103.417969" xlink:href="#DejaVuSans-feb7"/>
     <use x="187.207031" xlink:href="#DejaVuSans-5f"/>
     <use x="237.207031" xlink:href="#DejaVuSans-fbfd"/>
     <use x="320.556641" xlink:href="#DejaVuSans-feb3"/>
     <use x="404.345703" xlink:href="#DejaVuSans-fe8e"/>
     <use x="434.814453" xlink:href="#DejaVuSans-fee8"/>
     <use x="464.990234" xlink:href="#DejaVuSans-feb7"/>
     <use x="548.779297" xlink:href="#DejaVuSans-fead"/>
     <use x="597.070312" xlink:href="#DejaVuSans-fe8e"/>
     <use x="627.539062" xlink:href="#DejaVuSans-fb90"/>
    </g>
   </g>
   <g id="text_14">
    <!-- ﮓﻨﺟ_ﻪﻧﺎﺨﺑﺎﺘﮐ -->
    <defs>
     <path d="M 70.125 5.859375 
Q 65.28125 2.15625 57.03125 -0.78125 
Q 47.015625 -4.34375 38.09375 -4.34375 
Q 28.71875 -4.34375 22.46875 -2.484375 
Q 6.34375 2.296875 6.34375 15.328125 
Q 6.34375 22.078125 9.421875 26.5625 
L 18.40625 26.5625 
Q 15.234375 21.96875 15.234375 15.328125 
Q 15.234375 9.1875 25.140625 5.953125 
Q 30.21875 4.296875 37.59375 4.296875 
Q 46.578125 4.296875 56.0625 8.203125 
Q 63.765625 11.375 65.484375 14.0625 
Q 66.265625 15.328125 66.265625 17.578125 
Q 66.265625 20.953125 63.625 24.171875 
L 48.484375 42.71875 
Q 46.046875 45.703125 46.046875 49.65625 
Q 46.046875 51.375 46.53125 52.984375 
Q 48.25 58.796875 53.125 60.84375 
L 89.5 75.984375 
L 89.5 66.890625 
L 60.453125 54.6875 
Q 56.984375 53.21875 55.953125 51.265625 
Q 55.671875 50.734375 55.671875 49.515625 
Q 55.671875 47.953125 57.171875 46.140625 
L 85.640625 11.71875 
Q 86.71875 10.453125 88.578125 9.765625 
Q 90.671875 8.984375 93.796875 8.984375 
L 98.09375 8.984375 
L 98.09375 0 
L 91.65625 0 
Q 88.484375 0 85.640625 1.171875 
Q 80.609375 3.265625 79 5.28125 
L 74.265625 11.140625 
Q 73.046875 8.015625 70.125 5.859375 
z
M 89.5 82.28125 
L 47.359375 64.984375 
L 47.359375 72.3125 
L 89.5 89.59375 
z
" id="DejaVuSans-fb93"/>
    </defs>
    <g transform="translate(342.901056 225.956178)scale(0.1 -0.1)">
     <use xlink:href="#DejaVuSans-fb93"/>
     <use x="89.501953" xlink:href="#DejaVuSans-fee8"/>
     <use x="119.677734" xlink:href="#DejaVuSans-fe9f"/>
     <use x="181.494141" xlink:href="#DejaVuSans-5f"/>
     <use x="231.494141" xlink:href="#DejaVuSans-feea"/>
     <use x="285.107422" xlink:href="#DejaVuSans-fee7"/>
     <use x="312.939453" xlink:href="#DejaVuSans-fe8e"/>
     <use x="343.408203" xlink:href="#DejaVuSans-fea8"/>
     <use x="407.958984" xlink:href="#DejaVuSans-fe91"/>
     <use x="435.791016" xlink:href="#DejaVuSans-fe8e"/>
     <use x="466.259766" xlink:href="#DejaVuSans-fe98"/>
     <use x="496.435547" xlink:href="#DejaVuSans-fb90"/>
    </g>
   </g>
   <g id="text_15">
    <!-- ﻪﯾﺮﺸﻧ -->
    <g transform="translate(352.084069 193.402426)scale(0.1 -0.1)">
     <use xlink:href="#DejaVuSans-feea"/>
     <use x="53.613281" xlink:href="#DejaVuSans-fbfe"/>
     <use x="81.445312" xlink:href="#DejaVuSans-feae"/>
     <use x="136.621094" xlink:href="#DejaVuSans-feb8"/>
     <use x="225.830078" xlink:href="#DejaVuSans-fee7"/>
    </g>
   </g>
  </g>
 </g>
</svg>
