<?xml version="1.0" encoding="utf-8" standalone="no"?>
<!DOCTYPE svg PUBLIC "-//W3C//DTD SVG 1.1//EN"
  "http://www.w3.org/Graphics/SVG/1.1/DTD/svg11.dtd">
<!-- Created with matplotlib (http://matplotlib.org/) -->
<svg height="345.6pt" version="1.1" viewBox="0 0 460.8 345.6" width="460.8pt" xmlns="http://www.w3.org/2000/svg" xmlns:xlink="http://www.w3.org/1999/xlink">
 <defs>
  <style type="text/css">
*{stroke-linecap:butt;stroke-linejoin:round;}
  </style>
 </defs>
 <g id="figure_1">
  <g id="patch_1">
   <path d="M 0 345.6 
L 460.8 345.6 
L 460.8 0 
L 0 0 
z
" style="fill:#ffffff;"/>
  </g>
  <g id="axes_1">
   <g id="patch_2">
    <path d="M 342.6048 174.528 
C 342.6048 162.11123 340.432178 149.789681 336.185393 138.121734 
C 331.938608 126.453787 325.682793 115.618399 317.701447 106.106601 
L 236.16 174.528 
L 342.6048 174.528 
z
" style="fill:#1f77b4;"/>
   </g>
   <g id="patch_3">
    <path d="M 317.701447 106.106601 
C 305.691877 91.794153 290.123081 80.892765 272.566264 74.502606 
C 255.009446 68.112448 236.07578 66.455967 217.676051 69.700336 
C 199.276322 72.944706 182.051045 80.976985 167.738597 92.986556 
C 153.426149 104.996127 142.524762 120.564923 136.134604 138.121741 
C 129.744447 155.678559 128.087967 174.612225 131.332337 193.011954 
C 134.576707 211.411683 142.608988 228.636959 154.618559 242.949407 
C 166.628131 257.261854 182.196928 268.16324 199.753746 274.553397 
C 217.310564 280.943554 236.244231 282.600033 254.643959 279.355662 
L 236.16 174.528 
L 317.701447 106.106601 
z
" style="fill:#ff7f0e;"/>
   </g>
   <g id="patch_4">
    <path d="M 254.643959 279.355662 
C 279.283357 275.011068 301.619234 262.115439 317.701457 242.949388 
C 333.783679 223.783336 342.604804 199.547486 342.6048 174.527985 
L 236.16 174.528 
L 254.643959 279.355662 
z
" style="fill:#2ca02c;"/>
   </g>
   <g id="matplotlib.axis_1"/>
   <g id="matplotlib.axis_2"/>
   <g id="text_1">
    <!-- ﻮﯾﺩﻮﺘﺳﺍ -->
    <defs>
     <path d="M 31.890625 8.984375 
Q 31.890625 12.703125 31.109375 15.484375 
Q 29.9375 19.390625 27.6875 20.84375 
Q 24.75 22.859375 21.828125 21.578125 
Q 18.5625 20.171875 17.921875 17.4375 
Q 17.09375 13.765625 20.21875 11.140625 
Q 22.515625 9.1875 31.890625 8.984375 
z
M 40.625 8.984375 
L 52.640625 8.984375 
L 52.640625 0 
L 43.171875 0 
L 39.75 0.046875 
Q 38.53125 -7.5625 32.234375 -13.875 
Q 28.171875 -17.921875 23.046875 -20.21875 
Q 13.671875 -24.421875 -4.15625 -24.421875 
L -4.15625 -15.4375 
Q 13.484375 -15.4375 19.921875 -11.71875 
Q 28.125 -7.078125 31.15625 0.140625 
Q 25.390625 0.296875 23.1875 0.640625 
Q 16.40625 1.8125 13.921875 3.90625 
Q 8.734375 8.25 8.25 14.84375 
Q 8.15625 16.359375 8.640625 19.140625 
Q 9.96875 26.703125 18.5625 30.375 
Q 21.4375 31.59375 24.609375 31.546875 
Q 28.859375 31.453125 32.234375 29.046875 
Q 38.71875 24.5625 39.796875 17.671875 
Q 40.4375 13.625 40.625 8.984375 
z
" id="DejaVuSans-feee"/>
     <path d="M 14.59375 4.203125 
Q 11.078125 0 3.421875 0 
L -0.984375 0 
L -0.984375 8.984375 
L 0.734375 8.984375 
Q 5.5625 8.984375 7.71875 11.140625 
Q 10.109375 13.53125 10.109375 18.703125 
L 10.109375 29.296875 
L 19.09375 29.296875 
L 19.09375 18.703125 
Q 19.09375 9.578125 14.59375 4.203125 
z
M 17.046875 -7.328125 
L 24.359375 -7.328125 
L 24.359375 -14.65625 
L 17.046875 -14.65625 
z
M 4.828125 -7.328125 
L 12.15625 -7.328125 
L 12.15625 -14.65625 
L 4.828125 -14.65625 
z
" id="DejaVuSans-fbfe"/>
     <path d="M 19.09375 7.375 
Q 27.484375 9.765625 29.203125 15.234375 
Q 29.59375 16.546875 29.59375 18.609375 
Q 29.59375 22.40625 26.65625 28.078125 
Q 23.4375 34.375 14.984375 41.5 
L 26.078125 41.5 
Q 31.59375 37.0625 34.8125 31 
Q 38.8125 23.578125 38.8125 18.453125 
Q 38.8125 13.625 37.25 9.96875 
Q 33.34375 0.484375 20.5625 -1.515625 
Q 18.3125 -1.859375 16.109375 -1.859375 
Q 11.140625 -1.859375 6.109375 0 
L 6.109375 8.984375 
Q 11.71875 6.9375 15.828125 6.9375 
Q 17.4375 6.9375 19.09375 7.375 
z
" id="DejaVuSans-fea9"/>
     <path d="M 14.59375 4.203125 
Q 10.84375 0 3.421875 0 
L -0.984375 0 
L -0.984375 8.984375 
L 0.734375 8.984375 
Q 5.5625 8.984375 7.71875 11.140625 
Q 10.109375 13.53125 10.109375 18.703125 
L 10.109375 29.296875 
L 19.09375 29.296875 
L 19.09375 18.703125 
Q 19.09375 13.53125 21.484375 11.140625 
Q 23.640625 8.984375 28.46875 8.984375 
L 31.15625 8.984375 
L 31.15625 0 
L 25.78125 0 
Q 18.453125 0 14.59375 4.203125 
z
M 17.046875 48.828125 
L 24.359375 48.828125 
L 24.359375 41.5 
L 17.046875 41.5 
z
M 4.828125 48.828125 
L 12.15625 48.828125 
L 12.15625 41.5 
L 4.828125 41.5 
z
" id="DejaVuSans-fe98"/>
     <path d="M 18.75 6.734375 
Q 16.65625 3.859375 13.921875 2.25 
Q 10.203125 0 5.375 0 
L -0.984375 0 
L -0.984375 8.984375 
L 2.6875 8.984375 
Q 7.515625 8.984375 9.671875 11.140625 
Q 13.578125 15.046875 13.578125 19.921875 
L 13.578125 29.296875 
L 22.5625 29.296875 
L 22.5625 21.6875 
Q 22.5625 18.5625 24.703125 13.671875 
Q 26.8125 8.84375 31.890625 8.84375 
Q 37.203125 8.84375 39.359375 14.796875 
Q 41.15625 19.828125 41.15625 29.296875 
L 50.140625 29.296875 
Q 50.140625 19.28125 51.078125 16.84375 
Q 54.203125 8.546875 59.578125 8.59375 
Q 66.5 8.6875 66.5 22.265625 
L 66.5 36.625 
L 75.484375 36.625 
L 75.484375 19.921875 
Q 75.484375 10.203125 71 4.6875 
Q 67.328125 0.203125 62.359375 -0.984375 
Q 60.546875 -1.421875 58.84375 -1.421875 
Q 55.765625 -1.421875 53.078125 -0.203125 
Q 46.390625 2.78125 45.515625 9.234375 
Q 43.171875 1.609375 38.484375 0 
Q 35.15625 -1.171875 31.984375 -1.171875 
Q 27.203125 -1.171875 23.6875 1.21875 
Q 20.75 3.171875 18.75 6.734375 
z
" id="DejaVuSans-feb3"/>
     <path d="M 9.421875 75.984375 
L 18.40625 75.984375 
L 18.40625 0 
L 9.421875 0 
z
" id="DejaVuSans-fe8d"/>
    </defs>
    <g transform="translate(346.187932 137.059232)scale(0.1 -0.1)">
     <use xlink:href="#DejaVuSans-feee"/>
     <use x="51.660156" xlink:href="#DejaVuSans-fbfe"/>
     <use x="79.492188" xlink:href="#DejaVuSans-fea9"/>
     <use x="124.023438" xlink:href="#DejaVuSans-feee"/>
     <use x="175.683594" xlink:href="#DejaVuSans-fe98"/>
     <use x="205.859375" xlink:href="#DejaVuSans-feb3"/>
     <use x="289.648438" xlink:href="#DejaVuSans-fe8d"/>
    </g>
   </g>
   <g id="text_2">
    <!-- 11.1% -->
    <defs>
     <path d="M 12.40625 8.296875 
L 28.515625 8.296875 
L 28.515625 63.921875 
L 10.984375 60.40625 
L 10.984375 69.390625 
L 28.421875 72.90625 
L 38.28125 72.90625 
L 38.28125 8.296875 
L 54.390625 8.296875 
L 54.390625 0 
L 12.40625 0 
z
" id="DejaVuSans-31"/>
     <path d="M 10.6875 12.40625 
L 21 12.40625 
L 21 0 
L 10.6875 0 
z
" id="DejaVuSans-2e"/>
     <path d="M 72.703125 32.078125 
Q 68.453125 32.078125 66.03125 28.46875 
Q 63.625 24.859375 63.625 18.40625 
Q 63.625 12.0625 66.03125 8.421875 
Q 68.453125 4.78125 72.703125 4.78125 
Q 76.859375 4.78125 79.265625 8.421875 
Q 81.6875 12.0625 81.6875 18.40625 
Q 81.6875 24.8125 79.265625 28.4375 
Q 76.859375 32.078125 72.703125 32.078125 
z
M 72.703125 38.28125 
Q 80.421875 38.28125 84.953125 32.90625 
Q 89.5 27.546875 89.5 18.40625 
Q 89.5 9.28125 84.9375 3.921875 
Q 80.375 -1.421875 72.703125 -1.421875 
Q 64.890625 -1.421875 60.34375 3.921875 
Q 55.8125 9.28125 55.8125 18.40625 
Q 55.8125 27.59375 60.375 32.9375 
Q 64.9375 38.28125 72.703125 38.28125 
z
M 22.3125 68.015625 
Q 18.109375 68.015625 15.6875 64.375 
Q 13.28125 60.75 13.28125 54.390625 
Q 13.28125 47.953125 15.671875 44.328125 
Q 18.0625 40.71875 22.3125 40.71875 
Q 26.5625 40.71875 28.96875 44.328125 
Q 31.390625 47.953125 31.390625 54.390625 
Q 31.390625 60.6875 28.953125 64.34375 
Q 26.515625 68.015625 22.3125 68.015625 
z
M 66.40625 74.21875 
L 74.21875 74.21875 
L 28.609375 -1.421875 
L 20.796875 -1.421875 
z
M 22.3125 74.21875 
Q 30.03125 74.21875 34.609375 68.875 
Q 39.203125 63.53125 39.203125 54.390625 
Q 39.203125 45.171875 34.640625 39.84375 
Q 30.078125 34.515625 22.3125 34.515625 
Q 14.546875 34.515625 10.03125 39.859375 
Q 5.515625 45.21875 5.515625 54.390625 
Q 5.515625 63.484375 10.046875 68.84375 
Q 14.59375 74.21875 22.3125 74.21875 
z
" id="DejaVuSans-25"/>
    </defs>
    <g transform="translate(280.291642 155.443615)scale(0.1 -0.1)">
     <use xlink:href="#DejaVuSans-31"/>
     <use x="63.623047" xlink:href="#DejaVuSans-31"/>
     <use x="127.246094" xlink:href="#DejaVuSans-2e"/>
     <use x="159.033203" xlink:href="#DejaVuSans-31"/>
     <use x="222.65625" xlink:href="#DejaVuSans-25"/>
    </g>
   </g>
   <g id="text_3">
    <!-- ﺶﯾﺎﻤﻧ -->
    <defs>
     <path d="M 71.484375 8.84375 
Q 75.296875 8.734375 77.640625 14.796875 
Q 79.4375 19.4375 79.4375 29.296875 
L 88.421875 29.296875 
Q 88.421875 19.28125 89.359375 16.84375 
Q 92.484375 8.59375 97.859375 8.59375 
Q 104.78125 8.59375 104.78125 22.265625 
L 104.78125 36.625 
L 113.765625 36.625 
L 113.765625 19.921875 
Q 113.765625 15.1875 117.828125 11.140625 
Q 119.96875 8.984375 124.8125 8.984375 
L 128.46875 8.984375 
L 128.46875 0 
L 122.125 0 
Q 115.046875 0 109.28125 4.6875 
Q 105.953125 0.25 100.640625 -0.984375 
Q 98.828125 -1.421875 97.265625 -1.421875 
Q 93.703125 -1.421875 91.359375 -0.203125 
Q 84.625 3.21875 83.796875 9.234375 
Q 81.390625 1.46875 76.765625 0 
Q 73.640625 -0.984375 70.90625 -0.875 
Q 64.203125 -0.78125 62.3125 2.15625 
Q 61.140625 -6.59375 57.03125 -11.8125 
Q 50.53125 -20.125 41.109375 -23.140625 
Q 37.203125 -24.421875 31.34375 -24.421875 
Q 25.09375 -24.359375 19.78125 -23 
Q 6.34375 -19.53125 6.34375 -3.515625 
Q 6.34375 8.5 11.46875 17.28125 
L 20.453125 17.28125 
Q 15.1875 7.234375 15.234375 -3.515625 
Q 15.28125 -12.25 22.46875 -14.109375 
Q 27.09375 -15.28125 31.0625 -15.28125 
Q 35.84375 -15.28125 40.484375 -13.484375 
Q 46.390625 -11.140625 50.984375 -3.421875 
Q 54.109375 1.859375 54.046875 8.796875 
Q 54 14.890625 53.21875 17.875 
L 50.09375 29.296875 
L 59.078125 29.296875 
L 60.84375 21.6875 
Q 61.625 18.0625 62.984375 15.140625 
Q 65.828125 8.984375 71.484375 8.84375 
z
M 67.140625 58.59375 
L 74.46875 58.59375 
L 74.46875 51.265625 
L 67.140625 51.265625 
z
M 73.25 46.390625 
L 80.5625 46.390625 
L 80.5625 39.0625 
L 73.25 39.0625 
z
M 61.03125 46.390625 
L 68.359375 46.390625 
L 68.359375 39.0625 
L 61.03125 39.0625 
z
" id="DejaVuSans-feb6"/>
     <path d="M 9.421875 18.109375 
L 9.421875 75.984375 
L 18.40625 75.984375 
L 18.40625 18.703125 
Q 18.40625 13.53125 20.796875 11.140625 
Q 22.953125 8.984375 27.78125 8.984375 
L 31.453125 8.984375 
L 31.453125 0 
L 25.09375 0 
Q 17.578125 0 13.671875 4.5 
Q 9.421875 9.421875 9.421875 18.109375 
z
" id="DejaVuSans-fe8e"/>
     <path d="M 42.390625 2.546875 
Q 37.640625 -2.4375 30.859375 -2.4375 
Q 20.40625 -2.4375 15.046875 2.34375 
Q 11.921875 0 6.84375 0 
L -0.984375 0 
L -0.984375 8.984375 
L 4.6875 8.984375 
Q 7.234375 8.984375 9.375 10.75 
Q 11.46875 12.453125 11.71875 14.84375 
Q 12.703125 23.6875 19.28125 27.59375 
Q 23.875 30.328125 28.421875 30.328125 
Q 31.9375 30.328125 35.15625 28.90625 
Q 44.578125 24.859375 45.40625 16.703125 
Q 45.65625 14.3125 48.140625 11.28125 
Q 49.90625 9.125 55.125 9.125 
L 58.796875 9.125 
L 58.796875 0.140625 
L 52.4375 0.140625 
Q 43.84375 0.140625 42.390625 2.546875 
z
M 19.828125 9.71875 
Q 22.859375 6.34375 30.609375 6.34375 
Q 32.90625 6.34375 33.84375 7.234375 
Q 36.375 9.8125 36.375 13.1875 
Q 36.375 14.109375 36.140625 14.984375 
Q 35.0625 19.28125 32.234375 20.125 
Q 30.328125 20.703125 28.421875 20.703125 
Q 25.828125 20.703125 23.828125 19.390625 
Q 21.390625 17.78125 20.65625 13.03125 
Q 20.3125 11.234375 19.828125 9.71875 
z
" id="DejaVuSans-fee4"/>
     <path d="M 10.9375 48.828125 
L 18.265625 48.828125 
L 18.265625 41.5 
L 10.9375 41.5 
z
M 14.59375 4.203125 
Q 11.078125 0 3.421875 0 
L -0.984375 0 
L -0.984375 8.984375 
L 0.734375 8.984375 
Q 5.5625 8.984375 7.71875 11.140625 
Q 10.109375 13.53125 10.109375 18.703125 
L 10.109375 29.296875 
L 19.09375 29.296875 
L 19.09375 18.703125 
Q 19.09375 9.578125 14.59375 4.203125 
z
" id="DejaVuSans-fee7"/>
    </defs>
    <g transform="translate(98.989877 137.05924)scale(0.1 -0.1)">
     <use xlink:href="#DejaVuSans-feb6"/>
     <use x="127.490234" xlink:href="#DejaVuSans-fbfe"/>
     <use x="155.322266" xlink:href="#DejaVuSans-fe8e"/>
     <use x="185.791016" xlink:href="#DejaVuSans-fee4"/>
     <use x="243.603516" xlink:href="#DejaVuSans-fee7"/>
    </g>
   </g>
   <g id="text_4">
    <!-- 66.7% -->
    <defs>
     <path d="M 33.015625 40.375 
Q 26.375 40.375 22.484375 35.828125 
Q 18.609375 31.296875 18.609375 23.390625 
Q 18.609375 15.53125 22.484375 10.953125 
Q 26.375 6.390625 33.015625 6.390625 
Q 39.65625 6.390625 43.53125 10.953125 
Q 47.40625 15.53125 47.40625 23.390625 
Q 47.40625 31.296875 43.53125 35.828125 
Q 39.65625 40.375 33.015625 40.375 
z
M 52.59375 71.296875 
L 52.59375 62.3125 
Q 48.875 64.0625 45.09375 64.984375 
Q 41.3125 65.921875 37.59375 65.921875 
Q 27.828125 65.921875 22.671875 59.328125 
Q 17.53125 52.734375 16.796875 39.40625 
Q 19.671875 43.65625 24.015625 45.921875 
Q 28.375 48.1875 33.59375 48.1875 
Q 44.578125 48.1875 50.953125 41.515625 
Q 57.328125 34.859375 57.328125 23.390625 
Q 57.328125 12.15625 50.6875 5.359375 
Q 44.046875 -1.421875 33.015625 -1.421875 
Q 20.359375 -1.421875 13.671875 8.265625 
Q 6.984375 17.96875 6.984375 36.375 
Q 6.984375 53.65625 15.1875 63.9375 
Q 23.390625 74.21875 37.203125 74.21875 
Q 40.921875 74.21875 44.703125 73.484375 
Q 48.484375 72.75 52.59375 71.296875 
z
" id="DejaVuSans-36"/>
     <path d="M 8.203125 72.90625 
L 55.078125 72.90625 
L 55.078125 68.703125 
L 28.609375 0 
L 18.3125 0 
L 43.21875 64.59375 
L 8.203125 64.59375 
z
" id="DejaVuSans-37"/>
    </defs>
    <g transform="translate(160.261169 155.44362)scale(0.1 -0.1)">
     <use xlink:href="#DejaVuSans-36"/>
     <use x="63.623047" xlink:href="#DejaVuSans-36"/>
     <use x="127.246094" xlink:href="#DejaVuSans-2e"/>
     <use x="159.033203" xlink:href="#DejaVuSans-37"/>
     <use x="222.65625" xlink:href="#DejaVuSans-25"/>
    </g>
   </g>
   <g id="text_5">
    <!-- ﺎﻫ_ﻩﮊﻭﺮﭘ -->
    <defs>
     <path d="M 19.734375 13.140625 
Q 21.484375 14.453125 23.140625 17.578125 
Q 25.046875 21.09375 25.046875 24.078125 
Q 25.046875 26.3125 24.3125 28.125 
Q 23.25 30.671875 20.40625 30.671875 
Q 17.234375 30.671875 16.109375 28.46875 
Q 15.046875 26.375 15.046875 24.65625 
Q 15.046875 23.1875 15.375 21.390625 
Q 16.40625 15.625 19.734375 13.140625 
z
M 4.25 8.984375 
Q 6.78125 8.984375 10.59375 9.515625 
Q 8.40625 14.65625 7.671875 18.015625 
Q 6.78125 21.828125 6.78125 24.953125 
Q 6.78125 29.046875 8.984375 33.109375 
Q 11.328125 37.5 15.09375 37.0625 
Q 12.9375 38.96875 8.984375 39.65625 
L 8.984375 48.6875 
Q 19.875 45.359375 30.421875 36.625 
Q 42.921875 26.421875 46.046875 15.578125 
Q 46.734375 13.03125 46.734375 10.25 
Q 46.734375 5.21875 44.78125 2.25 
Q 41.15625 -3.265625 32.625 -3.265625 
Q 26.21875 -3.265625 18.703125 2 
Q 12.84375 0 5.71875 0 
L -0.984375 0 
L -0.984375 8.984375 
z
M 32.375 24.8125 
Q 32.671875 23 32.671875 21.09375 
Q 32.671875 13.921875 27.875 8.796875 
Q 27.296875 8.109375 26.46875 7.171875 
Q 29 4.9375 31.390625 4.9375 
Q 37.5 4.9375 38.328125 8.203125 
Q 38.671875 9.671875 38.671875 11.28125 
Q 38.671875 14.203125 37.0625 18.015625 
Q 35.640625 21.390625 32.375 24.8125 
z
" id="DejaVuSans-feeb"/>
     <path d="M 50.984375 -16.609375 
L 50.984375 -23.578125 
L -0.984375 -23.578125 
L -0.984375 -16.609375 
z
" id="DejaVuSans-5f"/>
     <path d="M 21.625 27.046875 
Q 18.40625 27.046875 16.796875 22.796875 
Q 15.53125 19.4375 15.578125 13.421875 
Q 15.625 9.421875 18.3125 7.28125 
Q 21.09375 5.125 23.875 5.125 
Q 28.328125 5.125 32.859375 7.90625 
Q 36.53125 10.15625 36.53125 14.3125 
Q 36.53125 18.0625 33.296875 21.234375 
Q 27.296875 27.09375 21.625 27.046875 
z
M 19.875 35.84375 
Q 29.546875 35.84375 38.421875 28.03125 
Q 45.3125 21.96875 45.3125 14.75 
Q 45.265625 4.984375 38.09375 1.3125 
Q 30.03125 -2.828125 23.578125 -2.828125 
Q 18.890625 -2.828125 14.9375 -1.125 
Q 6.78125 2.484375 6.78125 14.15625 
Q 6.78125 23 8.59375 26.8125 
Q 12.703125 35.84375 19.875 35.84375 
z
" id="DejaVuSans-fee9"/>
     <path d="M 30.515625 58.59375 
L 37.84375 58.59375 
L 37.84375 51.265625 
L 30.515625 51.265625 
z
M 36.625 46.390625 
L 43.953125 46.390625 
L 43.953125 39.0625 
L 36.625 39.0625 
z
M 24.421875 46.390625 
L 31.734375 46.390625 
L 31.734375 39.0625 
L 24.421875 39.0625 
z
M 32.953125 7.71875 
Q 33.453125 10.546875 33.453125 14.0625 
Q 33.453125 20.21875 30.859375 26.859375 
L 39.84375 26.859375 
Q 42.28125 21.09375 42.28125 14.65625 
Q 42.28125 10.640625 41.890625 7.625 
Q 39.65625 -9.46875 25.4375 -17.046875 
Q 11.578125 -24.421875 -4.15625 -24.421875 
L -4.15625 -15.4375 
Q 10.6875 -15.4375 20.609375 -9.1875 
Q 31.25 -2.4375 32.953125 7.71875 
z
" id="DejaVuSans-fb8a"/>
     <path d="M 24.125 22.078125 
Q 21.046875 22.078125 18.890625 19.28125 
Q 17.71875 17.671875 17.71875 15.921875 
Q 17.71875 13.421875 20.21875 11.140625 
Q 22.515625 8.984375 31.890625 8.984375 
Q 31.890625 17.96875 27.6875 20.84375 
Q 25.875 22.078125 24.125 22.078125 
z
M 40.625 8.984375 
Q 40.625 -6.0625 32.234375 -13.875 
Q 27.59375 -18.171875 23.046875 -20.21875 
Q 13.671875 -24.421875 -4.15625 -24.421875 
L -4.15625 -15.4375 
Q 13.375 -15.4375 19.921875 -11.71875 
Q 28.125 -7.078125 31.15625 0.140625 
Q 25.390625 0.140625 23.1875 0.640625 
Q 15.875 2.25 13.921875 3.90625 
Q 8.25 8.6875 8.25 15.375 
Q 8.25 22.265625 12.59375 26.515625 
Q 17.671875 31.546875 24.359375 31.546875 
Q 28.71875 31.546875 32.234375 29.046875 
Q 38.578125 24.65625 39.796875 17.671875 
Q 40.625 12.703125 40.625 8.984375 
z
" id="DejaVuSans-feed"/>
     <path d="M 30.859375 26.859375 
L 39.84375 26.859375 
Q 41.3125 21.390625 41.453125 19.921875 
Q 41.9375 14.890625 45.515625 11.140625 
Q 47.5625 8.984375 52.484375 8.984375 
L 56.15625 8.984375 
L 56.15625 0 
L 49.8125 0 
Q 43.453125 0 41.015625 3.03125 
Q 37.703125 -10.546875 25.4375 -17.046875 
Q 11.578125 -24.421875 -4.15625 -24.421875 
L -4.15625 -15.4375 
Q 10.6875 -15.4375 20.609375 -9.1875 
Q 31.25 -2.4375 32.953125 7.71875 
Q 33.453125 10.546875 33.453125 14.0625 
Q 33.453125 20.21875 30.859375 26.859375 
z
" id="DejaVuSans-feae"/>
     <path d="M 14.59375 4.203125 
Q 11.078125 0 3.421875 0 
L -0.984375 0 
L -0.984375 8.984375 
L 0.734375 8.984375 
Q 5.5625 8.984375 7.71875 11.140625 
Q 10.109375 13.53125 10.109375 18.703125 
L 10.109375 29.296875 
L 19.09375 29.296875 
L 19.09375 18.703125 
Q 19.09375 9.578125 14.59375 4.203125 
z
M 10.9375 -17.09375 
L 18.265625 -17.09375 
L 18.265625 -24.40625 
L 10.9375 -24.40625 
z
M 17.046875 -4.875 
L 24.359375 -4.875 
L 24.359375 -12.203125 
L 17.046875 -12.203125 
z
M 4.828125 -4.875 
L 12.15625 -4.875 
L 12.15625 -12.203125 
L 4.828125 -12.203125 
z
" id="DejaVuSans-fb58"/>
    </defs>
    <g transform="translate(325.855602 252.369651)scale(0.1 -0.1)">
     <use xlink:href="#DejaVuSans-fe8e"/>
     <use x="30.46875" xlink:href="#DejaVuSans-feeb"/>
     <use x="83.203125" xlink:href="#DejaVuSans-5f"/>
     <use x="133.203125" xlink:href="#DejaVuSans-fee9"/>
     <use x="185.595703" xlink:href="#DejaVuSans-fb8a"/>
     <use x="233.886719" xlink:href="#DejaVuSans-feed"/>
     <use x="282.177734" xlink:href="#DejaVuSans-feae"/>
     <use x="337.353516" xlink:href="#DejaVuSans-fb58"/>
    </g>
   </g>
   <g id="text_6">
    <!-- 22.2% -->
    <defs>
     <path d="M 19.1875 8.296875 
L 53.609375 8.296875 
L 53.609375 0 
L 7.328125 0 
L 7.328125 8.296875 
Q 12.9375 14.109375 22.625 23.890625 
Q 32.328125 33.6875 34.8125 36.53125 
Q 39.546875 41.84375 41.421875 45.53125 
Q 43.3125 49.21875 43.3125 52.78125 
Q 43.3125 58.59375 39.234375 62.25 
Q 35.15625 65.921875 28.609375 65.921875 
Q 23.96875 65.921875 18.8125 64.3125 
Q 13.671875 62.703125 7.8125 59.421875 
L 7.8125 69.390625 
Q 13.765625 71.78125 18.9375 73 
Q 24.125 74.21875 28.421875 74.21875 
Q 39.75 74.21875 46.484375 68.546875 
Q 53.21875 62.890625 53.21875 53.421875 
Q 53.21875 48.921875 51.53125 44.890625 
Q 49.859375 40.875 45.40625 35.40625 
Q 44.1875 33.984375 37.640625 27.21875 
Q 31.109375 20.453125 19.1875 8.296875 
z
" id="DejaVuSans-32"/>
    </defs>
    <g transform="translate(269.20128 218.340208)scale(0.1 -0.1)">
     <use xlink:href="#DejaVuSans-32"/>
     <use x="63.623047" xlink:href="#DejaVuSans-32"/>
     <use x="127.246094" xlink:href="#DejaVuSans-2e"/>
     <use x="159.033203" xlink:href="#DejaVuSans-32"/>
     <use x="222.65625" xlink:href="#DejaVuSans-25"/>
    </g>
   </g>
   <g id="legend_1">
    <g id="patch_5">
     <path d="M 293.69725 302.584 
L 362.216 302.584 
Q 364.216 302.584 364.216 300.584 
L 364.216 256.462125 
Q 364.216 254.462125 362.216 254.462125 
L 293.69725 254.462125 
Q 291.69725 254.462125 291.69725 256.462125 
L 291.69725 300.584 
Q 291.69725 302.584 293.69725 302.584 
z
" style="fill:#ffffff;opacity:0.8;stroke:#cccccc;stroke-linejoin:miter;"/>
    </g>
    <g id="patch_6">
     <path d="M 295.69725 266.060562 
L 315.69725 266.060562 
L 315.69725 259.060562 
L 295.69725 259.060562 
z
" style="fill:#1f77b4;"/>
    </g>
    <g id="text_7">
     <!-- ﻮﯾﺩﻮﺘﺳﺍ -->
     <g transform="translate(323.69725 266.060562)scale(0.1 -0.1)">
      <use xlink:href="#DejaVuSans-feee"/>
      <use x="51.660156" xlink:href="#DejaVuSans-fbfe"/>
      <use x="79.492188" xlink:href="#DejaVuSans-fea9"/>
      <use x="124.023438" xlink:href="#DejaVuSans-feee"/>
      <use x="175.683594" xlink:href="#DejaVuSans-fe98"/>
      <use x="205.859375" xlink:href="#DejaVuSans-feb3"/>
      <use x="289.648438" xlink:href="#DejaVuSans-fe8d"/>
     </g>
    </g>
    <g id="patch_7">
     <path d="M 295.69725 281.101187 
L 315.69725 281.101187 
L 315.69725 274.101187 
L 295.69725 274.101187 
z
" style="fill:#ff7f0e;"/>
    </g>
    <g id="text_8">
     <!-- ﺶﯾﺎﻤﻧ -->
     <g transform="translate(323.69725 281.101187)scale(0.1 -0.1)">
      <use xlink:href="#DejaVuSans-feb6"/>
      <use x="127.490234" xlink:href="#DejaVuSans-fbfe"/>
      <use x="155.322266" xlink:href="#DejaVuSans-fe8e"/>
      <use x="185.791016" xlink:href="#DejaVuSans-fee4"/>
      <use x="243.603516" xlink:href="#DejaVuSans-fee7"/>
     </g>
    </g>
    <g id="patch_8">
     <path d="M 295.69725 296.141812 
L 315.69725 296.141812 
L 315.69725 289.141812 
L 295.69725 289.141812 
z
" style="fill:#2ca02c;"/>
    </g>
    <g id="text_9">
     <!-- ﺎﻫ_ﻩﮊﻭﺮﭘ -->
     <g transform="translate(323.69725 296.141812)scale(0.1 -0.1)">
      <use xlink:href="#DejaVuSans-fe8e"/>
      <use x="30.46875" xlink:href="#DejaVuSans-feeb"/>
      <use x="83.203125" xlink:href="#DejaVuSans-5f"/>
      <use x="133.203125" xlink:href="#DejaVuSans-fee9"/>
      <use x="185.595703" xlink:href="#DejaVuSans-fb8a"/>
      <use x="233.886719" xlink:href="#DejaVuSans-feed"/>
      <use x="282.177734" xlink:href="#DejaVuSans-feae"/>
      <use x="337.353516" xlink:href="#DejaVuSans-fb58"/>
     </g>
    </g>
   </g>
  </g>
 </g>
</svg>
