<?xml version="1.0" encoding="utf-8" standalone="no"?>
<!DOCTYPE svg PUBLIC "-//W3C//DTD SVG 1.1//EN"
  "http://www.w3.org/Graphics/SVG/1.1/DTD/svg11.dtd">
<!-- Created with matplotlib (http://matplotlib.org/) -->
<svg height="345.6pt" version="1.1" viewBox="0 0 460.8 345.6" width="460.8pt" xmlns="http://www.w3.org/2000/svg" xmlns:xlink="http://www.w3.org/1999/xlink">
 <defs>
  <style type="text/css">
*{stroke-linecap:butt;stroke-linejoin:round;}
  </style>
 </defs>
 <g id="figure_1">
  <g id="patch_1">
   <path d="M 0 345.6 
L 460.8 345.6 
L 460.8 0 
L 0 0 
z
" style="fill:#ffffff;"/>
  </g>
  <g id="axes_1">
   <g id="patch_2">
    <path d="M 342.6048 174.528 
C 342.6048 150.418685 334.413807 127.010173 319.381895 108.160752 
C 304.349983 89.311331 283.351039 76.11682 259.846195 70.751993 
C 236.341351 65.387166 211.697072 68.16391 189.97533 78.62455 
C 168.253589 89.08519 150.717187 106.621593 140.256548 128.343335 
L 236.16 174.528 
L 342.6048 174.528 
z
" style="fill:#1f77b4;"/>
   </g>
   <g id="patch_3">
    <path d="M 140.256548 128.343335 
C 133.318476 142.75039 129.715199 158.53738 129.7152 174.528005 
C 129.715201 190.51863 133.318479 206.305619 140.256552 220.712674 
L 236.16 174.528 
L 140.256548 128.343335 
z
" style="fill:#ff7f0e;"/>
   </g>
   <g id="patch_4">
    <path d="M 140.256552 220.712674 
C 147.194625 235.119729 157.290785 247.779911 169.79276 257.749902 
C 182.294735 267.719892 196.884108 274.745762 212.473815 278.304009 
C 228.063522 281.862256 244.256503 281.862254 259.846209 278.304004 
C 275.435916 274.745753 290.025287 267.71988 302.52726 257.749886 
L 236.16 174.528 
L 140.256552 220.712674 
z
" style="fill:#2ca02c;"/>
   </g>
   <g id="patch_5">
    <path d="M 302.52726 257.749886 
C 315.029232 247.779892 325.125389 235.119708 332.063459 220.712652 
C 339.001529 206.305595 342.604803 190.518605 342.6048 174.52798 
L 236.16 174.528 
L 302.52726 257.749886 
z
" style="fill:#d62728;"/>
   </g>
   <g id="matplotlib.axis_1"/>
   <g id="matplotlib.axis_2"/>
   <g id="text_1">
    <!-- ﺶﯾﺎﻤﻧ -->
    <defs>
     <path d="M 71.484375 8.84375 
Q 75.296875 8.734375 77.640625 14.796875 
Q 79.4375 19.4375 79.4375 29.296875 
L 88.421875 29.296875 
Q 88.421875 19.28125 89.359375 16.84375 
Q 92.484375 8.59375 97.859375 8.59375 
Q 104.78125 8.59375 104.78125 22.265625 
L 104.78125 36.625 
L 113.765625 36.625 
L 113.765625 19.921875 
Q 113.765625 15.1875 117.828125 11.140625 
Q 119.96875 8.984375 124.8125 8.984375 
L 128.46875 8.984375 
L 128.46875 0 
L 122.125 0 
Q 115.046875 0 109.28125 4.6875 
Q 105.953125 0.25 100.640625 -0.984375 
Q 98.828125 -1.421875 97.265625 -1.421875 
Q 93.703125 -1.421875 91.359375 -0.203125 
Q 84.625 3.21875 83.796875 9.234375 
Q 81.390625 1.46875 76.765625 0 
Q 73.640625 -0.984375 70.90625 -0.875 
Q 64.203125 -0.78125 62.3125 2.15625 
Q 61.140625 -6.59375 57.03125 -11.8125 
Q 50.53125 -20.125 41.109375 -23.140625 
Q 37.203125 -24.421875 31.34375 -24.421875 
Q 25.09375 -24.359375 19.78125 -23 
Q 6.34375 -19.53125 6.34375 -3.515625 
Q 6.34375 8.5 11.46875 17.28125 
L 20.453125 17.28125 
Q 15.1875 7.234375 15.234375 -3.515625 
Q 15.28125 -12.25 22.46875 -14.109375 
Q 27.09375 -15.28125 31.0625 -15.28125 
Q 35.84375 -15.28125 40.484375 -13.484375 
Q 46.390625 -11.140625 50.984375 -3.421875 
Q 54.109375 1.859375 54.046875 8.796875 
Q 54 14.890625 53.21875 17.875 
L 50.09375 29.296875 
L 59.078125 29.296875 
L 60.84375 21.6875 
Q 61.625 18.0625 62.984375 15.140625 
Q 65.828125 8.984375 71.484375 8.84375 
z
M 67.140625 58.59375 
L 74.46875 58.59375 
L 74.46875 51.265625 
L 67.140625 51.265625 
z
M 73.25 46.390625 
L 80.5625 46.390625 
L 80.5625 39.0625 
L 73.25 39.0625 
z
M 61.03125 46.390625 
L 68.359375 46.390625 
L 68.359375 39.0625 
L 61.03125 39.0625 
z
" id="DejaVuSans-feb6"/>
     <path d="M 14.59375 4.203125 
Q 11.078125 0 3.421875 0 
L -0.984375 0 
L -0.984375 8.984375 
L 0.734375 8.984375 
Q 5.5625 8.984375 7.71875 11.140625 
Q 10.109375 13.53125 10.109375 18.703125 
L 10.109375 29.296875 
L 19.09375 29.296875 
L 19.09375 18.703125 
Q 19.09375 9.578125 14.59375 4.203125 
z
M 17.046875 -7.328125 
L 24.359375 -7.328125 
L 24.359375 -14.65625 
L 17.046875 -14.65625 
z
M 4.828125 -7.328125 
L 12.15625 -7.328125 
L 12.15625 -14.65625 
L 4.828125 -14.65625 
z
" id="DejaVuSans-fbfe"/>
     <path d="M 9.421875 18.109375 
L 9.421875 75.984375 
L 18.40625 75.984375 
L 18.40625 18.703125 
Q 18.40625 13.53125 20.796875 11.140625 
Q 22.953125 8.984375 27.78125 8.984375 
L 31.453125 8.984375 
L 31.453125 0 
L 25.09375 0 
Q 17.578125 0 13.671875 4.5 
Q 9.421875 9.421875 9.421875 18.109375 
z
" id="DejaVuSans-fe8e"/>
     <path d="M 42.390625 2.546875 
Q 37.640625 -2.4375 30.859375 -2.4375 
Q 20.40625 -2.4375 15.046875 2.34375 
Q 11.921875 0 6.84375 0 
L -0.984375 0 
L -0.984375 8.984375 
L 4.6875 8.984375 
Q 7.234375 8.984375 9.375 10.75 
Q 11.46875 12.453125 11.71875 14.84375 
Q 12.703125 23.6875 19.28125 27.59375 
Q 23.875 30.328125 28.421875 30.328125 
Q 31.9375 30.328125 35.15625 28.90625 
Q 44.578125 24.859375 45.40625 16.703125 
Q 45.65625 14.3125 48.140625 11.28125 
Q 49.90625 9.125 55.125 9.125 
L 58.796875 9.125 
L 58.796875 0.140625 
L 52.4375 0.140625 
Q 43.84375 0.140625 42.390625 2.546875 
z
M 19.828125 9.71875 
Q 22.859375 6.34375 30.609375 6.34375 
Q 32.90625 6.34375 33.84375 7.234375 
Q 36.375 9.8125 36.375 13.1875 
Q 36.375 14.109375 36.140625 14.984375 
Q 35.0625 19.28125 32.234375 20.125 
Q 30.328125 20.703125 28.421875 20.703125 
Q 25.828125 20.703125 23.828125 19.390625 
Q 21.390625 17.78125 20.65625 13.03125 
Q 20.3125 11.234375 19.828125 9.71875 
z
" id="DejaVuSans-fee4"/>
     <path d="M 10.9375 48.828125 
L 18.265625 48.828125 
L 18.265625 41.5 
L 10.9375 41.5 
z
M 14.59375 4.203125 
Q 11.078125 0 3.421875 0 
L -0.984375 0 
L -0.984375 8.984375 
L 0.734375 8.984375 
Q 5.5625 8.984375 7.71875 11.140625 
Q 10.109375 13.53125 10.109375 18.703125 
L 10.109375 29.296875 
L 19.09375 29.296875 
L 19.09375 18.703125 
Q 19.09375 9.578125 14.59375 4.203125 
z
" id="DejaVuSans-fee7"/>
    </defs>
    <g transform="translate(262.214814 62.952517)scale(0.1 -0.1)">
     <use xlink:href="#DejaVuSans-feb6"/>
     <use x="127.490234" xlink:href="#DejaVuSans-fbfe"/>
     <use x="155.322266" xlink:href="#DejaVuSans-fe8e"/>
     <use x="185.791016" xlink:href="#DejaVuSans-fee4"/>
     <use x="243.603516" xlink:href="#DejaVuSans-fee7"/>
    </g>
   </g>
   <g id="text_2">
    <!-- ﺮﻌﺷ_ﯽﺳﺎﻨﺷﺭﺎﮐ -->
    <defs>
     <path d="M 30.859375 26.859375 
L 39.84375 26.859375 
Q 41.3125 21.390625 41.453125 19.921875 
Q 41.9375 14.890625 45.515625 11.140625 
Q 47.5625 8.984375 52.484375 8.984375 
L 56.15625 8.984375 
L 56.15625 0 
L 49.8125 0 
Q 43.453125 0 41.015625 3.03125 
Q 37.703125 -10.546875 25.4375 -17.046875 
Q 11.578125 -24.421875 -4.15625 -24.421875 
L -4.15625 -15.4375 
Q 10.6875 -15.4375 20.609375 -9.1875 
Q 31.25 -2.4375 32.953125 7.71875 
Q 33.453125 10.546875 33.453125 14.0625 
Q 33.453125 20.21875 30.859375 26.859375 
z
" id="DejaVuSans-feae"/>
     <path d="M 24.125 9.03125 
Q 14.65625 0 4.78125 0 
L -0.984375 0 
L -0.984375 8.984375 
L 3.71875 8.984375 
Q 8.9375 8.984375 12.15625 10.9375 
Q 15.046875 12.703125 17 14.59375 
Q 12.25 18.75 8.9375 23.140625 
Q 7.46875 25.046875 7.46875 27.25 
Q 7.46875 28.765625 8.109375 30.765625 
Q 8.890625 33.453125 13.96875 35.984375 
Q 18.3125 38.1875 24.125 38.1875 
Q 29.9375 38.1875 34.28125 35.984375 
Q 39.359375 33.453125 40.140625 30.765625 
Q 40.765625 28.765625 40.765625 27.25 
Q 40.765625 25.046875 39.3125 23.140625 
Q 35.546875 18.359375 31.25 14.59375 
Q 32.765625 13.09375 36.078125 10.9375 
Q 39.0625 8.984375 44.53125 8.984375 
L 49.21875 8.984375 
L 49.21875 0 
L 43.453125 0 
Q 33.59375 0 24.125 9.03125 
z
M 26.859375 28.8125 
Q 25.390625 29.15625 24.125 29.15625 
Q 22.859375 29.15625 21.390625 28.8125 
Q 19.09375 28.21875 19.09375 26.65625 
Q 19.09375 25.25 24.125 20.609375 
Q 29.15625 25.25 29.15625 26.65625 
Q 29.15625 28.21875 26.859375 28.8125 
z
" id="DejaVuSans-fecc"/>
     <path d="M 18.75 6.734375 
Q 16.65625 3.859375 13.921875 2.25 
Q 10.203125 0 5.375 0 
L -0.984375 0 
L -0.984375 8.984375 
L 2.6875 8.984375 
Q 7.515625 8.984375 9.671875 11.140625 
Q 13.578125 15.046875 13.578125 19.921875 
L 13.578125 29.296875 
L 22.5625 29.296875 
L 22.5625 21.6875 
Q 22.5625 18.5625 24.703125 13.671875 
Q 26.8125 8.84375 31.890625 8.84375 
Q 37.203125 8.84375 39.359375 14.796875 
Q 41.15625 19.828125 41.15625 29.296875 
L 50.140625 29.296875 
Q 50.140625 19.28125 51.078125 16.84375 
Q 54.203125 8.546875 59.578125 8.59375 
Q 66.5 8.6875 66.5 22.265625 
L 66.5 36.625 
L 75.484375 36.625 
L 75.484375 19.921875 
Q 75.484375 10.203125 71 4.6875 
Q 67.328125 0.203125 62.359375 -0.984375 
Q 60.546875 -1.421875 58.84375 -1.421875 
Q 55.765625 -1.421875 53.078125 -0.203125 
Q 46.390625 2.78125 45.515625 9.234375 
Q 43.171875 1.609375 38.484375 0 
Q 35.15625 -1.171875 31.984375 -1.171875 
Q 27.203125 -1.171875 23.6875 1.21875 
Q 20.75 3.171875 18.75 6.734375 
z
M 37.84375 58.59375 
L 45.171875 58.59375 
L 45.171875 51.265625 
L 37.84375 51.265625 
z
M 43.953125 46.390625 
L 51.265625 46.390625 
L 51.265625 39.0625 
L 43.953125 39.0625 
z
M 31.734375 46.390625 
L 39.0625 46.390625 
L 39.0625 39.0625 
L 31.734375 39.0625 
z
" id="DejaVuSans-feb7"/>
     <path d="M 50.984375 -16.609375 
L 50.984375 -23.578125 
L -0.984375 -23.578125 
L -0.984375 -16.609375 
z
" id="DejaVuSans-5f"/>
     <path d="M 53.71875 -1.609375 
Q 58.15625 0.875 58.15625 2.484375 
Q 58.109375 4.59375 55.8125 5.21875 
Q 54.390625 5.609375 52.9375 7.5625 
Q 50.78125 10.453125 50.78125 13.421875 
Q 50.78125 16.609375 53.328125 19.53125 
Q 57.234375 24.125 61.328125 24.8125 
Q 62.796875 25.09375 64.84375 25.09375 
Q 70.5625 25.09375 74.8125 18.5625 
Q 81.0625 8.984375 82.625 8.984375 
L 84.328125 8.984375 
L 84.328125 0 
L 82.625 0 
Q 77.046875 0 71.578125 8.40625 
Q 66.3125 16.453125 65.046875 16.453125 
Q 63.28125 16.453125 62.546875 16.15625 
Q 60.359375 15.328125 60.359375 13.625 
Q 60.359375 11.28125 63.53125 9.96875 
Q 67.09375 8.5 67.234375 2.484375 
Q 67.390625 -2.296875 61.859375 -6.5 
Q 55.609375 -11.1875 44.96875 -12.703125 
Q 40.625 -13.28125 35.546875 -13.28125 
Q 26.375 -13.28125 20.65625 -11.28125 
Q 6.34375 -6.25 6.34375 6.546875 
Q 6.34375 14.015625 9.421875 18.40625 
L 18.40625 18.40625 
Q 15.234375 14.015625 15.234375 6.546875 
Q 15.234375 0.984375 23.34375 -2.828125 
Q 26.5625 -4.34375 35.296875 -4.34375 
Q 39.75 -4.34375 43.5 -3.953125 
Q 50.78125 -3.21875 53.71875 -1.609375 
z
" id="DejaVuSans-fbfd"/>
     <path d="M 18.75 6.734375 
Q 16.65625 3.859375 13.921875 2.25 
Q 10.203125 0 5.375 0 
L -0.984375 0 
L -0.984375 8.984375 
L 2.6875 8.984375 
Q 7.515625 8.984375 9.671875 11.140625 
Q 13.578125 15.046875 13.578125 19.921875 
L 13.578125 29.296875 
L 22.5625 29.296875 
L 22.5625 21.6875 
Q 22.5625 18.5625 24.703125 13.671875 
Q 26.8125 8.84375 31.890625 8.84375 
Q 37.203125 8.84375 39.359375 14.796875 
Q 41.15625 19.828125 41.15625 29.296875 
L 50.140625 29.296875 
Q 50.140625 19.28125 51.078125 16.84375 
Q 54.203125 8.546875 59.578125 8.59375 
Q 66.5 8.6875 66.5 22.265625 
L 66.5 36.625 
L 75.484375 36.625 
L 75.484375 19.921875 
Q 75.484375 10.203125 71 4.6875 
Q 67.328125 0.203125 62.359375 -0.984375 
Q 60.546875 -1.421875 58.84375 -1.421875 
Q 55.765625 -1.421875 53.078125 -0.203125 
Q 46.390625 2.78125 45.515625 9.234375 
Q 43.171875 1.609375 38.484375 0 
Q 35.15625 -1.171875 31.984375 -1.171875 
Q 27.203125 -1.171875 23.6875 1.21875 
Q 20.75 3.171875 18.75 6.734375 
z
" id="DejaVuSans-feb3"/>
     <path d="M 10.9375 48.828125 
L 18.265625 48.828125 
L 18.265625 41.5 
L 10.9375 41.5 
z
M 14.59375 4.203125 
Q 10.84375 0 3.421875 0 
L -0.984375 0 
L -0.984375 8.984375 
L 0.734375 8.984375 
Q 5.5625 8.984375 7.71875 11.140625 
Q 10.109375 13.53125 10.109375 18.703125 
L 10.109375 29.296875 
L 19.09375 29.296875 
L 19.09375 18.703125 
Q 19.09375 13.53125 21.484375 11.140625 
Q 23.640625 8.984375 28.46875 8.984375 
L 31.15625 8.984375 
L 31.15625 0 
L 25.78125 0 
Q 18.453125 0 14.59375 4.203125 
z
" id="DejaVuSans-fee8"/>
     <path d="M 32.953125 7.71875 
Q 33.453125 10.546875 33.453125 14.0625 
Q 33.453125 20.21875 30.859375 26.859375 
L 39.84375 26.859375 
Q 42.28125 21.09375 42.28125 14.65625 
Q 42.28125 10.640625 41.890625 7.625 
Q 39.65625 -9.46875 25.4375 -17.046875 
Q 11.578125 -24.421875 -4.15625 -24.421875 
L -4.15625 -15.4375 
Q 10.6875 -15.4375 20.609375 -9.1875 
Q 31.25 -2.4375 32.953125 7.71875 
z
" id="DejaVuSans-fead"/>
     <path d="M 15.140625 0 
L -0.984375 0 
L -0.984375 8.984375 
L 14.15625 8.984375 
Q 21.390625 8.984375 23.578125 14.0625 
Q 24.359375 15.828125 24.359375 17.578125 
Q 24.359375 20.953125 21.734375 24.171875 
L 6.59375 42.71875 
Q 4.15625 45.703125 4.15625 49.65625 
Q 4.15625 51.375 4.640625 52.984375 
Q 6.15625 58.734375 11.234375 60.84375 
L 47.609375 75.984375 
L 47.609375 66.890625 
L 18.5625 54.6875 
Q 15.09375 53.21875 14.0625 51.265625 
Q 13.765625 50.734375 13.765625 49.515625 
Q 13.765625 47.953125 15.28125 46.140625 
L 28.71875 30.03125 
Q 33.6875 24.03125 33.6875 18.015625 
Q 33.6875 12.5 30.671875 7.5625 
Q 26.03125 0 15.140625 0 
z
" id="DejaVuSans-fb90"/>
    </defs>
    <g transform="translate(51.553533 177.10613)scale(0.1 -0.1)">
     <use xlink:href="#DejaVuSans-feae"/>
     <use x="55.175781" xlink:href="#DejaVuSans-fecc"/>
     <use x="103.417969" xlink:href="#DejaVuSans-feb7"/>
     <use x="187.207031" xlink:href="#DejaVuSans-5f"/>
     <use x="237.207031" xlink:href="#DejaVuSans-fbfd"/>
     <use x="320.556641" xlink:href="#DejaVuSans-feb3"/>
     <use x="404.345703" xlink:href="#DejaVuSans-fe8e"/>
     <use x="434.814453" xlink:href="#DejaVuSans-fee8"/>
     <use x="464.990234" xlink:href="#DejaVuSans-feb7"/>
     <use x="548.779297" xlink:href="#DejaVuSans-fead"/>
     <use x="597.070312" xlink:href="#DejaVuSans-fe8e"/>
     <use x="627.539062" xlink:href="#DejaVuSans-fb90"/>
    </g>
   </g>
   <g id="text_3">
    <!-- ﺎﻫ_ﻩﮊﻭﺮﭘ -->
    <defs>
     <path d="M 19.734375 13.140625 
Q 21.484375 14.453125 23.140625 17.578125 
Q 25.046875 21.09375 25.046875 24.078125 
Q 25.046875 26.3125 24.3125 28.125 
Q 23.25 30.671875 20.40625 30.671875 
Q 17.234375 30.671875 16.109375 28.46875 
Q 15.046875 26.375 15.046875 24.65625 
Q 15.046875 23.1875 15.375 21.390625 
Q 16.40625 15.625 19.734375 13.140625 
z
M 4.25 8.984375 
Q 6.78125 8.984375 10.59375 9.515625 
Q 8.40625 14.65625 7.671875 18.015625 
Q 6.78125 21.828125 6.78125 24.953125 
Q 6.78125 29.046875 8.984375 33.109375 
Q 11.328125 37.5 15.09375 37.0625 
Q 12.9375 38.96875 8.984375 39.65625 
L 8.984375 48.6875 
Q 19.875 45.359375 30.421875 36.625 
Q 42.921875 26.421875 46.046875 15.578125 
Q 46.734375 13.03125 46.734375 10.25 
Q 46.734375 5.21875 44.78125 2.25 
Q 41.15625 -3.265625 32.625 -3.265625 
Q 26.21875 -3.265625 18.703125 2 
Q 12.84375 0 5.71875 0 
L -0.984375 0 
L -0.984375 8.984375 
z
M 32.375 24.8125 
Q 32.671875 23 32.671875 21.09375 
Q 32.671875 13.921875 27.875 8.796875 
Q 27.296875 8.109375 26.46875 7.171875 
Q 29 4.9375 31.390625 4.9375 
Q 37.5 4.9375 38.328125 8.203125 
Q 38.671875 9.671875 38.671875 11.28125 
Q 38.671875 14.203125 37.0625 18.015625 
Q 35.640625 21.390625 32.375 24.8125 
z
" id="DejaVuSans-feeb"/>
     <path d="M 21.625 27.046875 
Q 18.40625 27.046875 16.796875 22.796875 
Q 15.53125 19.4375 15.578125 13.421875 
Q 15.625 9.421875 18.3125 7.28125 
Q 21.09375 5.125 23.875 5.125 
Q 28.328125 5.125 32.859375 7.90625 
Q 36.53125 10.15625 36.53125 14.3125 
Q 36.53125 18.0625 33.296875 21.234375 
Q 27.296875 27.09375 21.625 27.046875 
z
M 19.875 35.84375 
Q 29.546875 35.84375 38.421875 28.03125 
Q 45.3125 21.96875 45.3125 14.75 
Q 45.265625 4.984375 38.09375 1.3125 
Q 30.03125 -2.828125 23.578125 -2.828125 
Q 18.890625 -2.828125 14.9375 -1.125 
Q 6.78125 2.484375 6.78125 14.15625 
Q 6.78125 23 8.59375 26.8125 
Q 12.703125 35.84375 19.875 35.84375 
z
" id="DejaVuSans-fee9"/>
     <path d="M 30.515625 58.59375 
L 37.84375 58.59375 
L 37.84375 51.265625 
L 30.515625 51.265625 
z
M 36.625 46.390625 
L 43.953125 46.390625 
L 43.953125 39.0625 
L 36.625 39.0625 
z
M 24.421875 46.390625 
L 31.734375 46.390625 
L 31.734375 39.0625 
L 24.421875 39.0625 
z
M 32.953125 7.71875 
Q 33.453125 10.546875 33.453125 14.0625 
Q 33.453125 20.21875 30.859375 26.859375 
L 39.84375 26.859375 
Q 42.28125 21.09375 42.28125 14.65625 
Q 42.28125 10.640625 41.890625 7.625 
Q 39.65625 -9.46875 25.4375 -17.046875 
Q 11.578125 -24.421875 -4.15625 -24.421875 
L -4.15625 -15.4375 
Q 10.6875 -15.4375 20.609375 -9.1875 
Q 31.25 -2.4375 32.953125 7.71875 
z
" id="DejaVuSans-fb8a"/>
     <path d="M 24.125 22.078125 
Q 21.046875 22.078125 18.890625 19.28125 
Q 17.71875 17.671875 17.71875 15.921875 
Q 17.71875 13.421875 20.21875 11.140625 
Q 22.515625 8.984375 31.890625 8.984375 
Q 31.890625 17.96875 27.6875 20.84375 
Q 25.875 22.078125 24.125 22.078125 
z
M 40.625 8.984375 
Q 40.625 -6.0625 32.234375 -13.875 
Q 27.59375 -18.171875 23.046875 -20.21875 
Q 13.671875 -24.421875 -4.15625 -24.421875 
L -4.15625 -15.4375 
Q 13.375 -15.4375 19.921875 -11.71875 
Q 28.125 -7.078125 31.15625 0.140625 
Q 25.390625 0.140625 23.1875 0.640625 
Q 15.875 2.25 13.921875 3.90625 
Q 8.25 8.6875 8.25 15.375 
Q 8.25 22.265625 12.59375 26.515625 
Q 17.671875 31.546875 24.359375 31.546875 
Q 28.71875 31.546875 32.234375 29.046875 
Q 38.578125 24.65625 39.796875 17.671875 
Q 40.625 12.703125 40.625 8.984375 
z
" id="DejaVuSans-feed"/>
     <path d="M 14.59375 4.203125 
Q 11.078125 0 3.421875 0 
L -0.984375 0 
L -0.984375 8.984375 
L 0.734375 8.984375 
Q 5.5625 8.984375 7.71875 11.140625 
Q 10.109375 13.53125 10.109375 18.703125 
L 10.109375 29.296875 
L 19.09375 29.296875 
L 19.09375 18.703125 
Q 19.09375 9.578125 14.59375 4.203125 
z
M 10.9375 -17.09375 
L 18.265625 -17.09375 
L 18.265625 -24.40625 
L 10.9375 -24.40625 
z
M 17.046875 -4.875 
L 24.359375 -4.875 
L 24.359375 -12.203125 
L 17.046875 -12.203125 
z
M 4.828125 -4.875 
L 12.15625 -4.875 
L 12.15625 -12.203125 
L 4.828125 -12.203125 
z
" id="DejaVuSans-fb58"/>
    </defs>
    <g transform="translate(173.586446 291.259735)scale(0.1 -0.1)">
     <use xlink:href="#DejaVuSans-fe8e"/>
     <use x="30.46875" xlink:href="#DejaVuSans-feeb"/>
     <use x="83.203125" xlink:href="#DejaVuSans-5f"/>
     <use x="133.203125" xlink:href="#DejaVuSans-fee9"/>
     <use x="185.595703" xlink:href="#DejaVuSans-fb8a"/>
     <use x="233.886719" xlink:href="#DejaVuSans-feed"/>
     <use x="282.177734" xlink:href="#DejaVuSans-feae"/>
     <use x="337.353516" xlink:href="#DejaVuSans-fb58"/>
    </g>
   </g>
   <g id="text_4">
    <!-- ﻪﯾﺮﺸﻧ -->
    <defs>
     <path d="M 33.015625 13.765625 
Q 32.28125 15.828125 31.640625 18.21875 
Q 31 20.65625 30.421875 25.59375 
Q 24.5625 25 20.5625 21.734375 
Q 15.140625 17.390625 15.234375 14.359375 
Q 15.28125 12.359375 19.671875 11.125 
Q 24.078125 9.90625 33.015625 13.765625 
z
M 29.734375 32.625 
Q 29.546875 34.515625 29.390625 36.625 
L 38.375 36.625 
Q 38.421875 28.421875 40.1875 19.921875 
Q 41.21875 14.984375 43.953125 11.140625 
Q 45.453125 8.984375 50.921875 8.984375 
L 54.59375 8.984375 
L 54.59375 0 
L 48.25 0 
Q 43.84375 0 40.28125 2.484375 
Q 38.09375 4 36.234375 6.890625 
Q 29.5 3.328125 21.875 3.328125 
Q 19.140625 3.328125 16.3125 4.046875 
Q 7.078125 6.390625 7.078125 13.921875 
Q 7.078125 22.359375 17.046875 28.5625 
Q 22.359375 31.890625 29.734375 32.625 
z
" id="DejaVuSans-feea"/>
     <path d="M 62.359375 -0.984375 
Q 60.546875 -1.421875 58.84375 -1.421875 
Q 55.765625 -1.421875 53.078125 -0.203125 
Q 46.390625 2.78125 45.515625 9.234375 
Q 43.171875 1.609375 38.484375 0 
Q 35.15625 -1.171875 31.984375 -1.171875 
Q 27.203125 -1.171875 23.6875 1.21875 
Q 20.75 3.171875 18.75 6.734375 
Q 16.65625 3.859375 13.921875 2.25 
Q 10.203125 0 5.375 0 
L -0.984375 0 
L -0.984375 8.984375 
L 2.6875 8.984375 
Q 7.515625 8.984375 9.671875 11.140625 
Q 13.578125 15.046875 13.578125 19.921875 
L 13.578125 29.296875 
L 22.5625 29.296875 
L 22.5625 21.6875 
Q 22.5625 18.5625 24.703125 13.671875 
Q 26.8125 8.84375 31.890625 8.84375 
Q 37.203125 8.84375 39.359375 14.796875 
Q 41.15625 19.828125 41.15625 29.296875 
L 50.140625 29.296875 
Q 50.140625 19.28125 51.078125 16.84375 
Q 54.203125 8.546875 59.578125 8.59375 
Q 66.5 8.6875 66.5 22.265625 
L 66.5 36.625 
L 75.484375 36.625 
L 75.484375 19.921875 
Q 75.484375 15.1875 79.546875 11.140625 
Q 81.6875 8.984375 86.53125 8.984375 
L 90.1875 8.984375 
L 90.1875 0 
L 83.84375 0 
Q 76.765625 0 71 4.6875 
Q 67.671875 0.296875 62.359375 -0.984375 
z
M 37.84375 58.59375 
L 45.171875 58.59375 
L 45.171875 51.265625 
L 37.84375 51.265625 
z
M 43.953125 46.390625 
L 51.265625 46.390625 
L 51.265625 39.0625 
L 43.953125 39.0625 
z
M 31.734375 46.390625 
L 39.0625 46.390625 
L 39.0625 39.0625 
L 31.734375 39.0625 
z
" id="DejaVuSans-feb8"/>
    </defs>
    <g transform="translate(341.653805 227.727992)scale(0.1 -0.1)">
     <use xlink:href="#DejaVuSans-feea"/>
     <use x="53.613281" xlink:href="#DejaVuSans-fbfe"/>
     <use x="81.445312" xlink:href="#DejaVuSans-feae"/>
     <use x="136.621094" xlink:href="#DejaVuSans-feb8"/>
     <use x="225.830078" xlink:href="#DejaVuSans-fee7"/>
    </g>
   </g>
  </g>
 </g>
</svg>
