<?xml version="1.0" encoding="utf-8" standalone="no"?>
<!DOCTYPE svg PUBLIC "-//W3C//DTD SVG 1.1//EN"
  "http://www.w3.org/Graphics/SVG/1.1/DTD/svg11.dtd">
<!-- Created with matplotlib (http://matplotlib.org/) -->
<svg height="345.6pt" version="1.1" viewBox="0 0 460.8 345.6" width="460.8pt" xmlns="http://www.w3.org/2000/svg" xmlns:xlink="http://www.w3.org/1999/xlink">
 <defs>
  <style type="text/css">
*{stroke-linecap:butt;stroke-linejoin:round;}
  </style>
 </defs>
 <g id="figure_1">
  <g id="patch_1">
   <path d="M 0 345.6 
L 460.8 345.6 
L 460.8 0 
L 0 0 
z
" style="fill:#ffffff;"/>
  </g>
  <g id="axes_1">
   <g id="patch_2">
    <path d="M 57.6 307.584 
L 414.72 307.584 
L 414.72 41.472 
L 57.6 41.472 
z
" style="fill:#ffffff;"/>
   </g>
   <g id="matplotlib.axis_1">
    <g id="xtick_1">
     <g id="line2d_1">
      <defs>
       <path d="M 0 0 
L 0 3.5 
" id="mdc7c4d31e4" style="stroke:#000000;stroke-width:0.8;"/>
      </defs>
      <g>
       <use style="stroke:#000000;stroke-width:0.8;" x="73.832727" xlink:href="#mdc7c4d31e4" y="307.584"/>
      </g>
     </g>
     <g id="text_1">
      <!-- ﻦﯾﺩﺭﻭﺮﻓ -->
      <defs>
       <path d="M 60.9375 28.375 
Q 63.09375 23.640625 64.40625 18.953125 
Q 65.484375 15.046875 67.921875 12.109375 
Q 70.515625 8.984375 73.4375 8.984375 
L 77.09375 8.984375 
L 77.09375 0 
L 70.75 0 
Q 67.28125 0 65.625 2.34375 
Q 65.484375 -2.984375 61.140625 -10.15625 
Q 55.28125 -19.875 43.609375 -23.09375 
Q 38.875 -24.421875 34.375 -24.421875 
Q 28.71875 -24.421875 23.1875 -22.609375 
Q 7.171875 -17.390625 7.171875 -0.046875 
Q 7.171875 8.5 9.46875 15.375 
L 18.453125 15.375 
Q 16.0625 8.6875 16.0625 -0.046875 
Q 16.0625 -11.578125 25.875 -14.15625 
Q 30.28125 -15.328125 33.984375 -15.328125 
Q 38.28125 -15.328125 42.140625 -14.359375 
Q 51.609375 -12.015625 55.28125 -0.921875 
Q 56.890625 4 56.890625 9.46875 
Q 56.890625 18.453125 51.953125 28.375 
z
M 28.078125 34.1875 
L 35.40625 34.1875 
L 35.40625 26.859375 
L 28.078125 26.859375 
z
" id="DejaVuSans-fee6"/>
       <path d="M 14.59375 4.203125 
Q 11.078125 0 3.421875 0 
L -0.984375 0 
L -0.984375 8.984375 
L 0.734375 8.984375 
Q 5.5625 8.984375 7.71875 11.140625 
Q 10.109375 13.53125 10.109375 18.703125 
L 10.109375 29.296875 
L 19.09375 29.296875 
L 19.09375 18.703125 
Q 19.09375 9.578125 14.59375 4.203125 
z
M 17.046875 -7.328125 
L 24.359375 -7.328125 
L 24.359375 -14.65625 
L 17.046875 -14.65625 
z
M 4.828125 -7.328125 
L 12.15625 -7.328125 
L 12.15625 -14.65625 
L 4.828125 -14.65625 
z
" id="DejaVuSans-fbfe"/>
       <path d="M 19.09375 7.375 
Q 27.484375 9.765625 29.203125 15.234375 
Q 29.59375 16.546875 29.59375 18.609375 
Q 29.59375 22.40625 26.65625 28.078125 
Q 23.4375 34.375 14.984375 41.5 
L 26.078125 41.5 
Q 31.59375 37.0625 34.8125 31 
Q 38.8125 23.578125 38.8125 18.453125 
Q 38.8125 13.625 37.25 9.96875 
Q 33.34375 0.484375 20.5625 -1.515625 
Q 18.3125 -1.859375 16.109375 -1.859375 
Q 11.140625 -1.859375 6.109375 0 
L 6.109375 8.984375 
Q 11.71875 6.9375 15.828125 6.9375 
Q 17.4375 6.9375 19.09375 7.375 
z
" id="DejaVuSans-fea9"/>
       <path d="M 32.953125 7.71875 
Q 33.453125 10.546875 33.453125 14.0625 
Q 33.453125 20.21875 30.859375 26.859375 
L 39.84375 26.859375 
Q 42.28125 21.09375 42.28125 14.65625 
Q 42.28125 10.640625 41.890625 7.625 
Q 39.65625 -9.46875 25.4375 -17.046875 
Q 11.578125 -24.421875 -4.15625 -24.421875 
L -4.15625 -15.4375 
Q 10.6875 -15.4375 20.609375 -9.1875 
Q 31.25 -2.4375 32.953125 7.71875 
z
" id="DejaVuSans-fead"/>
       <path d="M 24.125 22.078125 
Q 21.046875 22.078125 18.890625 19.28125 
Q 17.71875 17.671875 17.71875 15.921875 
Q 17.71875 13.421875 20.21875 11.140625 
Q 22.515625 8.984375 31.890625 8.984375 
Q 31.890625 17.96875 27.6875 20.84375 
Q 25.875 22.078125 24.125 22.078125 
z
M 40.625 8.984375 
Q 40.625 -6.0625 32.234375 -13.875 
Q 27.59375 -18.171875 23.046875 -20.21875 
Q 13.671875 -24.421875 -4.15625 -24.421875 
L -4.15625 -15.4375 
Q 13.375 -15.4375 19.921875 -11.71875 
Q 28.125 -7.078125 31.15625 0.140625 
Q 25.390625 0.140625 23.1875 0.640625 
Q 15.875 2.25 13.921875 3.90625 
Q 8.25 8.6875 8.25 15.375 
Q 8.25 22.265625 12.59375 26.515625 
Q 17.671875 31.546875 24.359375 31.546875 
Q 28.71875 31.546875 32.234375 29.046875 
Q 38.578125 24.65625 39.796875 17.671875 
Q 40.625 12.703125 40.625 8.984375 
z
" id="DejaVuSans-feed"/>
       <path d="M 30.859375 26.859375 
L 39.84375 26.859375 
Q 41.3125 21.390625 41.453125 19.921875 
Q 41.9375 14.890625 45.515625 11.140625 
Q 47.5625 8.984375 52.484375 8.984375 
L 56.15625 8.984375 
L 56.15625 0 
L 49.8125 0 
Q 43.453125 0 41.015625 3.03125 
Q 37.703125 -10.546875 25.4375 -17.046875 
Q 11.578125 -24.421875 -4.15625 -24.421875 
L -4.15625 -15.4375 
Q 10.6875 -15.4375 20.609375 -9.1875 
Q 31.25 -2.4375 32.953125 7.71875 
Q 33.453125 10.546875 33.453125 14.0625 
Q 33.453125 20.21875 30.859375 26.859375 
z
" id="DejaVuSans-feae"/>
       <path d="M 29.203125 26.21875 
Q 31.203125 28.328125 31.203125 32.078125 
Q 31.203125 34.96875 27.984375 37.453125 
Q 26.46875 38.671875 24.3125 38.625 
Q 21.78125 38.578125 19.828125 36.53125 
Q 17.875 34.515625 17.828125 32.03125 
Q 17.828125 28.125 20.515625 26.265625 
Q 22.46875 25.046875 24.515625 25.046875 
Q 28.03125 25.046875 29.203125 26.21875 
z
M -0.984375 8.984375 
L 10.796875 8.984375 
Q 14.890625 8.984375 22.265625 10.109375 
Q 26.125 10.6875 29.046875 15.234375 
Q 30.5625 17.578125 31.296875 20.015625 
Q 28.21875 17.328125 23.484375 17.234375 
Q 17.140625 17.140625 13.328125 20.515625 
Q 8.546875 24.75 8.546875 31.0625 
Q 8.546875 33.59375 8.9375 35.75 
Q 10.0625 42.96875 17.390625 46.34375 
Q 21.1875 48.09375 24.90625 48.09375 
Q 29.296875 48.09375 32.515625 45.65625 
Q 37.203125 42.140625 39.453125 37.15625 
Q 40.578125 34.671875 40.578125 27.828125 
Q 40.578125 17.671875 36.765625 10.6875 
Q 33.15625 4.046875 27.09375 1.90625 
Q 21.78125 0 14.703125 0 
L -0.984375 0 
z
M 20.75 63.484375 
L 28.078125 63.484375 
L 28.078125 56.15625 
L 20.75 56.15625 
z
" id="DejaVuSans-fed3"/>
      </defs>
      <g transform="translate(56.430384 321.819937)scale(0.1 -0.1)">
       <use xlink:href="#DejaVuSans-fee6"/>
       <use x="76.123047" xlink:href="#DejaVuSans-fbfe"/>
       <use x="103.955078" xlink:href="#DejaVuSans-fea9"/>
       <use x="148.486328" xlink:href="#DejaVuSans-fead"/>
       <use x="196.777344" xlink:href="#DejaVuSans-feed"/>
       <use x="245.068359" xlink:href="#DejaVuSans-feae"/>
       <use x="300.244141" xlink:href="#DejaVuSans-fed3"/>
      </g>
     </g>
    </g>
    <g id="xtick_2">
     <g id="line2d_2">
      <g>
       <use style="stroke:#000000;stroke-width:0.8;" x="103.346777" xlink:href="#mdc7c4d31e4" y="307.584"/>
      </g>
     </g>
     <g id="text_2">
      <!-- ﺖﺸﻬﺒﯾﺩﺭﺍ -->
      <defs>
       <path d="M 86.671875 24.609375 
Q 86.671875 14.453125 90.09375 11.578125 
Q 93.171875 8.984375 96.234375 8.984375 
L 99.171875 8.984375 
L 99.171875 0 
L 94.1875 0 
Q 88.53125 0 85.0625 3.5625 
Q 81.15625 7.625 79.984375 10.84375 
Q 72.40625 4.4375 61.03125 1.859375 
Q 48.390625 -0.984375 38.09375 -0.984375 
Q 28.515625 -0.984375 22.46875 0.875 
Q 6.390625 5.8125 6.34375 18.703125 
Q 6.296875 25.4375 9.421875 29.9375 
L 18.40625 29.9375 
Q 15.234375 25.34375 15.234375 18.703125 
Q 15.234375 12.59375 25.140625 9.328125 
Q 30.21875 7.671875 37.59375 7.671875 
Q 50.296875 7.765625 59.578125 10.453125 
Q 69.28125 13.28125 75.296875 18.609375 
Q 78.171875 21.140625 78.171875 26.953125 
Q 78.171875 29.984375 76.765625 32.671875 
L 85.75 32.671875 
Q 86.671875 29 86.671875 24.609375 
z
M 46.390625 39.0625 
L 53.71875 39.0625 
L 53.71875 31.734375 
L 46.390625 31.734375 
z
M 34.1875 39.0625 
L 41.5 39.0625 
L 41.5 31.734375 
L 34.1875 31.734375 
z
" id="DejaVuSans-fe96"/>
       <path d="M 62.359375 -0.984375 
Q 60.546875 -1.421875 58.84375 -1.421875 
Q 55.765625 -1.421875 53.078125 -0.203125 
Q 46.390625 2.78125 45.515625 9.234375 
Q 43.171875 1.609375 38.484375 0 
Q 35.15625 -1.171875 31.984375 -1.171875 
Q 27.203125 -1.171875 23.6875 1.21875 
Q 20.75 3.171875 18.75 6.734375 
Q 16.65625 3.859375 13.921875 2.25 
Q 10.203125 0 5.375 0 
L -0.984375 0 
L -0.984375 8.984375 
L 2.6875 8.984375 
Q 7.515625 8.984375 9.671875 11.140625 
Q 13.578125 15.046875 13.578125 19.921875 
L 13.578125 29.296875 
L 22.5625 29.296875 
L 22.5625 21.6875 
Q 22.5625 18.5625 24.703125 13.671875 
Q 26.8125 8.84375 31.890625 8.84375 
Q 37.203125 8.84375 39.359375 14.796875 
Q 41.15625 19.828125 41.15625 29.296875 
L 50.140625 29.296875 
Q 50.140625 19.28125 51.078125 16.84375 
Q 54.203125 8.546875 59.578125 8.59375 
Q 66.5 8.6875 66.5 22.265625 
L 66.5 36.625 
L 75.484375 36.625 
L 75.484375 19.921875 
Q 75.484375 15.1875 79.546875 11.140625 
Q 81.6875 8.984375 86.53125 8.984375 
L 90.1875 8.984375 
L 90.1875 0 
L 83.84375 0 
Q 76.765625 0 71 4.6875 
Q 67.671875 0.296875 62.359375 -0.984375 
z
M 37.84375 58.59375 
L 45.171875 58.59375 
L 45.171875 51.265625 
L 37.84375 51.265625 
z
M 43.953125 46.390625 
L 51.265625 46.390625 
L 51.265625 39.0625 
L 43.953125 39.0625 
z
M 31.734375 46.390625 
L 39.0625 46.390625 
L 39.0625 39.0625 
L 31.734375 39.0625 
z
" id="DejaVuSans-feb8"/>
       <path d="M 16.546875 8.984375 
L 17.484375 8.984375 
Q 19.53125 8.984375 24.21875 12.703125 
Q 29.78125 17.09375 29.78125 19.625 
Q 29.78125 25.09375 25.6875 25.09375 
Q 22.015625 25.09375 18.40625 18.21875 
Q 16.546875 14.703125 16.546875 8.984375 
z
M 7.5625 8.984375 
Q 8.015625 21.96875 14.3125 28.125 
Q 19.578125 33.34375 25.875 33.34375 
Q 32.625 33.34375 35.984375 28.515625 
Q 38.234375 25.25 38.234375 19.671875 
Q 38.234375 14.265625 30.28125 8.984375 
L 47.078125 8.984375 
L 47.078125 0 
L 30.28125 0 
Q 38.234375 -5.28125 38.234375 -10.6875 
Q 38.234375 -16.265625 35.984375 -19.53125 
Q 32.625 -24.359375 25.875 -24.359375 
Q 19.578125 -24.359375 14.3125 -19.140625 
Q 8.015625 -12.890625 7.5625 0 
L -0.984375 0 
L -0.984375 8.984375 
z
M 16.546875 0 
Q 16.546875 -5.71875 18.40625 -9.234375 
Q 22.015625 -16.109375 25.6875 -16.109375 
Q 29.78125 -16.109375 29.78125 -10.640625 
Q 29.78125 -8.109375 24.21875 -3.71875 
Q 19.53125 0 17.484375 0 
z
" id="DejaVuSans-feec"/>
       <path d="M 14.59375 4.203125 
Q 10.84375 0 3.421875 0 
L -0.984375 0 
L -0.984375 8.984375 
L 0.734375 8.984375 
Q 5.5625 8.984375 7.71875 11.140625 
Q 10.109375 13.53125 10.109375 18.703125 
L 10.109375 29.296875 
L 19.09375 29.296875 
L 19.09375 18.703125 
Q 19.09375 13.53125 21.484375 11.140625 
Q 23.640625 8.984375 28.46875 8.984375 
L 31.15625 8.984375 
L 31.15625 0 
L 25.78125 0 
Q 18.453125 0 14.59375 4.203125 
z
M 10.9375 -7.328125 
L 18.265625 -7.328125 
L 18.265625 -14.65625 
L 10.9375 -14.65625 
z
" id="DejaVuSans-fe92"/>
       <path d="M 9.421875 75.984375 
L 18.40625 75.984375 
L 18.40625 0 
L 9.421875 0 
z
" id="DejaVuSans-fe8d"/>
      </defs>
      <g transform="translate(82.742089 322.182437)scale(0.1 -0.1)">
       <use xlink:href="#DejaVuSans-fe96"/>
       <use x="98.193359" xlink:href="#DejaVuSans-feb8"/>
       <use x="187.402344" xlink:href="#DejaVuSans-feec"/>
       <use x="233.496094" xlink:href="#DejaVuSans-fe92"/>
       <use x="263.671875" xlink:href="#DejaVuSans-fbfe"/>
       <use x="291.503906" xlink:href="#DejaVuSans-fea9"/>
       <use x="336.035156" xlink:href="#DejaVuSans-fead"/>
       <use x="384.326172" xlink:href="#DejaVuSans-fe8d"/>
      </g>
     </g>
    </g>
    <g id="xtick_3">
     <g id="line2d_3">
      <g>
       <use style="stroke:#000000;stroke-width:0.8;" x="132.860826" xlink:href="#mdc7c4d31e4" y="307.584"/>
      </g>
     </g>
     <g id="text_3">
      <!-- ﺩﺍﺩﺮﺧ -->
      <defs>
       <path d="M 41.546875 26.421875 
Q 37.5 27.546875 32.46875 28.65625 
Q 28.328125 29.59375 19.53125 30.375 
Q 15.53125 30.71875 7.671875 30.421875 
L 7.671875 39.40625 
Q 11.1875 39.75 14.84375 39.796875 
Q 22.75 39.796875 31.15625 38.09375 
Q 43.75 35.546875 54.5 30.765625 
L 54.5 23.25 
Q 50.78125 22.078125 46.484375 19.53125 
Q 38.375 14.75 34.765625 11.53125 
Q 27.6875 5.21875 24.03125 3.90625 
Q 13.234375 0 5.28125 0 
L -0.984375 0 
L -0.984375 8.984375 
L 3.90625 8.984375 
Q 14.984375 8.984375 21.296875 12.5 
Q 26.375 15.328125 32.03125 20.515625 
Q 36.625 24.703125 41.546875 26.421875 
z
M 25.640625 53.71875 
L 32.953125 53.71875 
L 32.953125 46.390625 
L 25.640625 46.390625 
z
" id="DejaVuSans-fea7"/>
      </defs>
      <g transform="translate(121.16942 322.182437)scale(0.1 -0.1)">
       <use xlink:href="#DejaVuSans-fea9"/>
       <use x="44.53125" xlink:href="#DejaVuSans-fe8d"/>
       <use x="72.314453" xlink:href="#DejaVuSans-fea9"/>
       <use x="116.845703" xlink:href="#DejaVuSans-feae"/>
       <use x="172.021484" xlink:href="#DejaVuSans-fea7"/>
      </g>
     </g>
    </g>
    <g id="xtick_4">
     <g id="line2d_4">
      <g>
       <use style="stroke:#000000;stroke-width:0.8;" x="162.374876" xlink:href="#mdc7c4d31e4" y="307.584"/>
      </g>
     </g>
     <g id="text_4">
      <!-- ﺮﯿﺗ -->
      <defs>
       <path d="M 14.59375 4.203125 
Q 10.84375 0 3.421875 0 
L -0.984375 0 
L -0.984375 8.984375 
L 0.734375 8.984375 
Q 5.5625 8.984375 7.71875 11.140625 
Q 10.109375 13.53125 10.109375 18.703125 
L 10.109375 29.296875 
L 19.09375 29.296875 
L 19.09375 18.703125 
Q 19.09375 13.53125 21.484375 11.140625 
Q 23.640625 8.984375 28.46875 8.984375 
L 31.15625 8.984375 
L 31.15625 0 
L 25.78125 0 
Q 18.453125 0 14.59375 4.203125 
z
M 17.046875 -7.328125 
L 24.359375 -7.328125 
L 24.359375 -14.65625 
L 17.046875 -14.65625 
z
M 4.828125 -7.328125 
L 12.15625 -7.328125 
L 12.15625 -14.65625 
L 4.828125 -14.65625 
z
" id="DejaVuSans-fbff"/>
       <path d="M 14.59375 4.203125 
Q 11.078125 0 3.421875 0 
L -0.984375 0 
L -0.984375 8.984375 
L 0.734375 8.984375 
Q 5.5625 8.984375 7.71875 11.140625 
Q 10.109375 13.53125 10.109375 18.703125 
L 10.109375 29.296875 
L 19.09375 29.296875 
L 19.09375 18.703125 
Q 19.09375 9.578125 14.59375 4.203125 
z
M 17.046875 48.828125 
L 24.359375 48.828125 
L 24.359375 41.5 
L 17.046875 41.5 
z
M 4.828125 48.828125 
L 12.15625 48.828125 
L 12.15625 41.5 
L 4.828125 41.5 
z
" id="DejaVuSans-fe97"/>
      </defs>
      <g transform="translate(156.716282 321.819937)scale(0.1 -0.1)">
       <use xlink:href="#DejaVuSans-feae"/>
       <use x="55.175781" xlink:href="#DejaVuSans-fbff"/>
       <use x="85.351562" xlink:href="#DejaVuSans-fe97"/>
      </g>
     </g>
    </g>
    <g id="xtick_5">
     <g id="line2d_5">
      <g>
       <use style="stroke:#000000;stroke-width:0.8;" x="191.888926" xlink:href="#mdc7c4d31e4" y="307.584"/>
      </g>
     </g>
     <g id="text_5">
      <!-- ﺩﺍﺩﺮﻣ -->
      <defs>
       <path d="M 42.390625 2.546875 
Q 37.640625 -2.4375 30.46875 -2.4375 
Q 20.40625 -2.4375 15.046875 2.34375 
Q 11.921875 0 6.84375 0 
L -0.984375 0 
L -0.984375 8.984375 
L 4.6875 8.984375 
Q 7.234375 8.984375 9.34375 10.71875 
Q 11.46875 12.453125 11.71875 14.84375 
Q 12.703125 23.6875 19.28125 27.59375 
Q 23.875 30.328125 27.828125 30.328125 
Q 36.421875 30.328125 40.875 26.21875 
Q 45.609375 21.875 45.609375 12.890625 
Q 45.609375 5.90625 42.390625 2.546875 
z
M 19.828125 9.71875 
Q 22.859375 6.34375 30.609375 6.34375 
Q 32.90625 6.34375 33.84375 7.234375 
Q 36.375 9.8125 36.375 13.1875 
Q 36.375 16.84375 34.421875 18.703125 
Q 32.375 20.703125 28.078125 20.703125 
Q 25.828125 20.703125 23.609375 19.234375 
Q 21.390625 17.78125 20.65625 13.03125 
Q 20.3125 11.234375 19.828125 9.71875 
z
" id="DejaVuSans-fee3"/>
      </defs>
      <g transform="translate(180.610019 322.182437)scale(0.1 -0.1)">
       <use xlink:href="#DejaVuSans-fea9"/>
       <use x="44.53125" xlink:href="#DejaVuSans-fe8d"/>
       <use x="72.314453" xlink:href="#DejaVuSans-fea9"/>
       <use x="116.845703" xlink:href="#DejaVuSans-feae"/>
       <use x="172.021484" xlink:href="#DejaVuSans-fee3"/>
      </g>
     </g>
    </g>
    <g id="xtick_6">
     <g id="line2d_6">
      <g>
       <use style="stroke:#000000;stroke-width:0.8;" x="221.402975" xlink:href="#mdc7c4d31e4" y="307.584"/>
      </g>
     </g>
     <g id="text_6">
      <!-- ﺭﻮﯾﺮﻬﺷ -->
      <defs>
       <path d="M 31.890625 8.984375 
Q 31.890625 12.703125 31.109375 15.484375 
Q 29.9375 19.390625 27.6875 20.84375 
Q 24.75 22.859375 21.828125 21.578125 
Q 18.5625 20.171875 17.921875 17.4375 
Q 17.09375 13.765625 20.21875 11.140625 
Q 22.515625 9.1875 31.890625 8.984375 
z
M 40.625 8.984375 
L 52.640625 8.984375 
L 52.640625 0 
L 43.171875 0 
L 39.75 0.046875 
Q 38.53125 -7.5625 32.234375 -13.875 
Q 28.171875 -17.921875 23.046875 -20.21875 
Q 13.671875 -24.421875 -4.15625 -24.421875 
L -4.15625 -15.4375 
Q 13.484375 -15.4375 19.921875 -11.71875 
Q 28.125 -7.078125 31.15625 0.140625 
Q 25.390625 0.296875 23.1875 0.640625 
Q 16.40625 1.8125 13.921875 3.90625 
Q 8.734375 8.25 8.25 14.84375 
Q 8.15625 16.359375 8.640625 19.140625 
Q 9.96875 26.703125 18.5625 30.375 
Q 21.4375 31.59375 24.609375 31.546875 
Q 28.859375 31.453125 32.234375 29.046875 
Q 38.71875 24.5625 39.796875 17.671875 
Q 40.4375 13.625 40.625 8.984375 
z
" id="DejaVuSans-feee"/>
       <path d="M 18.75 6.734375 
Q 16.65625 3.859375 13.921875 2.25 
Q 10.203125 0 5.375 0 
L -0.984375 0 
L -0.984375 8.984375 
L 2.6875 8.984375 
Q 7.515625 8.984375 9.671875 11.140625 
Q 13.578125 15.046875 13.578125 19.921875 
L 13.578125 29.296875 
L 22.5625 29.296875 
L 22.5625 21.6875 
Q 22.5625 18.5625 24.703125 13.671875 
Q 26.8125 8.84375 31.890625 8.84375 
Q 37.203125 8.84375 39.359375 14.796875 
Q 41.15625 19.828125 41.15625 29.296875 
L 50.140625 29.296875 
Q 50.140625 19.28125 51.078125 16.84375 
Q 54.203125 8.546875 59.578125 8.59375 
Q 66.5 8.6875 66.5 22.265625 
L 66.5 36.625 
L 75.484375 36.625 
L 75.484375 19.921875 
Q 75.484375 10.203125 71 4.6875 
Q 67.328125 0.203125 62.359375 -0.984375 
Q 60.546875 -1.421875 58.84375 -1.421875 
Q 55.765625 -1.421875 53.078125 -0.203125 
Q 46.390625 2.78125 45.515625 9.234375 
Q 43.171875 1.609375 38.484375 0 
Q 35.15625 -1.171875 31.984375 -1.171875 
Q 27.203125 -1.171875 23.6875 1.21875 
Q 20.75 3.171875 18.75 6.734375 
z
M 37.84375 58.59375 
L 45.171875 58.59375 
L 45.171875 51.265625 
L 37.84375 51.265625 
z
M 43.953125 46.390625 
L 51.265625 46.390625 
L 51.265625 39.0625 
L 43.953125 39.0625 
z
M 31.734375 46.390625 
L 39.0625 46.390625 
L 39.0625 39.0625 
L 31.734375 39.0625 
z
" id="DejaVuSans-feb7"/>
      </defs>
      <g transform="translate(205.760788 321.819937)scale(0.1 -0.1)">
       <use xlink:href="#DejaVuSans-fead"/>
       <use x="48.291016" xlink:href="#DejaVuSans-feee"/>
       <use x="99.951172" xlink:href="#DejaVuSans-fbfe"/>
       <use x="127.783203" xlink:href="#DejaVuSans-feae"/>
       <use x="182.958984" xlink:href="#DejaVuSans-feec"/>
       <use x="229.052734" xlink:href="#DejaVuSans-feb7"/>
      </g>
     </g>
    </g>
    <g id="xtick_7">
     <g id="line2d_7">
      <g>
       <use style="stroke:#000000;stroke-width:0.8;" x="250.917025" xlink:href="#mdc7c4d31e4" y="307.584"/>
      </g>
     </g>
     <g id="text_7">
      <!-- ﺮﻬﻣ -->
      <g transform="translate(243.175619 321.819937)scale(0.1 -0.1)">
       <use xlink:href="#DejaVuSans-feae"/>
       <use x="55.175781" xlink:href="#DejaVuSans-feec"/>
       <use x="101.269531" xlink:href="#DejaVuSans-fee3"/>
      </g>
     </g>
    </g>
    <g id="xtick_8">
     <g id="line2d_8">
      <g>
       <use style="stroke:#000000;stroke-width:0.8;" x="280.431074" xlink:href="#mdc7c4d31e4" y="307.584"/>
      </g>
     </g>
     <g id="text_8">
      <!-- ﻥﺎﺑﺁ -->
      <defs>
       <path d="M 28.078125 46.390625 
L 35.40625 46.390625 
L 35.40625 39.0625 
L 28.078125 39.0625 
z
M 66.015625 15.234375 
Q 66.015625 6.78125 61.140625 -1.90625 
Q 55.765625 -11.53125 43.609375 -14.84375 
Q 38.875 -16.15625 34.96875 -16.15625 
Q 28.515625 -16.15625 23.1875 -14.359375 
Q 7.171875 -9.1875 7.171875 8.203125 
Q 7.171875 19.671875 9.46875 23.640625 
L 18.453125 23.640625 
Q 16.0625 16.609375 16.0625 8.203125 
Q 16.0625 -3.375 25.875 -5.90625 
Q 30.421875 -7.078125 34.96875 -7.078125 
Q 38.671875 -7.078125 42.140625 -6.109375 
Q 51.5625 -3.515625 55.28125 7.328125 
Q 56.9375 12.109375 56.9375 16.796875 
Q 56.9375 25.78125 51.953125 36.625 
L 60.9375 36.625 
Q 66.015625 29 66.015625 15.234375 
z
" id="DejaVuSans-fee5"/>
       <path d="M 9.421875 18.109375 
L 9.421875 75.984375 
L 18.40625 75.984375 
L 18.40625 18.703125 
Q 18.40625 13.53125 20.796875 11.140625 
Q 22.953125 8.984375 27.78125 8.984375 
L 31.453125 8.984375 
L 31.453125 0 
L 25.09375 0 
Q 17.578125 0 13.671875 4.5 
Q 9.421875 9.421875 9.421875 18.109375 
z
" id="DejaVuSans-fe8e"/>
       <path d="M 14.59375 4.203125 
Q 11.078125 0 3.421875 0 
L -0.984375 0 
L -0.984375 8.984375 
L 0.734375 8.984375 
Q 5.5625 8.984375 7.71875 11.140625 
Q 10.109375 13.53125 10.109375 18.703125 
L 10.109375 29.296875 
L 19.09375 29.296875 
L 19.09375 18.703125 
Q 19.09375 9.578125 14.59375 4.203125 
z
M 10.9375 -7.328125 
L 18.265625 -7.328125 
L 18.265625 -14.65625 
L 10.9375 -14.65625 
z
" id="DejaVuSans-fe91"/>
       <path d="M -3.65625 87.109375 
L 4.15625 93.109375 
Q 9.1875 89.0625 12.453125 88.03125 
Q 14.5 87.40625 17.140625 87.40625 
Q 19.96875 87.40625 21.96875 88.1875 
Q 27.203125 90.1875 31.5 93.890625 
L 31.5 87.796875 
Q 27.09375 84.671875 22.703125 83.25 
Q 19.4375 82.171875 16.84375 82.171875 
Q 15.1875 82.171875 11.46875 83 
Q 7.71875 83.828125 4.390625 87.25 
L -3.65625 81 
z
M 9.421875 75.984375 
L 18.40625 75.984375 
L 18.40625 0 
L 9.421875 0 
z
" id="DejaVuSans-fe81"/>
      </defs>
      <g transform="translate(272.455293 323.509)scale(0.1 -0.1)">
       <use xlink:href="#DejaVuSans-fee5"/>
       <use x="73.4375" xlink:href="#DejaVuSans-fe8e"/>
       <use x="103.90625" xlink:href="#DejaVuSans-fe91"/>
       <use x="131.738281" xlink:href="#DejaVuSans-fe81"/>
      </g>
     </g>
    </g>
    <g id="xtick_9">
     <g id="line2d_9">
      <g>
       <use style="stroke:#000000;stroke-width:0.8;" x="309.945124" xlink:href="#mdc7c4d31e4" y="307.584"/>
      </g>
     </g>
     <g id="text_9">
      <!-- ﺭﺫﺁ -->
      <defs>
       <path d="M 15.875 58.59375 
L 23.1875 58.59375 
L 23.1875 51.265625 
L 15.875 51.265625 
z
M 19.09375 7.375 
Q 27.484375 9.765625 29.203125 15.234375 
Q 29.59375 16.546875 29.59375 18.609375 
Q 29.59375 22.40625 26.65625 28.078125 
Q 23.4375 34.375 14.984375 41.5 
L 26.078125 41.5 
Q 31.59375 37.0625 34.8125 31 
Q 38.8125 23.578125 38.8125 18.453125 
Q 38.8125 13.625 37.25 9.96875 
Q 33.34375 0.484375 20.5625 -1.515625 
Q 18.3125 -1.859375 16.109375 -1.859375 
Q 11.140625 -1.859375 6.109375 0 
L 6.109375 8.984375 
Q 11.71875 6.9375 15.828125 6.9375 
Q 17.4375 6.9375 19.09375 7.375 
z
" id="DejaVuSans-feab"/>
      </defs>
      <g transform="translate(303.914655 323.973062)scale(0.1 -0.1)">
       <use xlink:href="#DejaVuSans-fead"/>
       <use x="48.291016" xlink:href="#DejaVuSans-feab"/>
       <use x="92.822266" xlink:href="#DejaVuSans-fe81"/>
      </g>
     </g>
    </g>
    <g id="xtick_10">
     <g id="line2d_10">
      <g>
       <use style="stroke:#000000;stroke-width:0.8;" x="339.459174" xlink:href="#mdc7c4d31e4" y="307.584"/>
      </g>
     </g>
     <g id="text_10">
      <!-- ﯼﺩ -->
      <defs>
       <path d="M 66.703125 0.59375 
Q 61.71875 -7.71875 44.96875 -11.28125 
Q 36.328125 -13.140625 30.46875 -13.140625 
Q 24.171875 -13.140625 20.65625 -11.859375 
Q 6.34375 -6.78125 6.34375 5.953125 
Q 6.34375 11.671875 9.421875 17.1875 
L 18.40625 17.1875 
Q 15.1875 10.796875 15.234375 5.953125 
Q 15.328125 -1.21875 23.34375 -3.421875 
Q 28.078125 -4.6875 31.0625 -4.390625 
Q 37.203125 -3.859375 43.5 -2.6875 
Q 52.15625 -1.078125 56.25 2.828125 
Q 59.125 5.5625 59.125 8.15625 
Q 59.125 11.765625 52.984375 13.1875 
Q 49.75 13.921875 44.1875 16.15625 
Q 40.921875 17.484375 38.09375 19.96875 
Q 34.96875 22.75 34.90625 28.375 
Q 34.90625 35.6875 44.1875 39.3125 
Q 48.828125 41.109375 53.90625 41.109375 
Q 58.984375 41.109375 63.671875 39.0625 
Q 70.5625 36.078125 71.875 27.640625 
L 62.890625 27.640625 
Q 62.25 30.609375 59.03125 32.234375 
Q 57.078125 33.203125 53.71875 33.296875 
Q 49.90625 33.40625 46.875 31.5 
Q 43.953125 29.640625 43.953125 27.984375 
Q 43.953125 25.296875 50.046875 23.25 
Q 62.15625 19.1875 64.9375 16.0625 
Q 68.703125 11.921875 68.796875 7.5625 
Q 68.84375 4.25 66.703125 0.59375 
z
" id="DejaVuSans-fbfc"/>
      </defs>
      <g transform="translate(333.31933 322.182437)scale(0.1 -0.1)">
       <use xlink:href="#DejaVuSans-fbfc"/>
       <use x="78.271484" xlink:href="#DejaVuSans-fea9"/>
      </g>
     </g>
    </g>
    <g id="xtick_11">
     <g id="line2d_11">
      <g>
       <use style="stroke:#000000;stroke-width:0.8;" x="368.973223" xlink:href="#mdc7c4d31e4" y="307.584"/>
      </g>
     </g>
     <g id="text_11">
      <!-- ﻦﻤﻬﺑ -->
      <defs>
       <path d="M 42.390625 2.546875 
Q 37.640625 -2.4375 30.859375 -2.4375 
Q 20.40625 -2.4375 15.046875 2.34375 
Q 11.921875 0 6.84375 0 
L -0.984375 0 
L -0.984375 8.984375 
L 4.6875 8.984375 
Q 7.234375 8.984375 9.375 10.75 
Q 11.46875 12.453125 11.71875 14.84375 
Q 12.703125 23.6875 19.28125 27.59375 
Q 23.875 30.328125 28.421875 30.328125 
Q 31.9375 30.328125 35.15625 28.90625 
Q 44.578125 24.859375 45.40625 16.703125 
Q 45.65625 14.3125 48.140625 11.28125 
Q 49.90625 9.125 55.125 9.125 
L 58.796875 9.125 
L 58.796875 0.140625 
L 52.4375 0.140625 
Q 43.84375 0.140625 42.390625 2.546875 
z
M 19.828125 9.71875 
Q 22.859375 6.34375 30.609375 6.34375 
Q 32.90625 6.34375 33.84375 7.234375 
Q 36.375 9.8125 36.375 13.1875 
Q 36.375 14.109375 36.140625 14.984375 
Q 35.0625 19.28125 32.234375 20.125 
Q 30.328125 20.703125 28.421875 20.703125 
Q 25.828125 20.703125 23.828125 19.390625 
Q 21.390625 17.78125 20.65625 13.03125 
Q 20.3125 11.234375 19.828125 9.71875 
z
" id="DejaVuSans-fee4"/>
      </defs>
      <g transform="translate(358.580254 321.819937)scale(0.1 -0.1)">
       <use xlink:href="#DejaVuSans-fee6"/>
       <use x="76.123047" xlink:href="#DejaVuSans-fee4"/>
       <use x="133.935547" xlink:href="#DejaVuSans-feec"/>
       <use x="180.029297" xlink:href="#DejaVuSans-fe91"/>
      </g>
     </g>
    </g>
    <g id="xtick_12">
     <g id="line2d_12">
      <g>
       <use style="stroke:#000000;stroke-width:0.8;" x="398.487273" xlink:href="#mdc7c4d31e4" y="307.584"/>
      </g>
     </g>
     <g id="text_12">
      <!-- ﺪﻨﻔﺳﺍ -->
      <defs>
       <path d="M 26.65625 28.078125 
Q 23.875 34.03125 14.984375 41.5 
L 26.078125 41.5 
Q 30.8125 37.703125 34.8125 31 
Q 38.765625 24.46875 38.765625 18.75 
Q 38.765625 15.1875 42.828125 11.140625 
Q 44.96875 8.984375 49.8125 8.984375 
L 53.46875 8.984375 
L 53.46875 0 
L 47.125 0 
Q 39.9375 0 35.203125 6.34375 
Q 30.671875 0.09375 20.5625 -1.515625 
Q 18.3125 -1.859375 16.109375 -1.859375 
Q 11.140625 -1.859375 6.109375 0 
L 6.109375 8.984375 
Q 11.71875 6.9375 15.828125 6.9375 
Q 17.4375 6.9375 19.09375 7.375 
Q 27.484375 9.765625 29.203125 15.234375 
Q 29.59375 16.546875 29.59375 18.609375 
Q 29.59375 21.921875 26.65625 28.078125 
z
" id="DejaVuSans-feaa"/>
       <path d="M 10.9375 48.828125 
L 18.265625 48.828125 
L 18.265625 41.5 
L 10.9375 41.5 
z
M 14.59375 4.203125 
Q 10.84375 0 3.421875 0 
L -0.984375 0 
L -0.984375 8.984375 
L 0.734375 8.984375 
Q 5.5625 8.984375 7.71875 11.140625 
Q 10.109375 13.53125 10.109375 18.703125 
L 10.109375 29.296875 
L 19.09375 29.296875 
L 19.09375 18.703125 
Q 19.09375 13.53125 21.484375 11.140625 
Q 23.640625 8.984375 28.46875 8.984375 
L 31.15625 8.984375 
L 31.15625 0 
L 25.78125 0 
Q 18.453125 0 14.59375 4.203125 
z
" id="DejaVuSans-fee8"/>
       <path d="M 29.984375 37.203125 
Q 38.921875 33.296875 40.09375 25.984375 
Q 40.484375 23.53125 40.484375 21.484375 
Q 40.484375 17.921875 39.453125 15.53125 
Q 38.03125 12.25 36.28125 9.8125 
Q 38.1875 8.984375 45.359375 8.984375 
L 51.5625 8.984375 
L 51.5625 0 
L 40.96875 0 
Q 34.328125 0 25.296875 2.78125 
Q 16.265625 0 9.625 0 
L -0.984375 0 
L -0.984375 8.984375 
L 5.21875 8.984375 
Q 12.40625 8.984375 14.3125 9.8125 
Q 12.890625 11.765625 11.140625 15.53125 
Q 10.109375 17.78125 10.109375 21.484375 
Q 10.109375 23.640625 10.5 25.984375 
Q 11.625 32.953125 20.65625 37.203125 
Q 22.125 37.890625 25.296875 37.890625 
Q 28.375 37.890625 29.984375 37.203125 
z
M 25.296875 28.90625 
Q 24.5625 28.90625 23.6875 28.421875 
Q 20.953125 26.859375 19.78125 24.265625 
Q 19.28125 23.25 19.28125 21.828125 
Q 19.28125 19.734375 20.453125 17.140625 
Q 21.96875 13.8125 25.296875 12.75 
Q 28.375 13.765625 30.125 17.140625 
Q 31.34375 19.578125 31.34375 21.828125 
Q 31.34375 23 30.8125 24.265625 
Q 29.6875 26.8125 26.90625 28.421875 
Q 25.984375 28.90625 25.296875 28.90625 
z
M 21.625 56.15625 
L 28.953125 56.15625 
L 28.953125 48.828125 
L 21.625 48.828125 
z
" id="DejaVuSans-fed4"/>
       <path d="M 18.75 6.734375 
Q 16.65625 3.859375 13.921875 2.25 
Q 10.203125 0 5.375 0 
L -0.984375 0 
L -0.984375 8.984375 
L 2.6875 8.984375 
Q 7.515625 8.984375 9.671875 11.140625 
Q 13.578125 15.046875 13.578125 19.921875 
L 13.578125 29.296875 
L 22.5625 29.296875 
L 22.5625 21.6875 
Q 22.5625 18.5625 24.703125 13.671875 
Q 26.8125 8.84375 31.890625 8.84375 
Q 37.203125 8.84375 39.359375 14.796875 
Q 41.15625 19.828125 41.15625 29.296875 
L 50.140625 29.296875 
Q 50.140625 19.28125 51.078125 16.84375 
Q 54.203125 8.546875 59.578125 8.59375 
Q 66.5 8.6875 66.5 22.265625 
L 66.5 36.625 
L 75.484375 36.625 
L 75.484375 19.921875 
Q 75.484375 10.203125 71 4.6875 
Q 67.328125 0.203125 62.359375 -0.984375 
Q 60.546875 -1.421875 58.84375 -1.421875 
Q 55.765625 -1.421875 53.078125 -0.203125 
Q 46.390625 2.78125 45.515625 9.234375 
Q 43.171875 1.609375 38.484375 0 
Q 35.15625 -1.171875 31.984375 -1.171875 
Q 27.203125 -1.171875 23.6875 1.21875 
Q 20.75 3.171875 18.75 6.734375 
z
" id="DejaVuSans-feb3"/>
      </defs>
      <g transform="translate(386.245866 322.182437)scale(0.1 -0.1)">
       <use xlink:href="#DejaVuSans-feaa"/>
       <use x="52.490234" xlink:href="#DejaVuSans-fee8"/>
       <use x="82.666016" xlink:href="#DejaVuSans-fed4"/>
       <use x="133.251953" xlink:href="#DejaVuSans-feb3"/>
       <use x="217.041016" xlink:href="#DejaVuSans-fe8d"/>
      </g>
     </g>
    </g>
    <g id="text_13">
     <!-- ﻩﺎﻣ -->
     <defs>
      <path d="M 21.625 27.046875 
Q 18.40625 27.046875 16.796875 22.796875 
Q 15.53125 19.4375 15.578125 13.421875 
Q 15.625 9.421875 18.3125 7.28125 
Q 21.09375 5.125 23.875 5.125 
Q 28.328125 5.125 32.859375 7.90625 
Q 36.53125 10.15625 36.53125 14.3125 
Q 36.53125 18.0625 33.296875 21.234375 
Q 27.296875 27.09375 21.625 27.046875 
z
M 19.875 35.84375 
Q 29.546875 35.84375 38.421875 28.03125 
Q 45.3125 21.96875 45.3125 14.75 
Q 45.265625 4.984375 38.09375 1.3125 
Q 30.03125 -2.828125 23.578125 -2.828125 
Q 18.890625 -2.828125 14.9375 -1.125 
Q 6.78125 2.484375 6.78125 14.15625 
Q 6.78125 23 8.59375 26.8125 
Q 12.703125 35.84375 19.875 35.84375 
z
" id="DejaVuSans-fee9"/>
     </defs>
     <g transform="translate(229.338906 338.013688)scale(0.1 -0.1)">
      <use xlink:href="#DejaVuSans-fee9"/>
      <use x="52.392578" xlink:href="#DejaVuSans-fe8e"/>
      <use x="82.861328" xlink:href="#DejaVuSans-fee3"/>
     </g>
    </g>
   </g>
   <g id="matplotlib.axis_2">
    <g id="ytick_1">
     <g id="line2d_13">
      <defs>
       <path d="M 0 0 
L -3.5 0 
" id="m9669d4c701" style="stroke:#000000;stroke-width:0.8;"/>
      </defs>
      <g>
       <use style="stroke:#000000;stroke-width:0.8;" x="57.6" xlink:href="#m9669d4c701" y="295.488"/>
      </g>
     </g>
     <g id="text_14">
      <!-- 0.0 -->
      <defs>
       <path d="M 31.78125 66.40625 
Q 24.171875 66.40625 20.328125 58.90625 
Q 16.5 51.421875 16.5 36.375 
Q 16.5 21.390625 20.328125 13.890625 
Q 24.171875 6.390625 31.78125 6.390625 
Q 39.453125 6.390625 43.28125 13.890625 
Q 47.125 21.390625 47.125 36.375 
Q 47.125 51.421875 43.28125 58.90625 
Q 39.453125 66.40625 31.78125 66.40625 
z
M 31.78125 74.21875 
Q 44.046875 74.21875 50.515625 64.515625 
Q 56.984375 54.828125 56.984375 36.375 
Q 56.984375 17.96875 50.515625 8.265625 
Q 44.046875 -1.421875 31.78125 -1.421875 
Q 19.53125 -1.421875 13.0625 8.265625 
Q 6.59375 17.96875 6.59375 36.375 
Q 6.59375 54.828125 13.0625 64.515625 
Q 19.53125 74.21875 31.78125 74.21875 
z
" id="DejaVuSans-30"/>
       <path d="M 10.6875 12.40625 
L 21 12.40625 
L 21 0 
L 10.6875 0 
z
" id="DejaVuSans-2e"/>
      </defs>
      <g transform="translate(34.696875 299.287219)scale(0.1 -0.1)">
       <use xlink:href="#DejaVuSans-30"/>
       <use x="63.623047" xlink:href="#DejaVuSans-2e"/>
       <use x="95.410156" xlink:href="#DejaVuSans-30"/>
      </g>
     </g>
    </g>
    <g id="ytick_2">
     <g id="line2d_14">
      <g>
       <use style="stroke:#000000;stroke-width:0.8;" x="57.6" xlink:href="#m9669d4c701" y="255.168"/>
      </g>
     </g>
     <g id="text_15">
      <!-- 0.5 -->
      <defs>
       <path d="M 10.796875 72.90625 
L 49.515625 72.90625 
L 49.515625 64.59375 
L 19.828125 64.59375 
L 19.828125 46.734375 
Q 21.96875 47.46875 24.109375 47.828125 
Q 26.265625 48.1875 28.421875 48.1875 
Q 40.625 48.1875 47.75 41.5 
Q 54.890625 34.8125 54.890625 23.390625 
Q 54.890625 11.625 47.5625 5.09375 
Q 40.234375 -1.421875 26.90625 -1.421875 
Q 22.3125 -1.421875 17.546875 -0.640625 
Q 12.796875 0.140625 7.71875 1.703125 
L 7.71875 11.625 
Q 12.109375 9.234375 16.796875 8.0625 
Q 21.484375 6.890625 26.703125 6.890625 
Q 35.15625 6.890625 40.078125 11.328125 
Q 45.015625 15.765625 45.015625 23.390625 
Q 45.015625 31 40.078125 35.4375 
Q 35.15625 39.890625 26.703125 39.890625 
Q 22.75 39.890625 18.8125 39.015625 
Q 14.890625 38.140625 10.796875 36.28125 
z
" id="DejaVuSans-35"/>
      </defs>
      <g transform="translate(34.696875 258.967219)scale(0.1 -0.1)">
       <use xlink:href="#DejaVuSans-30"/>
       <use x="63.623047" xlink:href="#DejaVuSans-2e"/>
       <use x="95.410156" xlink:href="#DejaVuSans-35"/>
      </g>
     </g>
    </g>
    <g id="ytick_3">
     <g id="line2d_15">
      <g>
       <use style="stroke:#000000;stroke-width:0.8;" x="57.6" xlink:href="#m9669d4c701" y="214.848"/>
      </g>
     </g>
     <g id="text_16">
      <!-- 1.0 -->
      <defs>
       <path d="M 12.40625 8.296875 
L 28.515625 8.296875 
L 28.515625 63.921875 
L 10.984375 60.40625 
L 10.984375 69.390625 
L 28.421875 72.90625 
L 38.28125 72.90625 
L 38.28125 8.296875 
L 54.390625 8.296875 
L 54.390625 0 
L 12.40625 0 
z
" id="DejaVuSans-31"/>
      </defs>
      <g transform="translate(34.696875 218.647219)scale(0.1 -0.1)">
       <use xlink:href="#DejaVuSans-31"/>
       <use x="63.623047" xlink:href="#DejaVuSans-2e"/>
       <use x="95.410156" xlink:href="#DejaVuSans-30"/>
      </g>
     </g>
    </g>
    <g id="ytick_4">
     <g id="line2d_16">
      <g>
       <use style="stroke:#000000;stroke-width:0.8;" x="57.6" xlink:href="#m9669d4c701" y="174.528"/>
      </g>
     </g>
     <g id="text_17">
      <!-- 1.5 -->
      <g transform="translate(34.696875 178.327219)scale(0.1 -0.1)">
       <use xlink:href="#DejaVuSans-31"/>
       <use x="63.623047" xlink:href="#DejaVuSans-2e"/>
       <use x="95.410156" xlink:href="#DejaVuSans-35"/>
      </g>
     </g>
    </g>
    <g id="ytick_5">
     <g id="line2d_17">
      <g>
       <use style="stroke:#000000;stroke-width:0.8;" x="57.6" xlink:href="#m9669d4c701" y="134.208"/>
      </g>
     </g>
     <g id="text_18">
      <!-- 2.0 -->
      <defs>
       <path d="M 19.1875 8.296875 
L 53.609375 8.296875 
L 53.609375 0 
L 7.328125 0 
L 7.328125 8.296875 
Q 12.9375 14.109375 22.625 23.890625 
Q 32.328125 33.6875 34.8125 36.53125 
Q 39.546875 41.84375 41.421875 45.53125 
Q 43.3125 49.21875 43.3125 52.78125 
Q 43.3125 58.59375 39.234375 62.25 
Q 35.15625 65.921875 28.609375 65.921875 
Q 23.96875 65.921875 18.8125 64.3125 
Q 13.671875 62.703125 7.8125 59.421875 
L 7.8125 69.390625 
Q 13.765625 71.78125 18.9375 73 
Q 24.125 74.21875 28.421875 74.21875 
Q 39.75 74.21875 46.484375 68.546875 
Q 53.21875 62.890625 53.21875 53.421875 
Q 53.21875 48.921875 51.53125 44.890625 
Q 49.859375 40.875 45.40625 35.40625 
Q 44.1875 33.984375 37.640625 27.21875 
Q 31.109375 20.453125 19.1875 8.296875 
z
" id="DejaVuSans-32"/>
      </defs>
      <g transform="translate(34.696875 138.007219)scale(0.1 -0.1)">
       <use xlink:href="#DejaVuSans-32"/>
       <use x="63.623047" xlink:href="#DejaVuSans-2e"/>
       <use x="95.410156" xlink:href="#DejaVuSans-30"/>
      </g>
     </g>
    </g>
    <g id="ytick_6">
     <g id="line2d_18">
      <g>
       <use style="stroke:#000000;stroke-width:0.8;" x="57.6" xlink:href="#m9669d4c701" y="93.888"/>
      </g>
     </g>
     <g id="text_19">
      <!-- 2.5 -->
      <g transform="translate(34.696875 97.687219)scale(0.1 -0.1)">
       <use xlink:href="#DejaVuSans-32"/>
       <use x="63.623047" xlink:href="#DejaVuSans-2e"/>
       <use x="95.410156" xlink:href="#DejaVuSans-35"/>
      </g>
     </g>
    </g>
    <g id="ytick_7">
     <g id="line2d_19">
      <g>
       <use style="stroke:#000000;stroke-width:0.8;" x="57.6" xlink:href="#m9669d4c701" y="53.568"/>
      </g>
     </g>
     <g id="text_20">
      <!-- 3.0 -->
      <defs>
       <path d="M 40.578125 39.3125 
Q 47.65625 37.796875 51.625 33 
Q 55.609375 28.21875 55.609375 21.1875 
Q 55.609375 10.40625 48.1875 4.484375 
Q 40.765625 -1.421875 27.09375 -1.421875 
Q 22.515625 -1.421875 17.65625 -0.515625 
Q 12.796875 0.390625 7.625 2.203125 
L 7.625 11.71875 
Q 11.71875 9.328125 16.59375 8.109375 
Q 21.484375 6.890625 26.8125 6.890625 
Q 36.078125 6.890625 40.9375 10.546875 
Q 45.796875 14.203125 45.796875 21.1875 
Q 45.796875 27.640625 41.28125 31.265625 
Q 36.765625 34.90625 28.71875 34.90625 
L 20.21875 34.90625 
L 20.21875 43.015625 
L 29.109375 43.015625 
Q 36.375 43.015625 40.234375 45.921875 
Q 44.09375 48.828125 44.09375 54.296875 
Q 44.09375 59.90625 40.109375 62.90625 
Q 36.140625 65.921875 28.71875 65.921875 
Q 24.65625 65.921875 20.015625 65.03125 
Q 15.375 64.15625 9.8125 62.3125 
L 9.8125 71.09375 
Q 15.4375 72.65625 20.34375 73.4375 
Q 25.25 74.21875 29.59375 74.21875 
Q 40.828125 74.21875 47.359375 69.109375 
Q 53.90625 64.015625 53.90625 55.328125 
Q 53.90625 49.265625 50.4375 45.09375 
Q 46.96875 40.921875 40.578125 39.3125 
z
" id="DejaVuSans-33"/>
      </defs>
      <g transform="translate(34.696875 57.367219)scale(0.1 -0.1)">
       <use xlink:href="#DejaVuSans-33"/>
       <use x="63.623047" xlink:href="#DejaVuSans-2e"/>
       <use x="95.410156" xlink:href="#DejaVuSans-30"/>
      </g>
     </g>
    </g>
    <g id="text_21">
     <!-- ﺩﺮﮑﻠﻤﻋ -->
     <defs>
      <path d="M 15.140625 0 
L -0.984375 0 
L -0.984375 8.984375 
L 14.15625 8.984375 
Q 21.390625 8.984375 23.578125 14.0625 
Q 24.359375 15.828125 24.359375 17.578125 
Q 24.359375 20.953125 21.734375 24.171875 
L 6.59375 42.71875 
Q 4.15625 45.703125 4.15625 49.65625 
Q 4.15625 51.375 4.640625 52.984375 
Q 6.15625 58.734375 11.234375 60.84375 
L 47.609375 75.984375 
L 47.609375 66.890625 
L 18.5625 54.6875 
Q 15.09375 53.21875 14.0625 51.265625 
Q 13.765625 50.734375 13.765625 49.515625 
Q 13.765625 47.953125 15.28125 46.140625 
L 43.75 11.71875 
Q 44.828125 10.453125 46.6875 9.765625 
Q 48.78125 8.984375 51.90625 8.984375 
L 56.203125 8.984375 
L 56.203125 0 
L 49.75 0 
Q 46.578125 0 43.75 1.171875 
Q 38.71875 3.265625 37.109375 5.28125 
L 32.375 11.140625 
Q 31.34375 8.890625 30.515625 7.5625 
Q 25.875 0 15.140625 0 
z
" id="DejaVuSans-fb91"/>
      <path d="M 16.546875 4.203125 
Q 12.796875 0 5.375 0 
L -0.984375 0 
L -0.984375 8.984375 
L 2.6875 8.984375 
Q 7.515625 8.984375 9.671875 11.140625 
Q 12.0625 13.53125 12.0625 18.703125 
L 12.0625 75.984375 
L 21.046875 75.984375 
L 21.046875 18.703125 
Q 21.046875 13.53125 23.4375 11.140625 
Q 25.59375 8.984375 30.421875 8.984375 
L 34.078125 8.984375 
L 34.078125 0 
L 27.734375 0 
Q 20.40625 0 16.546875 4.203125 
z
" id="DejaVuSans-fee0"/>
      <path d="M 2.9375 8.984375 
Q 10.796875 8.984375 20.65625 13.53125 
Q 17 14.703125 14.453125 17.578125 
Q 10.15625 22.46875 10.15625 29.296875 
Q 10.15625 42.1875 20.125 48.296875 
Q 26.21875 52.046875 38.484375 52.046875 
L 38.484375 43.796875 
Q 27.828125 43.796875 23.28125 40.453125 
Q 18.75 37.109375 18.75 30.875 
Q 18.75 24.65625 21.78125 22.125 
Q 25.828125 18.703125 29.25 18.703125 
Q 31.9375 18.703125 35.546875 20.3125 
L 49.609375 26.609375 
L 49.609375 17.625 
L 29.109375 8.015625 
Q 12.015625 0 3.328125 0 
L -0.984375 0 
L -0.984375 8.984375 
z
" id="DejaVuSans-fecb"/>
     </defs>
     <g transform="translate(28.254687 189.803781)rotate(-90)scale(0.1 -0.1)">
      <use xlink:href="#DejaVuSans-fea9"/>
      <use x="44.53125" xlink:href="#DejaVuSans-feae"/>
      <use x="99.707031" xlink:href="#DejaVuSans-fb91"/>
      <use x="154.931641" xlink:href="#DejaVuSans-fee0"/>
      <use x="188.037109" xlink:href="#DejaVuSans-fee4"/>
      <use x="245.849609" xlink:href="#DejaVuSans-fecb"/>
     </g>
    </g>
   </g>
   <g id="line2d_20">
    <path clip-path="url(#p1cee4c9554)" d="M 73.832727 214.848 
L 103.346777 295.488 
L 132.860826 295.488 
L 162.374876 295.488 
L 191.888926 295.488 
L 221.402975 295.488 
L 250.917025 295.488 
L 280.431074 295.488 
L 309.945124 295.488 
L 339.459174 295.488 
L 368.973223 295.488 
L 398.487273 295.488 
" style="fill:none;stroke:#1f77b4;stroke-dasharray:5.55,2.4;stroke-dashoffset:0;stroke-width:1.5;"/>
    <defs>
     <path d="M 0 3 
C 0.795609 3 1.55874 2.683901 2.12132 2.12132 
C 2.683901 1.55874 3 0.795609 3 0 
C 3 -0.795609 2.683901 -1.55874 2.12132 -2.12132 
C 1.55874 -2.683901 0.795609 -3 0 -3 
C -0.795609 -3 -1.55874 -2.683901 -2.12132 -2.12132 
C -2.683901 -1.55874 -3 -0.795609 -3 0 
C -3 0.795609 -2.683901 1.55874 -2.12132 2.12132 
C -1.55874 2.683901 -0.795609 3 0 3 
z
" id="m3836187f57" style="stroke:#1f77b4;"/>
    </defs>
    <g clip-path="url(#p1cee4c9554)">
     <use style="fill:#1f77b4;stroke:#1f77b4;" x="73.832727" xlink:href="#m3836187f57" y="214.848"/>
     <use style="fill:#1f77b4;stroke:#1f77b4;" x="103.346777" xlink:href="#m3836187f57" y="295.488"/>
     <use style="fill:#1f77b4;stroke:#1f77b4;" x="132.860826" xlink:href="#m3836187f57" y="295.488"/>
     <use style="fill:#1f77b4;stroke:#1f77b4;" x="162.374876" xlink:href="#m3836187f57" y="295.488"/>
     <use style="fill:#1f77b4;stroke:#1f77b4;" x="191.888926" xlink:href="#m3836187f57" y="295.488"/>
     <use style="fill:#1f77b4;stroke:#1f77b4;" x="221.402975" xlink:href="#m3836187f57" y="295.488"/>
     <use style="fill:#1f77b4;stroke:#1f77b4;" x="250.917025" xlink:href="#m3836187f57" y="295.488"/>
     <use style="fill:#1f77b4;stroke:#1f77b4;" x="280.431074" xlink:href="#m3836187f57" y="295.488"/>
     <use style="fill:#1f77b4;stroke:#1f77b4;" x="309.945124" xlink:href="#m3836187f57" y="295.488"/>
     <use style="fill:#1f77b4;stroke:#1f77b4;" x="339.459174" xlink:href="#m3836187f57" y="295.488"/>
     <use style="fill:#1f77b4;stroke:#1f77b4;" x="368.973223" xlink:href="#m3836187f57" y="295.488"/>
     <use style="fill:#1f77b4;stroke:#1f77b4;" x="398.487273" xlink:href="#m3836187f57" y="295.488"/>
    </g>
   </g>
   <g id="line2d_21">
    <path clip-path="url(#p1cee4c9554)" d="M 73.832727 53.568 
L 103.346777 214.848 
L 132.860826 134.208 
L 162.374876 295.488 
L 191.888926 295.488 
L 221.402975 295.488 
L 250.917025 295.488 
L 280.431074 295.488 
L 309.945124 295.488 
L 339.459174 295.488 
L 368.973223 295.488 
L 398.487273 295.488 
" style="fill:none;stroke:#ff7f0e;stroke-dasharray:5.55,2.4;stroke-dashoffset:0;stroke-width:1.5;"/>
    <defs>
     <path d="M 0 3 
C 0.795609 3 1.55874 2.683901 2.12132 2.12132 
C 2.683901 1.55874 3 0.795609 3 0 
C 3 -0.795609 2.683901 -1.55874 2.12132 -2.12132 
C 1.55874 -2.683901 0.795609 -3 0 -3 
C -0.795609 -3 -1.55874 -2.683901 -2.12132 -2.12132 
C -2.683901 -1.55874 -3 -0.795609 -3 0 
C -3 0.795609 -2.683901 1.55874 -2.12132 2.12132 
C -1.55874 2.683901 -0.795609 3 0 3 
z
" id="mc48c5cafe7" style="stroke:#ff7f0e;"/>
    </defs>
    <g clip-path="url(#p1cee4c9554)">
     <use style="fill:#ff7f0e;stroke:#ff7f0e;" x="73.832727" xlink:href="#mc48c5cafe7" y="53.568"/>
     <use style="fill:#ff7f0e;stroke:#ff7f0e;" x="103.346777" xlink:href="#mc48c5cafe7" y="214.848"/>
     <use style="fill:#ff7f0e;stroke:#ff7f0e;" x="132.860826" xlink:href="#mc48c5cafe7" y="134.208"/>
     <use style="fill:#ff7f0e;stroke:#ff7f0e;" x="162.374876" xlink:href="#mc48c5cafe7" y="295.488"/>
     <use style="fill:#ff7f0e;stroke:#ff7f0e;" x="191.888926" xlink:href="#mc48c5cafe7" y="295.488"/>
     <use style="fill:#ff7f0e;stroke:#ff7f0e;" x="221.402975" xlink:href="#mc48c5cafe7" y="295.488"/>
     <use style="fill:#ff7f0e;stroke:#ff7f0e;" x="250.917025" xlink:href="#mc48c5cafe7" y="295.488"/>
     <use style="fill:#ff7f0e;stroke:#ff7f0e;" x="280.431074" xlink:href="#mc48c5cafe7" y="295.488"/>
     <use style="fill:#ff7f0e;stroke:#ff7f0e;" x="309.945124" xlink:href="#mc48c5cafe7" y="295.488"/>
     <use style="fill:#ff7f0e;stroke:#ff7f0e;" x="339.459174" xlink:href="#mc48c5cafe7" y="295.488"/>
     <use style="fill:#ff7f0e;stroke:#ff7f0e;" x="368.973223" xlink:href="#mc48c5cafe7" y="295.488"/>
     <use style="fill:#ff7f0e;stroke:#ff7f0e;" x="398.487273" xlink:href="#mc48c5cafe7" y="295.488"/>
    </g>
   </g>
   <g id="line2d_22">
    <path clip-path="url(#p1cee4c9554)" d="M 73.832727 134.208 
L 103.346777 295.488 
L 132.860826 295.488 
L 162.374876 295.488 
L 191.888926 295.488 
L 221.402975 295.488 
L 250.917025 295.488 
L 280.431074 295.488 
L 309.945124 295.488 
L 339.459174 295.488 
L 368.973223 295.488 
L 398.487273 295.488 
" style="fill:none;stroke:#2ca02c;stroke-dasharray:5.55,2.4;stroke-dashoffset:0;stroke-width:1.5;"/>
    <defs>
     <path d="M 0 3 
C 0.795609 3 1.55874 2.683901 2.12132 2.12132 
C 2.683901 1.55874 3 0.795609 3 0 
C 3 -0.795609 2.683901 -1.55874 2.12132 -2.12132 
C 1.55874 -2.683901 0.795609 -3 0 -3 
C -0.795609 -3 -1.55874 -2.683901 -2.12132 -2.12132 
C -2.683901 -1.55874 -3 -0.795609 -3 0 
C -3 0.795609 -2.683901 1.55874 -2.12132 2.12132 
C -1.55874 2.683901 -0.795609 3 0 3 
z
" id="m3a32840e6e" style="stroke:#2ca02c;"/>
    </defs>
    <g clip-path="url(#p1cee4c9554)">
     <use style="fill:#2ca02c;stroke:#2ca02c;" x="73.832727" xlink:href="#m3a32840e6e" y="134.208"/>
     <use style="fill:#2ca02c;stroke:#2ca02c;" x="103.346777" xlink:href="#m3a32840e6e" y="295.488"/>
     <use style="fill:#2ca02c;stroke:#2ca02c;" x="132.860826" xlink:href="#m3a32840e6e" y="295.488"/>
     <use style="fill:#2ca02c;stroke:#2ca02c;" x="162.374876" xlink:href="#m3a32840e6e" y="295.488"/>
     <use style="fill:#2ca02c;stroke:#2ca02c;" x="191.888926" xlink:href="#m3a32840e6e" y="295.488"/>
     <use style="fill:#2ca02c;stroke:#2ca02c;" x="221.402975" xlink:href="#m3a32840e6e" y="295.488"/>
     <use style="fill:#2ca02c;stroke:#2ca02c;" x="250.917025" xlink:href="#m3a32840e6e" y="295.488"/>
     <use style="fill:#2ca02c;stroke:#2ca02c;" x="280.431074" xlink:href="#m3a32840e6e" y="295.488"/>
     <use style="fill:#2ca02c;stroke:#2ca02c;" x="309.945124" xlink:href="#m3a32840e6e" y="295.488"/>
     <use style="fill:#2ca02c;stroke:#2ca02c;" x="339.459174" xlink:href="#m3a32840e6e" y="295.488"/>
     <use style="fill:#2ca02c;stroke:#2ca02c;" x="368.973223" xlink:href="#m3a32840e6e" y="295.488"/>
     <use style="fill:#2ca02c;stroke:#2ca02c;" x="398.487273" xlink:href="#m3a32840e6e" y="295.488"/>
    </g>
   </g>
   <g id="patch_3">
    <path d="M 57.6 307.584 
L 57.6 41.472 
" style="fill:none;stroke:#000000;stroke-linecap:square;stroke-linejoin:miter;stroke-width:0.8;"/>
   </g>
   <g id="patch_4">
    <path d="M 414.72 307.584 
L 414.72 41.472 
" style="fill:none;stroke:#000000;stroke-linecap:square;stroke-linejoin:miter;stroke-width:0.8;"/>
   </g>
   <g id="patch_5">
    <path d="M 57.6 307.584 
L 414.72 307.584 
" style="fill:none;stroke:#000000;stroke-linecap:square;stroke-linejoin:miter;stroke-width:0.8;"/>
   </g>
   <g id="patch_6">
    <path d="M 57.6 41.472 
L 414.72 41.472 
" style="fill:none;stroke:#000000;stroke-linecap:square;stroke-linejoin:miter;stroke-width:0.8;"/>
   </g>
   <g id="legend_1">
    <g id="patch_7">
     <path d="M 339.20125 302.584 
L 407.72 302.584 
Q 409.72 302.584 409.72 300.584 
L 409.72 256.462125 
Q 409.72 254.462125 407.72 254.462125 
L 339.20125 254.462125 
Q 337.20125 254.462125 337.20125 256.462125 
L 337.20125 300.584 
Q 337.20125 302.584 339.20125 302.584 
z
" style="fill:#ffffff;opacity:0.8;stroke:#cccccc;stroke-linejoin:miter;"/>
    </g>
    <g id="line2d_23">
     <path d="M 341.20125 262.560562 
L 361.20125 262.560562 
" style="fill:none;stroke:#1f77b4;stroke-dasharray:5.55,2.4;stroke-dashoffset:0;stroke-width:1.5;"/>
    </g>
    <g id="line2d_24">
     <g>
      <use style="fill:#1f77b4;stroke:#1f77b4;" x="351.20125" xlink:href="#m3836187f57" y="262.560562"/>
     </g>
    </g>
    <g id="text_22">
     <!-- ﻮﯾﺩﻮﺘﺳﺍ -->
     <defs>
      <path d="M 14.59375 4.203125 
Q 10.84375 0 3.421875 0 
L -0.984375 0 
L -0.984375 8.984375 
L 0.734375 8.984375 
Q 5.5625 8.984375 7.71875 11.140625 
Q 10.109375 13.53125 10.109375 18.703125 
L 10.109375 29.296875 
L 19.09375 29.296875 
L 19.09375 18.703125 
Q 19.09375 13.53125 21.484375 11.140625 
Q 23.640625 8.984375 28.46875 8.984375 
L 31.15625 8.984375 
L 31.15625 0 
L 25.78125 0 
Q 18.453125 0 14.59375 4.203125 
z
M 17.046875 48.828125 
L 24.359375 48.828125 
L 24.359375 41.5 
L 17.046875 41.5 
z
M 4.828125 48.828125 
L 12.15625 48.828125 
L 12.15625 41.5 
L 4.828125 41.5 
z
" id="DejaVuSans-fe98"/>
     </defs>
     <g transform="translate(369.20125 266.060562)scale(0.1 -0.1)">
      <use xlink:href="#DejaVuSans-feee"/>
      <use x="51.660156" xlink:href="#DejaVuSans-fbfe"/>
      <use x="79.492188" xlink:href="#DejaVuSans-fea9"/>
      <use x="124.023438" xlink:href="#DejaVuSans-feee"/>
      <use x="175.683594" xlink:href="#DejaVuSans-fe98"/>
      <use x="205.859375" xlink:href="#DejaVuSans-feb3"/>
      <use x="289.648438" xlink:href="#DejaVuSans-fe8d"/>
     </g>
    </g>
    <g id="line2d_25">
     <path d="M 341.20125 277.601187 
L 361.20125 277.601187 
" style="fill:none;stroke:#ff7f0e;stroke-dasharray:5.55,2.4;stroke-dashoffset:0;stroke-width:1.5;"/>
    </g>
    <g id="line2d_26">
     <g>
      <use style="fill:#ff7f0e;stroke:#ff7f0e;" x="351.20125" xlink:href="#mc48c5cafe7" y="277.601187"/>
     </g>
    </g>
    <g id="text_23">
     <!-- ﺶﯾﺎﻤﻧ -->
     <defs>
      <path d="M 71.484375 8.84375 
Q 75.296875 8.734375 77.640625 14.796875 
Q 79.4375 19.4375 79.4375 29.296875 
L 88.421875 29.296875 
Q 88.421875 19.28125 89.359375 16.84375 
Q 92.484375 8.59375 97.859375 8.59375 
Q 104.78125 8.59375 104.78125 22.265625 
L 104.78125 36.625 
L 113.765625 36.625 
L 113.765625 19.921875 
Q 113.765625 15.1875 117.828125 11.140625 
Q 119.96875 8.984375 124.8125 8.984375 
L 128.46875 8.984375 
L 128.46875 0 
L 122.125 0 
Q 115.046875 0 109.28125 4.6875 
Q 105.953125 0.25 100.640625 -0.984375 
Q 98.828125 -1.421875 97.265625 -1.421875 
Q 93.703125 -1.421875 91.359375 -0.203125 
Q 84.625 3.21875 83.796875 9.234375 
Q 81.390625 1.46875 76.765625 0 
Q 73.640625 -0.984375 70.90625 -0.875 
Q 64.203125 -0.78125 62.3125 2.15625 
Q 61.140625 -6.59375 57.03125 -11.8125 
Q 50.53125 -20.125 41.109375 -23.140625 
Q 37.203125 -24.421875 31.34375 -24.421875 
Q 25.09375 -24.359375 19.78125 -23 
Q 6.34375 -19.53125 6.34375 -3.515625 
Q 6.34375 8.5 11.46875 17.28125 
L 20.453125 17.28125 
Q 15.1875 7.234375 15.234375 -3.515625 
Q 15.28125 -12.25 22.46875 -14.109375 
Q 27.09375 -15.28125 31.0625 -15.28125 
Q 35.84375 -15.28125 40.484375 -13.484375 
Q 46.390625 -11.140625 50.984375 -3.421875 
Q 54.109375 1.859375 54.046875 8.796875 
Q 54 14.890625 53.21875 17.875 
L 50.09375 29.296875 
L 59.078125 29.296875 
L 60.84375 21.6875 
Q 61.625 18.0625 62.984375 15.140625 
Q 65.828125 8.984375 71.484375 8.84375 
z
M 67.140625 58.59375 
L 74.46875 58.59375 
L 74.46875 51.265625 
L 67.140625 51.265625 
z
M 73.25 46.390625 
L 80.5625 46.390625 
L 80.5625 39.0625 
L 73.25 39.0625 
z
M 61.03125 46.390625 
L 68.359375 46.390625 
L 68.359375 39.0625 
L 61.03125 39.0625 
z
" id="DejaVuSans-feb6"/>
      <path d="M 10.9375 48.828125 
L 18.265625 48.828125 
L 18.265625 41.5 
L 10.9375 41.5 
z
M 14.59375 4.203125 
Q 11.078125 0 3.421875 0 
L -0.984375 0 
L -0.984375 8.984375 
L 0.734375 8.984375 
Q 5.5625 8.984375 7.71875 11.140625 
Q 10.109375 13.53125 10.109375 18.703125 
L 10.109375 29.296875 
L 19.09375 29.296875 
L 19.09375 18.703125 
Q 19.09375 9.578125 14.59375 4.203125 
z
" id="DejaVuSans-fee7"/>
     </defs>
     <g transform="translate(369.20125 281.101187)scale(0.1 -0.1)">
      <use xlink:href="#DejaVuSans-feb6"/>
      <use x="127.490234" xlink:href="#DejaVuSans-fbfe"/>
      <use x="155.322266" xlink:href="#DejaVuSans-fe8e"/>
      <use x="185.791016" xlink:href="#DejaVuSans-fee4"/>
      <use x="243.603516" xlink:href="#DejaVuSans-fee7"/>
     </g>
    </g>
    <g id="line2d_27">
     <path d="M 341.20125 292.641812 
L 361.20125 292.641812 
" style="fill:none;stroke:#2ca02c;stroke-dasharray:5.55,2.4;stroke-dashoffset:0;stroke-width:1.5;"/>
    </g>
    <g id="line2d_28">
     <g>
      <use style="fill:#2ca02c;stroke:#2ca02c;" x="351.20125" xlink:href="#m3a32840e6e" y="292.641812"/>
     </g>
    </g>
    <g id="text_24">
     <!-- ﺎﻫ_ﻩﮊﻭﺮﭘ -->
     <defs>
      <path d="M 19.734375 13.140625 
Q 21.484375 14.453125 23.140625 17.578125 
Q 25.046875 21.09375 25.046875 24.078125 
Q 25.046875 26.3125 24.3125 28.125 
Q 23.25 30.671875 20.40625 30.671875 
Q 17.234375 30.671875 16.109375 28.46875 
Q 15.046875 26.375 15.046875 24.65625 
Q 15.046875 23.1875 15.375 21.390625 
Q 16.40625 15.625 19.734375 13.140625 
z
M 4.25 8.984375 
Q 6.78125 8.984375 10.59375 9.515625 
Q 8.40625 14.65625 7.671875 18.015625 
Q 6.78125 21.828125 6.78125 24.953125 
Q 6.78125 29.046875 8.984375 33.109375 
Q 11.328125 37.5 15.09375 37.0625 
Q 12.9375 38.96875 8.984375 39.65625 
L 8.984375 48.6875 
Q 19.875 45.359375 30.421875 36.625 
Q 42.921875 26.421875 46.046875 15.578125 
Q 46.734375 13.03125 46.734375 10.25 
Q 46.734375 5.21875 44.78125 2.25 
Q 41.15625 -3.265625 32.625 -3.265625 
Q 26.21875 -3.265625 18.703125 2 
Q 12.84375 0 5.71875 0 
L -0.984375 0 
L -0.984375 8.984375 
z
M 32.375 24.8125 
Q 32.671875 23 32.671875 21.09375 
Q 32.671875 13.921875 27.875 8.796875 
Q 27.296875 8.109375 26.46875 7.171875 
Q 29 4.9375 31.390625 4.9375 
Q 37.5 4.9375 38.328125 8.203125 
Q 38.671875 9.671875 38.671875 11.28125 
Q 38.671875 14.203125 37.0625 18.015625 
Q 35.640625 21.390625 32.375 24.8125 
z
" id="DejaVuSans-feeb"/>
      <path d="M 50.984375 -16.609375 
L 50.984375 -23.578125 
L -0.984375 -23.578125 
L -0.984375 -16.609375 
z
" id="DejaVuSans-5f"/>
      <path d="M 30.515625 58.59375 
L 37.84375 58.59375 
L 37.84375 51.265625 
L 30.515625 51.265625 
z
M 36.625 46.390625 
L 43.953125 46.390625 
L 43.953125 39.0625 
L 36.625 39.0625 
z
M 24.421875 46.390625 
L 31.734375 46.390625 
L 31.734375 39.0625 
L 24.421875 39.0625 
z
M 32.953125 7.71875 
Q 33.453125 10.546875 33.453125 14.0625 
Q 33.453125 20.21875 30.859375 26.859375 
L 39.84375 26.859375 
Q 42.28125 21.09375 42.28125 14.65625 
Q 42.28125 10.640625 41.890625 7.625 
Q 39.65625 -9.46875 25.4375 -17.046875 
Q 11.578125 -24.421875 -4.15625 -24.421875 
L -4.15625 -15.4375 
Q 10.6875 -15.4375 20.609375 -9.1875 
Q 31.25 -2.4375 32.953125 7.71875 
z
" id="DejaVuSans-fb8a"/>
      <path d="M 14.59375 4.203125 
Q 11.078125 0 3.421875 0 
L -0.984375 0 
L -0.984375 8.984375 
L 0.734375 8.984375 
Q 5.5625 8.984375 7.71875 11.140625 
Q 10.109375 13.53125 10.109375 18.703125 
L 10.109375 29.296875 
L 19.09375 29.296875 
L 19.09375 18.703125 
Q 19.09375 9.578125 14.59375 4.203125 
z
M 10.9375 -17.09375 
L 18.265625 -17.09375 
L 18.265625 -24.40625 
L 10.9375 -24.40625 
z
M 17.046875 -4.875 
L 24.359375 -4.875 
L 24.359375 -12.203125 
L 17.046875 -12.203125 
z
M 4.828125 -4.875 
L 12.15625 -4.875 
L 12.15625 -12.203125 
L 4.828125 -12.203125 
z
" id="DejaVuSans-fb58"/>
     </defs>
     <g transform="translate(369.20125 296.141812)scale(0.1 -0.1)">
      <use xlink:href="#DejaVuSans-fe8e"/>
      <use x="30.46875" xlink:href="#DejaVuSans-feeb"/>
      <use x="83.203125" xlink:href="#DejaVuSans-5f"/>
      <use x="133.203125" xlink:href="#DejaVuSans-fee9"/>
      <use x="185.595703" xlink:href="#DejaVuSans-fb8a"/>
      <use x="233.886719" xlink:href="#DejaVuSans-feed"/>
      <use x="282.177734" xlink:href="#DejaVuSans-feae"/>
      <use x="337.353516" xlink:href="#DejaVuSans-fb58"/>
     </g>
    </g>
   </g>
  </g>
 </g>
 <defs>
  <clipPath id="p1cee4c9554">
   <rect height="266.112" width="357.12" x="57.6" y="41.472"/>
  </clipPath>
 </defs>
</svg>
